<?xml version="1.0" encoding="UTF-8" standalone="no"?>
<svg
   version="1.1"
   viewBox="0.0 0.0 960.0 540.0"
   fill="none"
   stroke="none"
   stroke-linecap="square"
   stroke-miterlimit="10"
   id="svg32"
   xmlns="http://www.w3.org/2000/svg"
   xmlns:svg="http://www.w3.org/2000/svg">
  <defs
     id="defs32" />
  <clipPath
     id="g3a35fb3a460_0_0.0">
    <path
       d="m0 0l960.0 0l0 540.0l-960.0 0l0 -540.0z"
       clip-rule="nonzero"
       id="path1" />
  </clipPath>
  <g
     clip-path="url(#g3a35fb3a460_0_0.0)"
     id="g32">
    <path
       fill="#ffffff"
       d="m0 0l960.0 0l0 540.0l-960.0 0z"
       fill-rule="evenodd"
       id="path2" />
    <path
       fill="#ffffff"
       d="m10.6850395 164.84645l378.5827 0l0 221.88976l-378.5827 0z"
       fill-rule="evenodd"
       id="path3" />
    <path
       stroke="#000000"
       stroke-width="3.073490813648294"
       stroke-linejoin="round"
       stroke-linecap="butt"
       stroke-dasharray="12.293963254593177,9.220472440944881,3.073490813648294,9.220472440944881"
       d="m10.6850395 164.84645l378.5827 0l0 221.88976l-378.5827 0z"
       fill-rule="evenodd"
       id="path4" />
    <path
       fill="#ffffff"
       d="m207.01933 186.69014l175.0236 0l0 177.73228l-175.0236 0z"
       fill-rule="evenodd"
       id="path5" />
    <path
       stroke="#000000"
       stroke-width="1.5354330708661417"
       stroke-linejoin="round"
       stroke-linecap="butt"
       d="m207.01933 186.69014l175.0236 0l0 177.73228l-175.0236 0z"
       fill-rule="evenodd"
       id="path6" />
    <path
       fill="#000000"
       d="m276.69467 218.20316l-2.328125 0l-0.03125 12.828125q-0.03125 0.859375 -0.28125 1.640625q-0.25 0.78125 -0.71875 1.375q-0.46875 0.609375 -1.171875 0.96875q-0.703125 0.359375 -1.640625 0.359375q-0.921875 0 -1.625 -0.359375q-0.703125 -0.375 -1.171875 -0.96875q-0.484375 -0.59375 -0.75 -1.375q-0.25 -0.78125 -0.265625 -1.640625l-0.046875 -12.828125l-2.296875 0l-0.015625 12.828125q0.015625 1.328125 0.46875 2.5q0.453125 1.171875 1.265625 2.03125q0.796875 0.859375 1.921875 1.359375q1.140625 0.5 2.515625 0.5q1.359375 0 2.484375 -0.5q1.140625 -0.5 1.96875 -1.375q0.8125 -0.859375 1.28125 -2.015625q0.46875 -1.171875 0.46875 -2.5l-0.03125 -12.828125zm13.465118 15.21875q0 0.34375 -0.140625 0.640625q-0.125 0.296875 -0.375 0.546875q-0.390625 0.40625 -1.109375 0.640625q-0.71875 0.21875 -1.6875 0.21875q-0.609375 0 -1.234375 -0.125q-0.625 -0.140625 -1.125 -0.453125q-0.53125 -0.3125 -0.875 -0.8125q-0.34375 -0.515625 -0.390625 -1.25l-2.40625 0q0 0.890625 0.40625 1.734375q0.40625 0.828125 1.1875 1.453125q0.765625 0.640625 1.890625 1.03125q1.125 0.375 2.546875 0.375q1.25 0 2.296875 -0.296875q1.0625 -0.3125 1.828125 -0.859375q0.75 -0.546875 1.171875 -1.3125q0.421875 -0.765625 0.421875 -1.703125q0 -0.875 -0.375 -1.53125q-0.359375 -0.671875 -1.0625 -1.171875q-0.703125 -0.5 -1.734375 -0.859375q-1.03125 -0.359375 -2.328125 -0.625q-1.0 -0.203125 -1.640625 -0.40625q-0.640625 -0.203125 -1.015625 -0.46875q-0.390625 -0.265625 -0.546875 -0.578125q-0.15625 -0.328125 -0.15625 -0.75q0 -0.40625 0.1875 -0.78125q0.203125 -0.375 0.59375 -0.65625q0.375 -0.296875 0.953125 -0.453125q0.578125 -0.171875 1.34375 -0.171875q0.75 0 1.328125 0.203125q0.59375 0.203125 1.015625 0.546875q0.421875 0.34375 0.65625 0.78125q0.234375 0.421875 0.234375 0.890625l2.40625 0q0 -0.9375 -0.40625 -1.734375q-0.390625 -0.796875 -1.125 -1.390625q-0.71875 -0.609375 -1.765625 -0.9375q-1.046875 -0.34375 -2.34375 -0.34375q-1.203125 0 -2.21875 0.328125q-1.0 0.328125 -1.734375 0.875q-0.734375 0.5625 -1.140625 1.3125q-0.390625 0.75 -0.390625 1.609375q0 0.875 0.390625 1.53125q0.390625 0.65625 1.09375 1.140625q0.703125 0.5 1.703125 0.84375q1.0 0.34375 2.203125 0.59375q1.0 0.203125 1.65625 0.453125q0.671875 0.234375 1.0625 0.515625q0.40625 0.28125 0.578125 0.625q0.171875 0.34375 0.171875 0.78125zm12.855713 4.0q2.0625 0 3.453125 -0.828125q1.40625 -0.828125 2.109375 -1.890625l-1.46875 -1.15625q-0.671875 0.859375 -1.671875 1.390625q-1.0 0.515625 -2.296875 0.515625q-0.96875 0 -1.78125 -0.359375q-0.796875 -0.375 -1.375 -1.015625q-0.5625 -0.59375 -0.890625 -1.375q-0.3125 -0.78125 -0.390625 -1.8125l0 -0.09375l10.046875 0l0 -1.078125q0 -1.46875 -0.375 -2.71875q-0.359375 -1.265625 -1.109375 -2.203125q-0.765625 -0.9375 -1.90625 -1.453125q-1.125 -0.53125 -2.65625 -0.53125q-1.203125 0 -2.359375 0.5q-1.15625 0.484375 -2.046875 1.40625q-0.921875 0.9375 -1.46875 2.296875q-0.546875 1.34375 -0.546875 3.046875l0 0.546875q0 1.46875 0.5 2.71875q0.5 1.25 1.375 2.15625q0.890625 0.921875 2.125 1.4375q1.25 0.5 2.734375 0.5zm-0.3125 -12.625q0.921875 0 1.59375 0.34375q0.671875 0.328125 1.109375 0.875q0.453125 0.546875 0.6875 1.296875q0.25 0.75 0.25 1.390625l0 0.125l-7.5625 0q0.140625 -0.984375 0.5 -1.71875q0.359375 -0.75 0.875 -1.28125q0.515625 -0.5 1.15625 -0.765625q0.65625 -0.265625 1.390625 -0.265625zm19.324493 -1.984375q-1.546875 0 -2.75 0.671875q-1.203125 0.671875 -2.0625 1.828125l-0.015625 -0.359375l-0.09375 -1.875l-2.296875 0l0 14.078125l2.421875 0l0 -9.03125q0.234375 -0.65625 0.59375 -1.171875q0.359375 -0.53125 0.84375 -0.90625q0.53125 -0.40625 1.234375 -0.625q0.71875 -0.21875 1.609375 -0.21875q0.6875 0 1.3125 0.078125q0.640625 0.0625 1.34375 0.21875l0.328125 -2.34375q-0.375 -0.15625 -1.09375 -0.25q-0.71875 -0.09375 -1.375 -0.09375z"
       fill-rule="nonzero"
       id="path7" />
    <path
       fill="#000000"
       d="m285.30225 260.53128l0 -1.671875q-0.015625 -1.046875 -0.1875 -2.109375q-0.171875 -1.078125 -0.515625 -2.0625q-0.34375 -1.0 -0.890625 -1.859375q-0.53125 -0.859375 -1.28125 -1.5q-0.75 -0.640625 -1.71875 -1.015625q-0.96875 -0.375 -2.1875 -0.375q-1.203125 0 -2.171875 0.375q-0.96875 0.375 -1.71875 1.015625q-0.75 0.640625 -1.28125 1.515625q-0.53125 0.859375 -0.890625 1.859375q-0.34375 0.984375 -0.515625 2.046875q-0.171875 1.0625 -0.1875 2.109375l0 1.671875q0.015625 1.03125 0.1875 2.09375q0.171875 1.0625 0.515625 2.046875q0.359375 1.0 0.90625 1.875q0.546875 0.859375 1.296875 1.484375q0.75 0.640625 1.703125 1.015625q0.96875 0.375 2.171875 0.375q0.46875 0 0.90625 -0.0625q0.4375 -0.0625 0.84375 -0.171875l3.75 3.171875l1.65625 -1.578125l-3.265625 -2.71875q0.75 -0.640625 1.28125 -1.5q0.546875 -0.875 0.890625 -1.859375q0.34375 -0.984375 0.515625 -2.046875q0.171875 -1.078125 0.1875 -2.125zm-2.40625 -1.703125l0 1.703125q0 0.71875 -0.078125 1.5q-0.078125 0.765625 -0.25 1.515625q-0.203125 0.75 -0.515625 1.4375q-0.3125 0.671875 -0.796875 1.171875q-0.46875 0.53125 -1.140625 0.84375q-0.671875 0.296875 -1.578125 0.296875q-0.875 0 -1.546875 -0.296875q-0.671875 -0.3125 -1.15625 -0.84375q-0.484375 -0.515625 -0.8125 -1.1875q-0.3125 -0.6875 -0.5 -1.4375q-0.203125 -0.75 -0.28125 -1.515625q-0.078125 -0.78125 -0.078125 -1.484375l0 -1.703125q0 -0.703125 0.078125 -1.46875q0.078125 -0.78125 0.28125 -1.53125q0.1875 -0.734375 0.5 -1.40625q0.328125 -0.6875 0.8125 -1.203125q0.484375 -0.515625 1.140625 -0.8125q0.671875 -0.3125 1.546875 -0.3125q0.90625 0 1.578125 0.296875q0.671875 0.296875 1.15625 0.8125q0.46875 0.515625 0.78125 1.203125q0.328125 0.671875 0.53125 1.40625q0.171875 0.75 0.25 1.53125q0.078125 0.78125 0.078125 1.484375zm5.230713 3.15625l0 0.28125q0 1.53125 0.4375 2.828125q0.4375 1.296875 1.28125 2.265625q0.8125 0.96875 2.0 1.515625q1.203125 0.546875 2.6875 0.546875q1.484375 0 2.671875 -0.546875q1.1875 -0.546875 2.015625 -1.515625q0.828125 -0.96875 1.265625 -2.265625q0.4375 -1.296875 0.4375 -2.828125l0 -0.28125q0 -1.515625 -0.4375 -2.828125q-0.4375 -1.3125 -1.265625 -2.28125q-0.828125 -0.953125 -2.03125 -1.5q-1.1875 -0.5625 -2.671875 -0.5625q-1.484375 0 -2.671875 0.5625q-1.1875 0.546875 -2.0 1.5q-0.84375 0.96875 -1.28125 2.28125q-0.4375 1.3125 -0.4375 2.828125zm2.40625 0.28125l0 -0.28125q0 -1.03125 0.234375 -1.96875q0.25 -0.953125 0.765625 -1.65625q0.5 -0.71875 1.234375 -1.140625q0.734375 -0.421875 1.75 -0.421875q1.0 0 1.75 0.421875q0.75 0.421875 1.25 1.140625q0.5 0.703125 0.75 1.65625q0.25 0.9375 0.25 1.96875l0 0.28125q0 1.046875 -0.25 2.0q-0.234375 0.9375 -0.734375 1.65625q-0.515625 0.703125 -1.265625 1.125q-0.734375 0.421875 -1.734375 0.421875q-1.0 0 -1.75 -0.421875q-0.75 -0.421875 -1.25 -1.125q-0.515625 -0.71875 -0.765625 -1.65625q-0.234375 -0.953125 -0.234375 -2.0zm24.183868 2.09375q0 0.78125 -0.34375 1.359375q-0.34375 0.5625 -0.875 0.921875q-0.53125 0.375 -1.21875 0.5625q-0.671875 0.171875 -1.375 0.171875q-0.890625 0 -1.640625 -0.234375q-0.75 -0.25 -1.3125 -0.734375q-0.578125 -0.46875 -0.953125 -1.140625q-0.359375 -0.6875 -0.46875 -1.578125l-2.46875 0q0.046875 1.21875 0.546875 2.21875q0.5 1.0 1.359375 1.734375q0.96875 0.859375 2.265625 1.328125q1.3125 0.453125 2.671875 0.453125q1.125 0 2.25 -0.3125q1.140625 -0.328125 2.046875 -0.96875q0.890625 -0.625 1.453125 -1.578125q0.5625 -0.953125 0.5625 -2.21875q0 -1.265625 -0.53125 -2.21875q-0.515625 -0.96875 -1.375 -1.640625q-0.875 -0.71875 -1.9375 -1.171875q-1.046875 -0.46875 -2.09375 -0.796875q-0.640625 -0.1875 -1.359375 -0.4375q-0.71875 -0.265625 -1.34375 -0.65625q-0.625 -0.390625 -1.03125 -0.953125q-0.390625 -0.578125 -0.40625 -1.390625q0 -0.765625 0.296875 -1.328125q0.3125 -0.578125 0.828125 -0.96875q0.515625 -0.390625 1.171875 -0.578125q0.65625 -0.203125 1.34375 -0.203125q0.859375 0 1.546875 0.265625q0.6875 0.265625 1.171875 0.75q0.5 0.484375 0.796875 1.15625q0.296875 0.671875 0.40625 1.484375l2.46875 0q-0.03125 -1.296875 -0.5625 -2.34375q-0.53125 -1.0625 -1.40625 -1.8125q-0.890625 -0.734375 -2.046875 -1.140625q-1.140625 -0.421875 -2.375 -0.421875q-1.125 0 -2.234375 0.359375q-1.09375 0.34375 -1.96875 1.0q-0.875 0.671875 -1.421875 1.640625q-0.53125 0.953125 -0.53125 2.171875q0 1.21875 0.53125 2.125q0.546875 0.90625 1.40625 1.578125q0.84375 0.640625 1.875 1.109375q1.046875 0.46875 2.046875 0.78125q0.6875 0.234375 1.4375 0.515625q0.75 0.265625 1.375 0.65625q0.625 0.421875 1.015625 1.03125q0.40625 0.59375 0.40625 1.453125z"
       fill-rule="nonzero"
       id="path8" />
    <path
       fill="#000000"
       d="m235.23505 292.39066l0 -2.03125l-7.90625 0l0 -6.09375l9.109375 0l0 -2.0625l-11.515625 0l0 18.953125l11.625 0l0 -2.046875l-9.21875 0l0 -6.71875l7.90625 0zm11.386978 -0.09375l-3.71875 -5.21875l-2.78125 0l5.234375 6.953125l-5.375 7.125l2.8125 0l3.890625 -5.359375l3.890625 5.359375l2.78125 0l-5.390625 -7.125l5.25 -6.953125l-2.828125 0l-3.765625 5.21875zm15.886978 -8.640625l-2.421875 0l0 3.421875l-3.703125 0l0 1.859375l3.703125 0l0 7.65625q0 1.296875 0.34375 2.21875q0.34375 0.90625 0.9375 1.484375q0.609375 0.59375 1.421875 0.859375q0.8125 0.265625 1.75 0.265625q0.5625 0 1.125 -0.0625q0.5625 -0.046875 1.078125 -0.15625q0.5 -0.078125 0.921875 -0.21875q0.4375 -0.140625 0.734375 -0.328125l-0.34375 -1.703125q-0.21875 0.0625 -0.5625 0.140625q-0.34375 0.0625 -0.734375 0.125q-0.40625 0.0625 -0.828125 0.109375q-0.40625 0.046875 -0.796875 0.046875q-0.53125 0 -1.015625 -0.125q-0.46875 -0.140625 -0.828125 -0.46875q-0.375 -0.3125 -0.578125 -0.84375q-0.203125 -0.53125 -0.203125 -1.34375l0 -7.65625l5.359375 0l0 -1.859375l-5.359375 0l0 -3.421875zm16.511993 17.765625q2.0625 0 3.453125 -0.828125q1.40625 -0.828125 2.109375 -1.890625l-1.46875 -1.15625q-0.671875 0.859375 -1.671875 1.390625q-1.0 0.515625 -2.296875 0.515625q-0.96875 0 -1.78125 -0.359375q-0.796875 -0.375 -1.375 -1.015625q-0.5625 -0.59375 -0.890625 -1.375q-0.3125 -0.78125 -0.390625 -1.8125l0 -0.09375l10.046875 0l0 -1.078125q0 -1.46875 -0.375 -2.71875q-0.359375 -1.265625 -1.109375 -2.203125q-0.765625 -0.9375 -1.90625 -1.453125q-1.125 -0.53125 -2.65625 -0.53125q-1.203125 0 -2.359375 0.5q-1.15625 0.484375 -2.046875 1.40625q-0.921875 0.9375 -1.46875 2.296875q-0.546875 1.34375 -0.546875 3.046875l0 0.546875q0 1.46875 0.5 2.71875q0.5 1.25 1.375 2.15625q0.890625 0.921875 2.125 1.4375q1.25 0.5 2.734375 0.5zm-0.3125 -12.625q0.921875 0 1.59375 0.34375q0.671875 0.328125 1.109375 0.875q0.453125 0.546875 0.6875 1.296875q0.25 0.75 0.25 1.390625l0 0.125l-7.5625 0q0.140625 -0.984375 0.5 -1.71875q0.359375 -0.75 0.875 -1.28125q0.515625 -0.5 1.15625 -0.765625q0.65625 -0.265625 1.390625 -0.265625zm10.090088 12.359375l2.40625 0l0 -10.09375q0.25 -0.46875 0.578125 -0.84375q0.328125 -0.375 0.71875 -0.65625q0.484375 -0.328125 1.046875 -0.515625q0.578125 -0.1875 1.25 -0.1875q0.765625 0 1.359375 0.1875q0.59375 0.171875 1.015625 0.578125q0.390625 0.40625 0.59375 1.0625q0.21875 0.640625 0.21875 1.578125l0 8.890625l2.40625 0l0 -8.9375q0 -1.40625 -0.34375 -2.421875q-0.34375 -1.03125 -0.984375 -1.703125q-0.640625 -0.65625 -1.546875 -0.96875q-0.890625 -0.3125 -2.0 -0.3125q-0.828125 0.015625 -1.5625 0.25q-0.734375 0.21875 -1.359375 0.640625q-0.40625 0.265625 -0.78125 0.640625q-0.375 0.375 -0.6875 0.8125l-0.171875 -2.078125l-2.15625 0l0 14.078125zm25.355743 -3.734375q0 0.34375 -0.140625 0.640625q-0.125 0.296875 -0.375 0.546875q-0.390625 0.40625 -1.109375 0.640625q-0.71875 0.21875 -1.6875 0.21875q-0.609375 0 -1.234375 -0.125q-0.625 -0.140625 -1.125 -0.453125q-0.53125 -0.3125 -0.875 -0.8125q-0.34375 -0.515625 -0.390625 -1.25l-2.40625 0q0 0.890625 0.40625 1.734375q0.40625 0.828125 1.1875 1.453125q0.765625 0.640625 1.890625 1.03125q1.125 0.375 2.546875 0.375q1.25 0 2.296875 -0.296875q1.0625 -0.3125 1.828125 -0.859375q0.75 -0.546875 1.171875 -1.3125q0.421875 -0.765625 0.421875 -1.703125q0 -0.875 -0.375 -1.53125q-0.359375 -0.671875 -1.0625 -1.171875q-0.703125 -0.5 -1.734375 -0.859375q-1.03125 -0.359375 -2.328125 -0.625q-1.0 -0.203125 -1.640625 -0.40625q-0.640625 -0.203125 -1.015625 -0.46875q-0.390625 -0.265625 -0.546875 -0.578125q-0.15625 -0.328125 -0.15625 -0.75q0 -0.40625 0.1875 -0.78125q0.203125 -0.375 0.59375 -0.65625q0.375 -0.296875 0.953125 -0.453125q0.578125 -0.171875 1.34375 -0.171875q0.75 0 1.328125 0.203125q0.59375 0.203125 1.015625 0.546875q0.421875 0.34375 0.65625 0.78125q0.234375 0.421875 0.234375 0.890625l2.40625 0q0 -0.9375 -0.40625 -1.734375q-0.390625 -0.796875 -1.125 -1.390625q-0.71875 -0.609375 -1.765625 -0.9375q-1.046875 -0.34375 -2.34375 -0.34375q-1.203125 0 -2.21875 0.328125q-1.0 0.328125 -1.734375 0.875q-0.734375 0.5625 -1.140625 1.3125q-0.390625 0.75 -0.390625 1.609375q0 0.875 0.390625 1.53125q0.390625 0.65625 1.09375 1.140625q0.703125 0.5 1.703125 0.84375q1.0 0.34375 2.203125 0.59375q1.0 0.203125 1.65625 0.453125q0.671875 0.234375 1.0625 0.515625q0.40625 0.28125 0.578125 0.625q0.171875 0.34375 0.171875 0.78125zm7.011963 -10.34375l0 2.09375l4.796875 0l0 9.90625l-4.796875 0l0 2.078125l11.796875 0l0 -2.078125l-4.59375 0l0 -12.0l-7.203125 0zm4.484375 -3.703125q0 0.59375 0.34375 0.984375q0.359375 0.390625 1.09375 0.390625q0.71875 0 1.078125 -0.390625q0.375 -0.390625 0.375 -0.984375q0 -0.328125 -0.109375 -0.59375q-0.109375 -0.28125 -0.3125 -0.453125q-0.171875 -0.171875 -0.4375 -0.265625q-0.25 -0.109375 -0.59375 -0.109375q-0.34375 0 -0.609375 0.109375q-0.265625 0.09375 -0.4375 0.265625q-0.203125 0.1875 -0.296875 0.46875q-0.09375 0.265625 -0.09375 0.578125zm10.465088 10.609375l0 0.28125q0 1.53125 0.4375 2.828125q0.4375 1.296875 1.28125 2.265625q0.8125 0.96875 2.0 1.515625q1.203125 0.546875 2.6875 0.546875q1.484375 0 2.671875 -0.546875q1.1875 -0.546875 2.015625 -1.515625q0.828125 -0.96875 1.265625 -2.265625q0.4375 -1.296875 0.4375 -2.828125l0 -0.28125q0 -1.515625 -0.4375 -2.828125q-0.4375 -1.3125 -1.265625 -2.28125q-0.828125 -0.953125 -2.03125 -1.5q-1.1875 -0.5625 -2.671875 -0.5625q-1.484375 0 -2.671875 0.5625q-1.1875 0.546875 -2.0 1.5q-0.84375 0.96875 -1.28125 2.28125q-0.4375 1.3125 -0.4375 2.828125zm2.40625 0.28125l0 -0.28125q0 -1.03125 0.234375 -1.96875q0.25 -0.953125 0.765625 -1.65625q0.5 -0.71875 1.234375 -1.140625q0.734375 -0.421875 1.75 -0.421875q1.0 0 1.75 0.421875q0.75 0.421875 1.25 1.140625q0.5 0.703125 0.75 1.65625q0.25 0.9375 0.25 1.96875l0 0.28125q0 1.046875 -0.25 2.0q-0.234375 0.9375 -0.734375 1.65625q-0.515625 0.703125 -1.265625 1.125q-0.734375 0.421875 -1.734375 0.421875q-1.0 0 -1.75 -0.421875q-0.75 -0.421875 -1.25 -1.125q-0.515625 -0.71875 -0.765625 -1.65625q-0.234375 -0.953125 -0.234375 -2.0zm14.261993 6.890625l2.40625 0l0 -10.09375q0.25 -0.46875 0.578125 -0.84375q0.328125 -0.375 0.71875 -0.65625q0.484375 -0.328125 1.046875 -0.515625q0.578125 -0.1875 1.25 -0.1875q0.765625 0 1.359375 0.1875q0.59375 0.171875 1.015625 0.578125q0.390625 0.40625 0.59375 1.0625q0.21875 0.640625 0.21875 1.578125l0 8.890625l2.40625 0l0 -8.9375q0 -1.40625 -0.34375 -2.421875q-0.34375 -1.03125 -0.984375 -1.703125q-0.640625 -0.65625 -1.546875 -0.96875q-0.890625 -0.3125 -2.0 -0.3125q-0.828125 0.015625 -1.5625 0.25q-0.734375 0.21875 -1.359375 0.640625q-0.40625 0.265625 -0.78125 0.640625q-0.375 0.375 -0.6875 0.8125l-0.171875 -2.078125l-2.15625 0l0 14.078125z"
       fill-rule="nonzero"
       id="path9" />
    <path
       fill="#000000"
       d="m256.77463 333.15628l6.0625 0q1.21875 -0.015625 2.359375 -0.375q1.140625 -0.359375 2.015625 -1.0625q0.859375 -0.671875 1.375 -1.6875q0.53125 -1.015625 0.515625 -2.34375q0 -0.84375 -0.25 -1.5625q-0.25 -0.734375 -0.71875 -1.328125q-0.421875 -0.53125 -1.09375 -0.96875q-0.65625 -0.453125 -1.375 -0.609375l0 -0.046875q0.6875 -0.296875 1.171875 -0.625q0.5 -0.34375 0.90625 -0.84375q0.390625 -0.484375 0.609375 -1.09375q0.234375 -0.609375 0.25 -1.359375q0 -1.328125 -0.515625 -2.265625q-0.515625 -0.953125 -1.390625 -1.5625q-0.875 -0.625 -2.0 -0.90625q-1.109375 -0.296875 -2.28125 -0.3125l-5.640625 0l0 18.953125zm2.421875 -8.859375l3.84375 0q0.765625 0.015625 1.421875 0.25q0.671875 0.234375 1.171875 0.671875q0.484375 0.4375 0.765625 1.0625q0.28125 0.625 0.265625 1.4375q0 0.796875 -0.3125 1.421875q-0.296875 0.625 -0.8125 1.046875q-0.515625 0.4375 -1.203125 0.671875q-0.671875 0.234375 -1.421875 0.25l-3.71875 0l0 -6.8125zm0 -2.015625l0 -6.015625l3.296875 0q0.703125 0.015625 1.375 0.1875q0.671875 0.15625 1.1875 0.515625q0.515625 0.359375 0.8125 0.921875q0.3125 0.5625 0.3125 1.359375q0 0.734375 -0.3125 1.296875q-0.3125 0.5625 -0.828125 0.9375q-0.5 0.390625 -1.15625 0.59375q-0.65625 0.203125 -1.328125 0.203125l-3.359375 0zm13.980743 -9.125l0 2.109375l4.796875 0l0 15.8125l-4.796875 0l0 2.078125l11.796875 0l0 -2.078125l-4.59375 0l0 -17.921875l-7.203125 0zm14.949463 12.828125l0 0.28125q0 1.53125 0.4375 2.828125q0.4375 1.296875 1.28125 2.265625q0.8125 0.96875 2.0 1.515625q1.203125 0.546875 2.6875 0.546875q1.484375 0 2.671875 -0.546875q1.1875 -0.546875 2.015625 -1.515625q0.828125 -0.96875 1.265625 -2.265625q0.4375 -1.296875 0.4375 -2.828125l0 -0.28125q0 -1.515625 -0.4375 -2.828125q-0.4375 -1.3125 -1.265625 -2.28125q-0.828125 -0.953125 -2.03125 -1.5q-1.1875 -0.5625 -2.671875 -0.5625q-1.484375 0 -2.671875 0.5625q-1.1875 0.546875 -2.0 1.5q-0.84375 0.96875 -1.28125 2.28125q-0.4375 1.3125 -0.4375 2.828125zm2.40625 0.28125l0 -0.28125q0 -1.03125 0.234375 -1.96875q0.25 -0.953125 0.765625 -1.65625q0.5 -0.71875 1.234375 -1.140625q0.734375 -0.421875 1.75 -0.421875q1.0 0 1.75 0.421875q0.75 0.421875 1.25 1.140625q0.5 0.703125 0.75 1.65625q0.25 0.9375 0.25 1.96875l0 0.28125q0 1.046875 -0.25 2.0q-0.234375 0.9375 -0.734375 1.65625q-0.515625 0.703125 -1.265625 1.125q-0.734375 0.421875 -1.734375 0.421875q-1.0 0 -1.75 -0.421875q-0.75 -0.421875 -1.25 -1.125q-0.515625 -0.71875 -0.765625 -1.65625q-0.234375 -0.953125 -0.234375 -2.0zm20.261993 5.203125q-1.140625 0 -1.90625 -0.453125q-0.75 -0.453125 -1.203125 -1.171875q-0.46875 -0.71875 -0.671875 -1.625q-0.203125 -0.90625 -0.203125 -1.828125l0 -0.546875q0 -0.90625 0.203125 -1.796875q0.203125 -0.90625 0.671875 -1.640625q0.46875 -0.71875 1.21875 -1.15625q0.765625 -0.453125 1.890625 -0.453125q0.734375 0 1.359375 0.25q0.625 0.234375 1.09375 0.671875q0.453125 0.421875 0.71875 1.0q0.265625 0.5625 0.28125 1.203125l2.265625 0q0 -1.078125 -0.421875 -2.015625q-0.421875 -0.9375 -1.1875 -1.625q-0.765625 -0.671875 -1.8125 -1.0625q-1.046875 -0.40625 -2.296875 -0.40625q-1.59375 0 -2.796875 0.578125q-1.203125 0.5625 -2.0 1.53125q-0.796875 0.96875 -1.203125 2.25q-0.40625 1.28125 -0.40625 2.671875l0 0.546875q0 1.40625 0.40625 2.671875q0.40625 1.265625 1.203125 2.234375q0.796875 0.96875 2.0 1.546875q1.203125 0.578125 2.796875 0.578125q1.125 0 2.140625 -0.375q1.03125 -0.390625 1.828125 -1.046875q0.796875 -0.640625 1.265625 -1.484375q0.484375 -0.859375 0.484375 -1.796875l-2.265625 0q-0.015625 0.578125 -0.3125 1.09375q-0.296875 0.5 -0.765625 0.859375q-0.484375 0.375 -1.109375 0.59375q-0.609375 0.203125 -1.265625 0.203125zm14.215088 -4.890625l5.171875 6.578125l3.046875 0l-6.5625 -8.21875l5.6875 -5.859375l-2.921875 0l-4.625 4.625l-1.5625 1.703125l0 -12.25l-2.421875 0l0 20.0l2.421875 0l0 -4.875l1.765625 -1.703125z"
       fill-rule="nonzero"
       id="path10" />
    <path
       fill="#ffffff"
       d="m17.927862 186.69261l175.02362 0l0 177.73228l-175.02362 0z"
       fill-rule="evenodd"
       id="path11" />
    <path
       stroke="#000000"
       stroke-width="1.5354330708661417"
       stroke-linejoin="round"
       stroke-linecap="butt"
       d="m17.927862 186.69261l175.02362 0l0 177.73228l-175.02362 0z"
       fill-rule="evenodd"
       id="path12" />
    <path
       fill="#000000"
       d="m54.34306 245.565l3.734375 0q1.28125 -0.015625 2.421875 -0.390625q1.140625 -0.390625 2.0 -1.09375q0.859375 -0.71875 1.359375 -1.765625q0.5000038 -1.046875 0.5000038 -2.421875q0 -1.359375 -0.5000038 -2.40625q-0.5 -1.0625 -1.359375 -1.78125q-0.859375 -0.71875 -2.0 -1.09375q-1.140625 -0.375 -2.421875 -0.40625l-6.140625 0l0 18.953125l2.40625 0l0 -7.59375zm0 -1.984375l0 -7.390625l3.734375 0q0.84375 0.015625 1.546875 0.28125q0.703125 0.25 1.234375 0.734375q0.5 0.484375 0.796875 1.171875q0.296875 0.6875 0.296875 1.546875q0 0.859375 -0.296875 1.53125q-0.296875 0.671875 -0.8125 1.140625q-0.515625 0.46875 -1.21875 0.71875q-0.703125 0.25 -1.546875 0.265625l-3.734375 0zm22.605732 -4.765625q-1.546875 0 -2.75 0.671875q-1.203125 0.671875 -2.0625 1.828125l-0.015625 -0.359375l-0.09375 -1.875l-2.296875 0l0 14.078125l2.421875 0l0 -9.03125q0.234375 -0.65625 0.59375 -1.171875q0.359375 -0.53125 0.84375 -0.90625q0.53125 -0.40625 1.234375 -0.625q0.71875 -0.21875 1.609375 -0.21875q0.6875 0 1.3125 0.078125q0.640625 0.0625 1.34375 0.21875l0.328125 -2.34375q-0.375 -0.15625 -1.09375 -0.25q-0.71875 -0.09375 -1.375 -0.09375zm7.136978 0.265625l0 2.09375l4.796875 0l0 9.90625l-4.796875 0l0 2.078125l11.796875 0l0 -2.078125l-4.59375 0l0 -12.0l-7.203125 0zm4.484375 -3.703125q0 0.59375 0.34375 0.984375q0.359375 0.390625 1.09375 0.390625q0.71875 0 1.078125 -0.390625q0.375 -0.390625 0.375 -0.984375q0 -0.328125 -0.109375 -0.59375q-0.109375 -0.28125 -0.3125 -0.453125q-0.171875 -0.171875 -0.4375 -0.265625q-0.25 -0.109375 -0.59375 -0.109375q-0.34375 0 -0.609375 0.109375q-0.265625 0.09375 -0.4375 0.265625q-0.203125 0.1875 -0.296875 0.46875q-0.09375 0.265625 -0.09375 0.578125zm12.246353 3.703125l-2.171875 0l0 14.078125l2.296875 0l0 -11.203125q0.078125 -0.21875 0.203125 -0.390625q0.125 -0.1875 0.296875 -0.328125q0.21875 -0.1875 0.53125 -0.28125q0.328125 -0.09375 0.75 -0.09375q0.390625 0 0.6875 0.09375q0.296875 0.09375 0.484375 0.3125q0.21875 0.21875 0.3125 0.5625q0.09375 0.328125 0.09375 0.765625l0 10.5625l2.296875 0l0 -10.546875q0 -0.078125 0 -0.125q0 -0.0625 0 -0.125q0.03125 -0.328125 0.140625 -0.59375q0.125 -0.265625 0.328125 -0.484375q0.21875 -0.1875 0.53125 -0.296875q0.3125 -0.125 0.734375 -0.125q0.40625 0 0.703125 0.109375q0.3125 0.09375 0.53125 0.296875q0.1875 0.234375 0.28125 0.578125q0.109375 0.328125 0.109375 0.765625l0 10.546875l2.296875 0l0 -10.515625q0 -1.015625 -0.234375 -1.765625q-0.234375 -0.75 -0.671875 -1.21875q-0.40625 -0.40625 -1.0 -0.625q-0.578125 -0.21875 -1.3125 -0.21875q-0.53125 0.015625 -0.984375 0.15625q-0.4375 0.125 -0.8125 0.34375q-0.28125 0.1875 -0.53125 0.453125q-0.25 0.25 -0.421875 0.5625q-0.15625 -0.328125 -0.359375 -0.578125q-0.1875 -0.265625 -0.4375 -0.453125q-0.34375 -0.234375 -0.796875 -0.359375q-0.4375 -0.125 -1.0 -0.125q-0.984375 0.015625 -1.6875 0.4375q-0.703125 0.40625 -1.125 1.15625l-0.0625 -1.328125zm24.136978 14.078125l2.515625 0l0 -0.203125q-0.234375 -0.59375 -0.375 -1.375q-0.125 -0.796875 -0.125 -1.5l0 -6.546875q0 -1.171875 -0.4375 -2.0625q-0.421875 -0.890625 -1.15625 -1.484375q-0.75 -0.578125 -1.78125 -0.875q-1.03125 -0.296875 -2.234375 -0.296875q-1.3125 0 -2.34375 0.375q-1.03125 0.359375 -1.75 0.9375q-0.734375 0.59375 -1.125 1.34375q-0.375 0.734375 -0.390625 1.515625l2.421875 0q0 -0.453125 0.21875 -0.859375q0.21875 -0.40625 0.609375 -0.703125q0.390625 -0.3125 0.953125 -0.484375q0.5625 -0.1875 1.28125 -0.1875q0.765625 0 1.375 0.203125q0.625 0.1875 1.0625 0.546875q0.421875 0.359375 0.65625 0.875q0.234375 0.5 0.234375 1.140625l0 1.109375l-2.625 0q-1.46875 0 -2.671875 0.28125q-1.1875 0.28125 -2.03125 0.859375q-0.84375 0.578125 -1.3125 1.453125q-0.453125 0.875 -0.453125 2.03125q0 0.890625 0.34375 1.65625q0.34375 0.75 0.984375 1.296875q0.625 0.5625 1.53125 0.890625q0.90625 0.328125 2.015625 0.328125q0.6875 0 1.296875 -0.15625q0.625 -0.140625 1.171875 -0.375q0.53125 -0.25 0.96875 -0.578125q0.453125 -0.328125 0.828125 -0.6875q0.03125 0.4375 0.109375 0.859375q0.09375 0.40625 0.234375 0.671875zm-4.25 -1.828125q-0.703125 0 -1.234375 -0.1875q-0.53125 -0.1875 -0.890625 -0.515625q-0.34375 -0.3125 -0.53125 -0.75q-0.171875 -0.4375 -0.171875 -0.96875q0 -0.546875 0.203125 -0.96875q0.203125 -0.4375 0.59375 -0.75q0.546875 -0.4375 1.46875 -0.640625q0.9375 -0.21875 2.1875 -0.21875l2.234375 0l0 2.84375q-0.203125 0.421875 -0.578125 0.8125q-0.359375 0.375 -0.84375 0.671875q-0.515625 0.296875 -1.125 0.484375q-0.609375 0.1875 -1.3125 0.1875zm20.230728 -12.515625q-1.546875 0 -2.75 0.671875q-1.203125 0.671875 -2.0625 1.828125l-0.015625 -0.359375l-0.09375 -1.875l-2.296875 0l0 14.078125l2.421875 0l0 -9.03125q0.234375 -0.65625 0.59375 -1.171875q0.359375 -0.53125 0.84375 -0.90625q0.53125 -0.40625 1.234375 -0.625q0.71875 -0.21875 1.609375 -0.21875q0.6875 0 1.3125 0.078125q0.640625 0.0625 1.34375 0.21875l0.328125 -2.34375q-0.375 -0.15625 -1.09375 -0.25q-0.71875 -0.09375 -1.375 -0.09375zm7.886963 20.03125q0.953125 0 1.6875 -0.359375q0.734375 -0.34375 1.28125 -0.859375q0.53125 -0.53125 0.921875 -1.140625q0.390625 -0.609375 0.625 -1.15625l7.15625 -16.25l-2.703125 0l-3.625 9.125l-0.671875 1.65625l-0.625 -1.703125l-3.859375 -9.078125l-2.6875 0l6.0625 13.421875l-0.96875 1.859375q-0.125 0.265625 -0.359375 0.671875q-0.21875 0.40625 -0.53125 0.78125q-0.328125 0.375 -0.75 0.640625q-0.40625 0.28125 -0.890625 0.28125q-0.1875 0 -0.515625 -0.015625q-0.3125 -0.015625 -0.640625 -0.046875l-0.390625 1.96875q0.234375 0.046875 0.6875 0.125q0.46875 0.078125 0.796875 0.078125z"
       fill-rule="nonzero"
       id="path13" />
    <path
       fill="#000000"
       d="m59.684986 285.15875l6.062504 0q1.21875 -0.015625 2.359375 -0.375q1.140625 -0.359375 2.015625 -1.0625q0.859375 -0.671875 1.375 -1.6875q0.53125 -1.015625 0.515625 -2.34375q0 -0.84375 -0.25 -1.5625q-0.25 -0.734375 -0.71875 -1.328125q-0.421875 -0.53125 -1.09375 -0.96875q-0.65625 -0.453125 -1.375 -0.609375l0 -0.046875q0.6875 -0.296875 1.171875 -0.625q0.5 -0.34375 0.90625 -0.84375q0.390625 -0.484375 0.609375 -1.09375q0.234375 -0.609375 0.25 -1.359375q0 -1.328125 -0.515625 -2.265625q-0.515625 -0.953125 -1.390625 -1.5625q-0.875 -0.625 -2.0 -0.90625q-1.109375 -0.296875 -2.28125 -0.3125l-5.640629 0l0 18.953125zm2.421875 -8.859375l3.8437538 0q0.765625 0.015625 1.421875 0.25q0.671875 0.234375 1.171875 0.671875q0.484375 0.4375 0.765625 1.0625q0.28125 0.625 0.265625 1.4375q0 0.796875 -0.3125 1.421875q-0.296875 0.625 -0.8125 1.046875q-0.515625 0.4375 -1.203125 0.671875q-0.671875 0.234375 -1.421875 0.25l-3.7187538 0l0 -6.8125zm0 -2.015625l0 -6.015625l3.2968788 0q0.703125 0.015625 1.375 0.1875q0.671875 0.15625 1.1875 0.515625q0.515625 0.359375 0.8125 0.921875q0.3125 0.5625 0.3125 1.359375q0 0.734375 -0.3125 1.296875q-0.3125 0.5625 -0.828125 0.9375q-0.5 0.390625 -1.15625 0.59375q-0.65625 0.203125 -1.328125 0.203125l-3.3593788 0zm22.886982 10.875l2.1875 0l0 -14.078125l-2.421875 0l0 10.09375q-0.203125 0.453125 -0.5 0.84375q-0.28125 0.375 -0.671875 0.65625q-0.46875 0.34375 -1.109375 0.53125q-0.640625 0.1875 -1.4375 0.1875q-0.703125 0 -1.234375 -0.1875q-0.515625 -0.1875 -0.875 -0.640625q-0.375 -0.4375 -0.5625 -1.1875q-0.171875 -0.765625 -0.171875 -1.90625l0 -8.390625l-2.40625 0l0 8.359375q0 1.578125 0.34375 2.703125q0.34375 1.125 0.984375 1.859375q0.640625 0.734375 1.53125 1.078125q0.90625 0.34375 2.0 0.34375q1.390625 0 2.4375 -0.578125q1.0625 -0.578125 1.765625 -1.625l0.140625 1.9375zm6.715103 0l2.40625 0l0 -10.09375q0.25 -0.46875 0.578125 -0.84375q0.328125 -0.375 0.71875 -0.65625q0.484375 -0.328125 1.046875 -0.515625q0.578125 -0.1875 1.25 -0.1875q0.765625 0 1.359375 0.1875q0.59375 0.171875 1.015625 0.578125q0.390625 0.40625 0.59375 1.0625q0.21875 0.640625 0.21875 1.578125l0 8.890625l2.40625 0l0 -8.9375q0 -1.40625 -0.34375 -2.421875q-0.34375 -1.03125 -0.984375 -1.703125q-0.640625 -0.65625 -1.546875 -0.96875q-0.890625 -0.3125 -2.0 -0.3125q-0.828125 0.015625 -1.5625 0.25q-0.734375 0.21875 -1.359375 0.640625q-0.40625 0.265625 -0.78125 0.640625q-0.375 0.375 -0.6875 0.8125l-0.171875 -2.078125l-2.15625 0l0 14.078125zm15.543228 -7.15625l0 0.265625q0 1.515625 0.390625 2.828125q0.40625 1.296875 1.140625 2.265625q0.734375 0.96875 1.765625 1.515625q1.03125 0.546875 2.3125 0.546875q1.296875 0 2.265625 -0.4375q0.984375 -0.453125 1.6875 -1.3125l0.109375 1.484375l2.203125 0l0 -20.0l-2.40625 0l0 7.3125q-0.6875 -0.8125 -1.640625 -1.234375q-0.9375 -0.421875 -2.203125 -0.421875q-1.28125 0 -2.328125 0.53125q-1.03125 0.53125 -1.765625 1.484375q-0.734375 0.953125 -1.140625 2.28125q-0.390625 1.3125 -0.390625 2.890625zm2.40625 0.265625l0 -0.265625q0 -1.03125 0.21875 -1.953125q0.21875 -0.9375 0.6875 -1.65625q0.453125 -0.703125 1.171875 -1.109375q0.734375 -0.421875 1.75 -0.421875q1.1875 0 1.96875 0.5625q0.796875 0.546875 1.265625 1.40625l0 6.53125q-0.46875 0.921875 -1.265625 1.46875q-0.78125 0.546875 -2.0 0.546875q-1.0 0 -1.71875 -0.40625q-0.71875 -0.421875 -1.171875 -1.125q-0.46875 -0.703125 -0.6875 -1.625q-0.21875 -0.921875 -0.21875 -1.953125zm14.418228 -13.109375l0 2.109375l4.7968674 0l0 15.8125l-4.7968674 0l0 2.078125l11.796867 0l0 -2.078125l-4.59375 0l0 -17.921875l-7.2031174 0zm21.840096 20.265625q2.0625 0 3.453125 -0.828125q1.40625 -0.828125 2.109375 -1.890625l-1.46875 -1.15625q-0.671875 0.859375 -1.671875 1.390625q-1.0 0.515625 -2.296875 0.515625q-0.96875 0 -1.78125 -0.359375q-0.796875 -0.375 -1.375 -1.015625q-0.5625 -0.59375 -0.890625 -1.375q-0.3125 -0.78125 -0.390625 -1.8125l0 -0.09375l10.046875 0l0 -1.078125q0 -1.46875 -0.375 -2.71875q-0.359375 -1.265625 -1.109375 -2.203125q-0.765625 -0.9375 -1.90625 -1.453125q-1.125 -0.53125 -2.65625 -0.53125q-1.203125 0 -2.359375 0.5q-1.15625 0.484375 -2.046875 1.40625q-0.921875 0.9375 -1.46875 2.296875q-0.546875 1.34375 -0.546875 3.046875l0 0.546875q0 1.46875 0.5 2.71875q0.5 1.25 1.375 2.15625q0.890625 0.921875 2.125 1.4375q1.25 0.5 2.734375 0.5zm-0.3125 -12.625q0.921875 0 1.59375 0.34375q0.671875 0.328125 1.109375 0.875q0.453125 0.546875 0.6875 1.296875q0.25 0.75 0.25 1.390625l0 0.125l-7.5625 0q0.140625 -0.984375 0.5 -1.71875q0.359375 -0.75 0.875 -1.28125q0.515625 -0.5 1.15625 -0.765625q0.65625 -0.265625 1.390625 -0.265625z"
       fill-rule="nonzero"
       id="path14" />
    <path
       fill="#000000"
       d="m67.68317 317.15875l6.0625 0q1.21875 -0.015625 2.359375 -0.375q1.140625 -0.359375 2.015625 -1.0625q0.859375 -0.671875 1.375 -1.6875q0.53125 -1.015625 0.515625 -2.34375q0 -0.84375 -0.25 -1.5625q-0.25 -0.734375 -0.71875 -1.328125q-0.421875 -0.53125 -1.09375 -0.96875q-0.65625 -0.453125 -1.375 -0.609375l0 -0.046875q0.6875 -0.296875 1.171875 -0.625q0.5 -0.34375 0.90625 -0.84375q0.390625 -0.484375 0.609375 -1.09375q0.234375 -0.609375 0.25 -1.359375q0 -1.328125 -0.515625 -2.265625q-0.515625 -0.953125 -1.390625 -1.5625q-0.875 -0.625 -2.0 -0.90625q-1.109375 -0.296875 -2.28125 -0.3125l-5.640625 0l0 18.953125zm2.421875 -8.859375l3.84375 0q0.765625 0.015625 1.421875 0.25q0.671875 0.234375 1.171875 0.671875q0.484375 0.4375 0.765625 1.0625q0.28125 0.625 0.265625 1.4375q0 0.796875 -0.3125 1.421875q-0.296875 0.625 -0.8125 1.046875q-0.515625 0.4375 -1.203125 0.671875q-0.671875 0.234375 -1.421875 0.25l-3.71875 0l0 -6.8125zm0 -2.015625l0 -6.015625l3.296875 0q0.703125 0.015625 1.375 0.1875q0.671875 0.15625 1.1875 0.515625q0.515625 0.359375 0.8125 0.921875q0.3125 0.5625 0.3125 1.359375q0 0.734375 -0.3125 1.296875q-0.3125 0.5625 -0.828125 0.9375q-0.5 0.390625 -1.15625 0.59375q-0.65625 0.203125 -1.328125 0.203125l-3.359375 0zm13.980728 -9.125l0 2.109375l4.796875 0l0 15.8125l-4.796875 0l0 2.078125l11.796875 0l0 -2.078125l-4.59375 0l0 -17.921875l-7.203125 0zm14.949478 12.828125l0 0.28125q0 1.53125 0.4375 2.828125q0.4375 1.296875 1.28125 2.265625q0.8125 0.96875 2.0 1.515625q1.203125 0.546875 2.6875 0.546875q1.484375 0 2.671875 -0.546875q1.1875 -0.546875 2.015625 -1.515625q0.828125 -0.96875 1.265625 -2.265625q0.4375 -1.296875 0.4375 -2.828125l0 -0.28125q0 -1.515625 -0.4375 -2.828125q-0.4375 -1.3125 -1.265625 -2.28125q-0.828125 -0.953125 -2.03125 -1.5q-1.1875 -0.5625 -2.671875 -0.5625q-1.484375 0 -2.671875 0.5625q-1.1875 0.546875 -2.0 1.5q-0.84375 0.96875 -1.28125 2.28125q-0.4375 1.3125 -0.4375 2.828125zm2.40625 0.28125l0 -0.28125q0 -1.03125 0.234375 -1.96875q0.25 -0.953125 0.765625 -1.65625q0.5 -0.71875 1.234375 -1.140625q0.734375 -0.421875 1.75 -0.421875q1.0 0 1.75 0.421875q0.75 0.421875 1.25 1.140625q0.5 0.703125 0.75 1.65625q0.25 0.9375 0.25 1.96875l0 0.28125q0 1.046875 -0.25 2.0q-0.234375 0.9375 -0.734375 1.65625q-0.515625 0.703125 -1.265625 1.125q-0.734375 0.421875 -1.734375 0.421875q-1.0 0 -1.75 -0.421875q-0.75 -0.421875 -1.25 -1.125q-0.515625 -0.71875 -0.765625 -1.65625q-0.234375 -0.953125 -0.234375 -2.0zm20.261978 5.203125q-1.140625 0 -1.90625 -0.453125q-0.75 -0.453125 -1.203125 -1.171875q-0.46875 -0.71875 -0.671875 -1.625q-0.203125 -0.90625 -0.203125 -1.828125l0 -0.546875q0 -0.90625 0.203125 -1.796875q0.203125 -0.90625 0.671875 -1.640625q0.46875 -0.71875 1.21875 -1.15625q0.765625 -0.453125 1.890625 -0.453125q0.734375 0 1.359375 0.25q0.625 0.234375 1.09375 0.671875q0.453125 0.421875 0.71875 1.0q0.265625 0.5625 0.28125 1.203125l2.265625 0q0 -1.078125 -0.421875 -2.015625q-0.421875 -0.9375 -1.1875 -1.625q-0.765625 -0.671875 -1.8125 -1.0625q-1.046875 -0.40625 -2.296875 -0.40625q-1.59375 0 -2.796875 0.578125q-1.203125 0.5625 -2.0 1.53125q-0.796875 0.96875 -1.203125 2.25q-0.40625 1.28125 -0.40625 2.671875l0 0.546875q0 1.40625 0.40625 2.671875q0.40625 1.265625 1.203125 2.234375q0.796875 0.96875 2.0 1.546875q1.203125 0.578125 2.796875 0.578125q1.125 0 2.140625 -0.375q1.03125 -0.390625 1.828125 -1.046875q0.796875 -0.640625 1.265625 -1.484375q0.484375 -0.859375 0.484375 -1.796875l-2.265625 0q-0.015625 0.578125 -0.3125 1.09375q-0.296875 0.5 -0.765625 0.859375q-0.484375 0.375 -1.109375 0.59375q-0.609375 0.203125 -1.265625 0.203125zm14.215103 -4.890625l5.171875 6.578125l3.046875 0l-6.5625 -8.21875l5.6875 -5.859375l-2.921875 0l-4.625 4.625l-1.5625 1.703125l0 -12.25l-2.421875 0l0 20.0l2.421875 0l0 -4.875l1.765625 -1.703125z"
       fill-rule="nonzero"
       id="path15" />
    <path
       fill="#ffffff"
       d="m774.29224 186.91223l175.02362 0l0 177.7323l-175.02362 0z"
       fill-rule="evenodd"
       id="path16" />
    <path
       stroke="#000000"
       stroke-width="1.5354330708661417"
       stroke-linejoin="round"
       stroke-linecap="butt"
       d="m774.29224 186.91223l175.02362 0l0 177.7323l-175.02362 0z"
       fill-rule="evenodd"
       id="path17" />
    <path
       fill="#000000"
       d="m810.70746 261.78464l3.734375 0q1.28125 -0.015625 2.421875 -0.390625q1.140625 -0.390625 2.0 -1.09375q0.859375 -0.71875 1.359375 -1.765625q0.5 -1.046875 0.5 -2.421875q0 -1.3593903 -0.5 -2.4062653q-0.5 -1.0625 -1.359375 -1.78125q-0.859375 -0.71875 -2.0 -1.09375q-1.140625 -0.375 -2.421875 -0.40625l-6.140625 0l0 18.95314l2.40625 0l0 -7.59375zm0 -1.984375l0 -7.3906403l3.734375 0q0.84375 0.015625 1.546875 0.28125q0.703125 0.25 1.234375 0.734375q0.5 0.484375 0.796875 1.171875q0.296875 0.6875 0.296875 1.5468903q0 0.859375 -0.296875 1.53125q-0.296875 0.671875 -0.8125 1.140625q-0.515625 0.46875 -1.21875 0.71875q-0.703125 0.25 -1.546875 0.265625l-3.734375 0zm22.621338 9.578125l2.515625 0l0 -0.203125q-0.234375 -0.59375 -0.375 -1.375q-0.125 -0.796875 -0.125 -1.5l0 -6.546875q0 -1.171875 -0.4375 -2.0625q-0.421875 -0.890625 -1.15625 -1.484375q-0.75 -0.57814026 -1.78125 -0.87501526q-1.03125 -0.296875 -2.234375 -0.296875q-1.3125 0 -2.34375 0.375q-1.03125 0.359375 -1.75 0.93751526q-0.734375 0.59375 -1.125 1.34375q-0.375 0.734375 -0.390625 1.515625l2.421875 0q0 -0.453125 0.21875 -0.859375q0.21875 -0.40625 0.609375 -0.703125q0.390625 -0.3125 0.953125 -0.484375q0.5625 -0.1875 1.28125 -0.1875q0.765625 0 1.375 0.203125q0.625 0.1875 1.0625 0.546875q0.421875 0.359375 0.65625 0.875q0.234375 0.5 0.234375 1.140625l0 1.109375l-2.625 0q-1.46875 0 -2.671875 0.28125q-1.1875 0.28125 -2.03125 0.859375q-0.84375 0.578125 -1.3125 1.453125q-0.453125 0.875 -0.453125 2.03125q0 0.890625 0.34375 1.65625q0.34375 0.75 0.984375 1.296875q0.625 0.5625 1.53125 0.890625q0.90625 0.328125 2.015625 0.328125q0.6875 0 1.296875 -0.15625q0.625 -0.140625 1.171875 -0.375q0.53125 -0.25 0.96875 -0.578125q0.453125 -0.328125 0.828125 -0.6875q0.03125 0.4375 0.109375 0.859375q0.09375 0.40625 0.234375 0.671875zm-4.25 -1.828125q-0.703125 0 -1.234375 -0.1875q-0.53125 -0.1875 -0.890625 -0.515625q-0.34375 -0.3125 -0.53125 -0.75q-0.171875 -0.4375 -0.171875 -0.96875q0 -0.546875 0.203125 -0.96875q0.203125 -0.4375 0.59375 -0.75q0.546875 -0.4375 1.46875 -0.640625q0.9375 -0.21875 2.1875 -0.21875l2.234375 0l0 2.84375q-0.203125 0.421875 -0.578125 0.8125q-0.359375 0.375 -0.84375 0.671875q-0.515625 0.296875 -1.125 0.484375q-0.609375 0.1875 -1.3125 0.1875zm12.121338 7.515625q0.953125 0 1.6875 -0.359375q0.734375 -0.34375 1.28125 -0.859375q0.53125 -0.53125 0.921875 -1.140625q0.390625 -0.609375 0.625 -1.15625l7.15625 -16.250015l-2.703125 0l-3.625 9.125015l-0.671875 1.65625l-0.625 -1.703125l-3.859375 -9.07814l-2.6875 0l6.0625 13.42189l-0.96875 1.859375q-0.125 0.265625 -0.359375 0.671875q-0.21875 0.40625 -0.53125 0.78125q-0.328125 0.375 -0.75 0.640625q-0.40625 0.28125 -0.890625 0.28125q-0.1875 0 -0.515625 -0.015625q-0.3125 -0.015625 -0.640625 -0.046875l-0.390625 1.96875q0.234375 0.046875 0.6875 0.125q0.46875 0.078125 0.796875 0.078125zm15.246399 -25.687515l0 2.109375l4.796875 0l0 15.812515l-4.796875 0l0 2.078125l11.796875 0l0 -2.078125l-4.59375 0l0 -17.92189l-7.203125 0zm14.949463 12.82814l0 0.28125q0 1.53125 0.4375 2.828125q0.4375 1.296875 1.28125 2.265625q0.8125 0.96875 2.0 1.515625q1.203125 0.546875 2.6875 0.546875q1.484375 0 2.671875 -0.546875q1.1875 -0.546875 2.015625 -1.515625q0.828125 -0.96875 1.265625 -2.265625q0.4375 -1.296875 0.4375 -2.828125l0 -0.28125q0 -1.515625 -0.4375 -2.828125q-0.4375 -1.3125 -1.265625 -2.28125q-0.828125 -0.953125 -2.03125 -1.5000153q-1.1875 -0.5625 -2.671875 -0.5625q-1.484375 0 -2.671875 0.5625q-1.1875 0.54689026 -2.0 1.5000153q-0.84375 0.96875 -1.28125 2.28125q-0.4375 1.3125 -0.4375 2.828125zm2.40625 0.28125l0 -0.28125q0 -1.03125 0.234375 -1.96875q0.25 -0.953125 0.765625 -1.65625q0.5 -0.71875 1.234375 -1.140625q0.734375 -0.421875 1.75 -0.421875q1.0 0 1.75 0.421875q0.75 0.421875 1.25 1.140625q0.5 0.703125 0.75 1.65625q0.25 0.9375 0.25 1.96875l0 0.28125q0 1.046875 -0.25 2.0q-0.234375 0.9375 -0.734375 1.65625q-0.515625 0.703125 -1.265625 1.125q-0.734375 0.421875 -1.734375 0.421875q-1.0 0 -1.75 -0.421875q-0.75 -0.421875 -1.25 -1.125q-0.515625 -0.71875 -0.765625 -1.65625q-0.234375 -0.953125 -0.234375 -2.0zm23.511963 6.890625l2.515625 0l0 -0.203125q-0.234375 -0.59375 -0.375 -1.375q-0.125 -0.796875 -0.125 -1.5l0 -6.546875q0 -1.171875 -0.4375 -2.0625q-0.421875 -0.890625 -1.15625 -1.484375q-0.75 -0.57814026 -1.78125 -0.87501526q-1.03125 -0.296875 -2.234375 -0.296875q-1.3125 0 -2.34375 0.375q-1.03125 0.359375 -1.75 0.93751526q-0.734375 0.59375 -1.125 1.34375q-0.375 0.734375 -0.390625 1.515625l2.421875 0q0 -0.453125 0.21875 -0.859375q0.21875 -0.40625 0.609375 -0.703125q0.390625 -0.3125 0.953125 -0.484375q0.5625 -0.1875 1.28125 -0.1875q0.765625 0 1.375 0.203125q0.625 0.1875 1.0625 0.546875q0.421875 0.359375 0.65625 0.875q0.234375 0.5 0.234375 1.140625l0 1.109375l-2.625 0q-1.46875 0 -2.671875 0.28125q-1.1875 0.28125 -2.03125 0.859375q-0.84375 0.578125 -1.3125 1.453125q-0.453125 0.875 -0.453125 2.03125q0 0.890625 0.34375 1.65625q0.34375 0.75 0.984375 1.296875q0.625 0.5625 1.53125 0.890625q0.90625 0.328125 2.015625 0.328125q0.6875 0 1.296875 -0.15625q0.625 -0.140625 1.171875 -0.375q0.53125 -0.25 0.96875 -0.578125q0.453125 -0.328125 0.828125 -0.6875q0.03125 0.4375 0.109375 0.859375q0.09375 0.40625 0.234375 0.671875zm-4.25 -1.828125q-0.703125 0 -1.234375 -0.1875q-0.53125 -0.1875 -0.890625 -0.515625q-0.34375 -0.3125 -0.53125 -0.75q-0.171875 -0.4375 -0.171875 -0.96875q0 -0.546875 0.203125 -0.96875q0.203125 -0.4375 0.59375 -0.75q0.546875 -0.4375 1.46875 -0.640625q0.9375 -0.21875 2.1875 -0.21875l2.234375 0l0 2.84375q-0.203125 0.421875 -0.578125 0.8125q-0.359375 0.375 -0.84375 0.671875q-0.515625 0.296875 -1.125 0.484375q-0.609375 0.1875 -1.3125 0.1875zm10.543213 -5.328125l0 0.265625q0 1.515625 0.390625 2.828125q0.40625 1.296875 1.140625 2.265625q0.734375 0.96875 1.765625 1.515625q1.03125 0.546875 2.3125 0.546875q1.296875 0 2.265625 -0.4375q0.984375 -0.453125 1.6875 -1.3125l0.109375 1.484375l2.203125 0l0 -20.000015l-2.40625 0l0 7.3125153q-0.6875 -0.81251526 -1.640625 -1.2343903q-0.9375 -0.421875 -2.203125 -0.421875q-1.28125 0 -2.328125 0.53125q-1.03125 0.53126526 -1.765625 1.4843903q-0.734375 0.953125 -1.140625 2.28125q-0.390625 1.3125 -0.390625 2.890625zm2.40625 0.265625l0 -0.265625q0 -1.03125 0.21875 -1.953125q0.21875 -0.9375 0.6875 -1.65625q0.453125 -0.703125 1.171875 -1.109375q0.734375 -0.421875 1.75 -0.421875q1.1875 0 1.96875 0.5625q0.796875 0.546875 1.265625 1.40625l0 6.53125q-0.46875 0.921875 -1.265625 1.46875q-0.78125 0.546875 -2.0 0.546875q-1.0 0 -1.71875 -0.40625q-0.71875 -0.421875 -1.171875 -1.125q-0.46875 -0.703125 -0.6875 -1.625q-0.21875 -0.921875 -0.21875 -1.953125z"
       fill-rule="nonzero"
       id="path18" />
    <path
       fill="#000000"
       d="m824.04755 301.3784l6.0625 0q1.21875 -0.015625 2.359375 -0.375q1.140625 -0.359375 2.015625 -1.0625q0.859375 -0.671875 1.375 -1.6875q0.53125 -1.015625 0.515625 -2.34375q0 -0.84375 -0.25 -1.5625q-0.25 -0.734375 -0.71875 -1.328125q-0.421875 -0.53125 -1.09375 -0.96875q-0.65625 -0.453125 -1.375 -0.609375l0 -0.046875q0.6875 -0.296875 1.171875 -0.625q0.5 -0.34375 0.90625 -0.84375q0.390625 -0.484375 0.609375 -1.09375q0.234375 -0.609375 0.25 -1.359375q0 -1.328125 -0.515625 -2.265625q-0.515625 -0.953125 -1.390625 -1.5625q-0.875 -0.625 -2.0 -0.90625q-1.109375 -0.296875 -2.28125 -0.3125l-5.640625 0l0 18.953125zm2.421875 -8.859375l3.84375 0q0.765625 0.015625 1.421875 0.25q0.671875 0.234375 1.171875 0.671875q0.484375 0.4375 0.765625 1.0625q0.28125 0.625 0.265625 1.4375q0 0.796875 -0.3125 1.421875q-0.296875 0.625 -0.8125 1.046875q-0.515625 0.4375 -1.203125 0.671875q-0.671875 0.234375 -1.421875 0.25l-3.71875 0l0 -6.8125zm0 -2.015625l0 -6.015625l3.296875 0q0.703125 0.015625 1.375 0.1875q0.671875 0.15625 1.1875 0.515625q0.515625 0.359375 0.8125 0.921875q0.3125 0.5625 0.3125 1.359375q0 0.734375 -0.3125 1.296875q-0.3125 0.5625 -0.828125 0.9375q-0.5 0.390625 -1.15625 0.59375q-0.65625 0.203125 -1.328125 0.203125l-3.359375 0zm13.980713 -9.125l0 2.109375l4.796875 0l0 15.8125l-4.796875 0l0 2.078125l11.796875 0l0 -2.078125l-4.59375 0l0 -17.921875l-7.203125 0zm14.949524 12.828125l0 0.28125q0 1.53125 0.4375 2.828125q0.4375 1.296875 1.28125 2.265625q0.8125 0.96875 2.0 1.515625q1.203125 0.546875 2.6875 0.546875q1.484375 0 2.671875 -0.546875q1.1875 -0.546875 2.015625 -1.515625q0.828125 -0.96875 1.265625 -2.265625q0.4375 -1.296875 0.4375 -2.828125l0 -0.28125q0 -1.515625 -0.4375 -2.828125q-0.4375 -1.3125 -1.265625 -2.28125q-0.828125 -0.953125 -2.03125 -1.5q-1.1875 -0.5625 -2.671875 -0.5625q-1.484375 0 -2.671875 0.5625q-1.1875 0.546875 -2.0 1.5q-0.84375 0.96875 -1.28125 2.28125q-0.4375 1.3125 -0.4375 2.828125zm2.40625 0.28125l0 -0.28125q0 -1.03125 0.234375 -1.96875q0.25 -0.953125 0.765625 -1.65625q0.5 -0.71875 1.234375 -1.140625q0.734375 -0.421875 1.75 -0.421875q1.0 0 1.75 0.421875q0.75 0.421875 1.25 1.140625q0.5 0.703125 0.75 1.65625q0.25 0.9375 0.25 1.96875l0 0.28125q0 1.046875 -0.25 2.0q-0.234375 0.9375 -0.734375 1.65625q-0.515625 0.703125 -1.265625 1.125q-0.734375 0.421875 -1.734375 0.421875q-1.0 0 -1.75 -0.421875q-0.75 -0.421875 -1.25 -1.125q-0.515625 -0.71875 -0.765625 -1.65625q-0.234375 -0.953125 -0.234375 -2.0zm20.261963 5.203125q-1.140625 0 -1.90625 -0.453125q-0.75 -0.453125 -1.203125 -1.171875q-0.46875 -0.71875 -0.671875 -1.625q-0.203125 -0.90625 -0.203125 -1.828125l0 -0.546875q0 -0.90625 0.203125 -1.796875q0.203125 -0.90625 0.671875 -1.640625q0.46875 -0.71875 1.21875 -1.15625q0.765625 -0.453125 1.890625 -0.453125q0.734375 0 1.359375 0.25q0.625 0.234375 1.09375 0.671875q0.453125 0.421875 0.71875 1.0q0.265625 0.5625 0.28125 1.203125l2.265625 0q0 -1.078125 -0.421875 -2.015625q-0.421875 -0.9375 -1.1875 -1.625q-0.765625 -0.671875 -1.8125 -1.0625q-1.046875 -0.40625 -2.296875 -0.40625q-1.59375 0 -2.796875 0.578125q-1.203125 0.5625 -2.0 1.53125q-0.796875 0.96875 -1.203125 2.25q-0.40625 1.28125 -0.40625 2.671875l0 0.546875q0 1.40625 0.40625 2.671875q0.40625 1.265625 1.203125 2.234375q0.796875 0.96875 2.0 1.546875q1.203125 0.578125 2.796875 0.578125q1.125 0 2.140625 -0.375q1.03125 -0.390625 1.828125 -1.046875q0.796875 -0.640625 1.265625 -1.484375q0.484375 -0.859375 0.484375 -1.796875l-2.265625 0q-0.015625 0.578125 -0.3125 1.09375q-0.296875 0.5 -0.765625 0.859375q-0.484375 0.375 -1.109375 0.59375q-0.609375 0.203125 -1.265625 0.203125zm14.215088 -4.890625l5.171875 6.578125l3.046875 0l-6.5625 -8.21875l5.6875 -5.859375l-2.921875 0l-4.625 4.625l-1.5625 1.703125l0 -12.25l-2.421875 0l0 20.0l2.421875 0l0 -4.875l1.765625 -1.703125z"
       fill-rule="nonzero"
       id="path19" />
    <path
       fill="#ffffff"
       d="m396.1086 186.91191l175.02365 0l0 177.73228l-175.02365 0z"
       fill-rule="evenodd"
       id="path20" />
    <path
       stroke="#000000"
       stroke-width="1.5354330708661417"
       stroke-linejoin="round"
       stroke-linecap="butt"
       d="m396.1086 186.91191l175.02365 0l0 177.73228l-175.02365 0z"
       fill-rule="evenodd"
       id="path21" />
    <path
       fill="#000000"
       d="m458.2233 245.00305l0 -2.171875q-0.015625 -1.015625 -0.1875 -2.046875q-0.15625 -1.046875 -0.5 -2.015625q-0.34375 -0.953125 -0.875 -1.796875q-0.515625 -0.84375 -1.25 -1.46875q-0.734375 -0.625 -1.6875 -0.984375q-0.9375 -0.359375 -2.109375 -0.359375q-1.171875 0 -2.125 0.359375q-0.9375 0.359375 -1.671875 0.984375q-0.71875 0.640625 -1.25 1.484375q-0.53125 0.84375 -0.875 1.796875q-0.34375 0.96875 -0.515625 2.0q-0.15625 1.03125 -0.171875 2.046875l0 2.171875q0.015625 1.015625 0.1875 2.046875q0.171875 1.015625 0.515625 1.984375q0.34375 0.953125 0.875 1.796875q0.53125 0.84375 1.265625 1.46875q0.734375 0.625 1.671875 0.984375q0.9375 0.359375 2.109375 0.359375q1.171875 0 2.109375 -0.359375q0.953125 -0.359375 1.6875 -0.984375q0.71875 -0.625 1.25 -1.453125q0.53125 -0.84375 0.859375 -1.796875q0.34375 -0.96875 0.5 -2.0q0.171875 -1.03125 0.1875 -2.046875zm-2.390625 -2.1875l0 2.1875q0 0.671875 -0.078125 1.421875q-0.078125 0.734375 -0.25 1.453125q-0.203125 0.71875 -0.515625 1.375q-0.296875 0.65625 -0.75 1.15625q-0.46875 0.515625 -1.125 0.8125q-0.640625 0.296875 -1.484375 0.296875q-0.84375 0 -1.484375 -0.296875q-0.625 -0.296875 -1.09375 -0.8125q-0.46875 -0.5 -0.78125 -1.15625q-0.3125 -0.671875 -0.515625 -1.390625q-0.1875 -0.71875 -0.28125 -1.453125q-0.078125 -0.75 -0.09375 -1.40625l0 -2.1875q0.015625 -0.671875 0.09375 -1.40625q0.09375 -0.734375 0.28125 -1.46875q0.1875 -0.703125 0.5 -1.359375q0.3125 -0.671875 0.78125 -1.171875q0.46875 -0.5 1.09375 -0.796875q0.640625 -0.296875 1.484375 -0.296875q0.84375 0 1.46875 0.296875q0.640625 0.28125 1.109375 0.78125q0.46875 0.515625 0.78125 1.171875q0.3125 0.65625 0.515625 1.375q0.1875 0.71875 0.265625 1.453125q0.078125 0.734375 0.078125 1.421875zm11.761993 -6.9375l-2.421875 0l0 3.421875l-3.703125 0l0 1.859375l3.703125 0l0 7.65625q0 1.296875 0.34375 2.21875q0.34375 0.90625 0.9375 1.484375q0.609375 0.59375 1.421875 0.859375q0.8125 0.265625 1.75 0.265625q0.5625 0 1.125 -0.0625q0.5625 -0.046875 1.078125 -0.15625q0.5 -0.078125 0.921875 -0.21875q0.4375 -0.140625 0.734375 -0.328125l-0.34375 -1.703125q-0.21875 0.0625 -0.5625 0.140625q-0.34375 0.0625 -0.734375 0.125q-0.40625 0.0625 -0.828125 0.109375q-0.40625 0.046875 -0.796875 0.046875q-0.53125 0 -1.015625 -0.125q-0.46875 -0.140625 -0.828125 -0.46875q-0.375 -0.3125 -0.578125 -0.84375q-0.203125 -0.53125 -0.203125 -1.34375l0 -7.65625l5.359375 0l0 -1.859375l-5.359375 0l0 -3.421875zm12.699463 5.515625l0 -8.015625l-2.40625 0l0 20.0l2.40625 0l0 -10.234375q0.265625 -0.40625 0.59375 -0.75q0.328125 -0.359375 0.71875 -0.609375q0.5 -0.34375 1.078125 -0.515625q0.59375 -0.1875 1.234375 -0.1875q0.796875 -0.015625 1.40625 0.21875q0.625 0.21875 1.015625 0.671875q0.390625 0.421875 0.578125 1.0625q0.203125 0.625 0.203125 1.453125l0 8.890625l2.40625 0l0 -8.859375q0 -1.421875 -0.34375 -2.453125q-0.34375 -1.046875 -0.984375 -1.71875q-0.640625 -0.671875 -1.546875 -0.984375q-0.90625 -0.328125 -2.015625 -0.328125q-0.84375 0.015625 -1.59375 0.25q-0.75 0.234375 -1.375 0.6875q-0.390625 0.265625 -0.75 0.625q-0.34375 0.359375 -0.625 0.796875zm19.808868 12.25q2.0625 0 3.453125 -0.828125q1.40625 -0.828125 2.109375 -1.890625l-1.46875 -1.15625q-0.671875 0.859375 -1.671875 1.390625q-1.0 0.515625 -2.296875 0.515625q-0.96875 0 -1.78125 -0.359375q-0.796875 -0.375 -1.375 -1.015625q-0.5625 -0.59375 -0.890625 -1.375q-0.3125 -0.78125 -0.390625 -1.8125l0 -0.09375l10.046875 0l0 -1.078125q0 -1.46875 -0.375 -2.71875q-0.359375 -1.265625 -1.109375 -2.203125q-0.765625 -0.9375 -1.90625 -1.453125q-1.125 -0.53125 -2.65625 -0.53125q-1.203125 0 -2.359375 0.5q-1.15625 0.484375 -2.046875 1.40625q-0.921875 0.9375 -1.46875 2.296875q-0.546875 1.34375 -0.546875 3.046875l0 0.546875q0 1.46875 0.5 2.71875q0.5 1.25 1.375 2.15625q0.890625 0.921875 2.125 1.4375q1.25 0.5 2.734375 0.5zm-0.3125 -12.625q0.921875 0 1.59375 0.34375q0.671875 0.328125 1.109375 0.875q0.453125 0.546875 0.6875 1.296875q0.25 0.75 0.25 1.390625l0 0.125l-7.5625 0q0.140625 -0.984375 0.5 -1.71875q0.359375 -0.75 0.875 -1.28125q0.515625 -0.5 1.15625 -0.765625q0.65625 -0.265625 1.390625 -0.265625zm19.324493 -1.984375q-1.546875 0 -2.75 0.671875q-1.203125 0.671875 -2.0625 1.828125l-0.015625 -0.359375l-0.09375 -1.875l-2.2969055 0l0 14.078125l2.4219055 0l0 -9.03125q0.234375 -0.65625 0.59375 -1.171875q0.359375 -0.53125 0.84375 -0.90625q0.53125 -0.40625 1.234375 -0.625q0.71875 -0.21875 1.609375 -0.21875q0.6875 0 1.3125 0.078125q0.640625 0.0625 1.34375 0.21875l0.328125 -2.34375q-0.375 -0.15625 -1.09375 -0.25q-0.71875 -0.09375 -1.375 -0.09375z"
       fill-rule="nonzero"
       id="path22" />
    <path
       fill="#000000"
       d="m424.32434 276.61243l0 -2.03125l-7.90625 0l0 -6.09375l9.109375 0l0 -2.0625l-11.515625 0l0 18.953125l11.625 0l0 -2.046875l-9.21875 0l0 -6.71875l7.90625 0zm11.386993 -0.09375l-3.71875 -5.21875l-2.78125 0l5.234375 6.953125l-5.375 7.125l2.8125 0l3.890625 -5.359375l3.890625 5.359375l2.78125 0l-5.390625 -7.125l5.25 -6.953125l-2.828125 0l-3.765625 5.21875zm15.886963 -8.640625l-2.421875 0l0 3.421875l-3.703125 0l0 1.859375l3.703125 0l0 7.65625q0 1.296875 0.34375 2.21875q0.34375 0.90625 0.9375 1.484375q0.609375 0.59375 1.421875 0.859375q0.8125 0.265625 1.75 0.265625q0.5625 0 1.125 -0.0625q0.5625 -0.046875 1.078125 -0.15625q0.5 -0.078125 0.921875 -0.21875q0.4375 -0.140625 0.734375 -0.328125l-0.34375 -1.703125q-0.21875 0.0625 -0.5625 0.140625q-0.34375 0.0625 -0.734375 0.125q-0.40625 0.0625 -0.828125 0.109375q-0.40625 0.046875 -0.796875 0.046875q-0.53125 0 -1.015625 -0.125q-0.46875 -0.140625 -0.828125 -0.46875q-0.375 -0.3125 -0.578125 -0.84375q-0.203125 -0.53125 -0.203125 -1.34375l0 -7.65625l5.359375 0l0 -1.859375l-5.359375 0l0 -3.421875zm16.511993 17.765625q2.0625 0 3.453125 -0.828125q1.40625 -0.828125 2.109375 -1.890625l-1.46875 -1.15625q-0.671875 0.859375 -1.671875 1.390625q-1.0 0.515625 -2.296875 0.515625q-0.96875 0 -1.78125 -0.359375q-0.796875 -0.375 -1.375 -1.015625q-0.5625 -0.59375 -0.890625 -1.375q-0.3125 -0.78125 -0.390625 -1.8125l0 -0.09375l10.046875 0l0 -1.078125q0 -1.46875 -0.375 -2.71875q-0.359375 -1.265625 -1.109375 -2.203125q-0.765625 -0.9375 -1.90625 -1.453125q-1.125 -0.53125 -2.65625 -0.53125q-1.203125 0 -2.359375 0.5q-1.15625 0.484375 -2.046875 1.40625q-0.921875 0.9375 -1.46875 2.296875q-0.546875 1.34375 -0.546875 3.046875l0 0.546875q0 1.46875 0.5 2.71875q0.5 1.25 1.375 2.15625q0.890625 0.921875 2.125 1.4375q1.25 0.5 2.734375 0.5zm-0.3125 -12.625q0.921875 0 1.59375 0.34375q0.671875 0.328125 1.109375 0.875q0.453125 0.546875 0.6875 1.296875q0.25 0.75 0.25 1.390625l0 0.125l-7.5625 0q0.140625 -0.984375 0.5 -1.71875q0.359375 -0.75 0.875 -1.28125q0.515625 -0.5 1.15625 -0.765625q0.65625 -0.265625 1.390625 -0.265625zm10.090088 12.359375l2.40625 0l0 -10.09375q0.25 -0.46875 0.578125 -0.84375q0.328125 -0.375 0.71875 -0.65625q0.484375 -0.328125 1.046875 -0.515625q0.578125 -0.1875 1.25 -0.1875q0.765625 0 1.359375 0.1875q0.59375 0.171875 1.015625 0.578125q0.390625 0.40625 0.59375 1.0625q0.21875 0.640625 0.21875 1.578125l0 8.890625l2.40625 0l0 -8.9375q0 -1.40625 -0.34375 -2.421875q-0.34375 -1.03125 -0.984375 -1.703125q-0.640625 -0.65625 -1.546875 -0.96875q-0.890625 -0.3125 -2.0 -0.3125q-0.828125 0.015625 -1.5625 0.25q-0.734375 0.21875 -1.359375 0.640625q-0.40625 0.265625 -0.78125 0.640625q-0.375 0.375 -0.6875 0.8125l-0.171875 -2.078125l-2.15625 0l0 14.078125zm25.355743 -3.734375q0 0.34375 -0.140625 0.640625q-0.125 0.296875 -0.375 0.546875q-0.390625 0.40625 -1.109375 0.640625q-0.71875 0.21875 -1.6875 0.21875q-0.609375 0 -1.234375 -0.125q-0.625 -0.140625 -1.125 -0.453125q-0.53125 -0.3125 -0.875 -0.8125q-0.34375 -0.515625 -0.390625 -1.25l-2.40625 0q0 0.890625 0.40625 1.734375q0.40625 0.828125 1.1875 1.453125q0.765625 0.640625 1.890625 1.03125q1.125 0.375 2.546875 0.375q1.25 0 2.296875 -0.296875q1.0625 -0.3125 1.828125 -0.859375q0.75 -0.546875 1.171875 -1.3125q0.421875 -0.765625 0.421875 -1.703125q0 -0.875 -0.375 -1.53125q-0.359375 -0.671875 -1.0625 -1.171875q-0.703125 -0.5 -1.734375 -0.859375q-1.03125 -0.359375 -2.328125 -0.625q-1.0 -0.203125 -1.640625 -0.40625q-0.640625 -0.203125 -1.015625 -0.46875q-0.390625 -0.265625 -0.546875 -0.578125q-0.15625 -0.328125 -0.15625 -0.75q0 -0.40625 0.1875 -0.78125q0.203125 -0.375 0.59375 -0.65625q0.375 -0.296875 0.953125 -0.453125q0.578125 -0.171875 1.34375 -0.171875q0.75 0 1.328125 0.203125q0.59375 0.203125 1.015625 0.546875q0.421875 0.34375 0.65625 0.78125q0.234375 0.421875 0.234375 0.890625l2.40625 0q0 -0.9375 -0.40625 -1.734375q-0.390625 -0.796875 -1.125 -1.390625q-0.71875 -0.609375 -1.765625 -0.9375q-1.046875 -0.34375 -2.34375 -0.34375q-1.203125 0 -2.21875 0.328125q-1.0 0.328125 -1.734375 0.875q-0.734375 0.5625 -1.140625 1.3125q-0.390625 0.75 -0.390625 1.609375q0 0.875 0.390625 1.53125q0.390625 0.65625 1.09375 1.140625q0.703125 0.5 1.703125 0.84375q1.0 0.34375 2.203125 0.59375q1.0 0.203125 1.65625 0.453125q0.671875 0.234375 1.0625 0.515625q0.40625 0.28125 0.578125 0.625q0.171875 0.34375 0.171875 0.78125zm7.011963 -10.34375l0 2.09375l4.7969055 0l0 9.90625l-4.7969055 0l0 2.078125l11.7969055 0l0 -2.078125l-4.59375 0l0 -12.0l-7.2031555 0zm4.4844055 -3.703125q0 0.59375 0.34375 0.984375q0.359375 0.390625 1.09375 0.390625q0.71875 0 1.078125 -0.390625q0.375 -0.390625 0.375 -0.984375q0 -0.328125 -0.109375 -0.59375q-0.109375 -0.28125 -0.3125 -0.453125q-0.171875 -0.171875 -0.4375 -0.265625q-0.25 -0.109375 -0.59375 -0.109375q-0.34375 0 -0.609375 0.109375q-0.265625 0.09375 -0.4375 0.265625q-0.203125 0.1875 -0.296875 0.46875q-0.09375 0.265625 -0.09375 0.578125zm10.465088 10.609375l0 0.28125q0 1.53125 0.4375 2.828125q0.4375 1.296875 1.28125 2.265625q0.8125 0.96875 2.0 1.515625q1.203125 0.546875 2.6875 0.546875q1.484375 0 2.671875 -0.546875q1.1875 -0.546875 2.015625 -1.515625q0.828125 -0.96875 1.265625 -2.265625q0.4375 -1.296875 0.4375 -2.828125l0 -0.28125q0 -1.515625 -0.4375 -2.828125q-0.4375 -1.3125 -1.265625 -2.28125q-0.828125 -0.953125 -2.03125 -1.5q-1.1875 -0.5625 -2.671875 -0.5625q-1.484375 0 -2.671875 0.5625q-1.1875 0.546875 -2.0 1.5q-0.84375 0.96875 -1.28125 2.28125q-0.4375 1.3125 -0.4375 2.828125zm2.40625 0.28125l0 -0.28125q0 -1.03125 0.234375 -1.96875q0.25 -0.953125 0.765625 -1.65625q0.5 -0.71875 1.234375 -1.140625q0.734375 -0.421875 1.75 -0.421875q1.0 0 1.75 0.421875q0.75 0.421875 1.25 1.140625q0.5 0.703125 0.75 1.65625q0.25 0.9375 0.25 1.96875l0 0.28125q0 1.046875 -0.25 2.0q-0.234375 0.9375 -0.734375 1.65625q-0.515625 0.703125 -1.265625 1.125q-0.734375 0.421875 -1.734375 0.421875q-1.0 0 -1.75 -0.421875q-0.75 -0.421875 -1.25 -1.125q-0.515625 -0.71875 -0.765625 -1.65625q-0.234375 -0.953125 -0.234375 -2.0zm14.261963 6.890625l2.40625 0l0 -10.09375q0.25 -0.46875 0.578125 -0.84375q0.328125 -0.375 0.71875 -0.65625q0.484375 -0.328125 1.046875 -0.515625q0.578125 -0.1875 1.25 -0.1875q0.765625 0 1.359375 0.1875q0.59375 0.171875 1.015625 0.578125q0.390625 0.40625 0.59375 1.0625q0.21875 0.640625 0.21875 1.578125l0 8.890625l2.40625 0l0 -8.9375q0 -1.40625 -0.34375 -2.421875q-0.34375 -1.03125 -0.984375 -1.703125q-0.640625 -0.65625 -1.546875 -0.96875q-0.890625 -0.3125 -2.0 -0.3125q-0.828125 0.015625 -1.5625 0.25q-0.734375 0.21875 -1.359375 0.640625q-0.40625 0.265625 -0.78125 0.640625q-0.375 0.375 -0.6875 0.8125l-0.171875 -2.078125l-2.15625 0l0 14.078125z"
       fill-rule="nonzero"
       id="path23" />
    <path
       fill="#000000"
       d="m437.86575 317.37805l6.0625 0q1.21875 -0.015625 2.359375 -0.375q1.140625 -0.359375 2.015625 -1.0625q0.859375 -0.671875 1.375 -1.6875q0.53125 -1.015625 0.515625 -2.34375q0 -0.84375 -0.25 -1.5625q-0.25 -0.734375 -0.71875 -1.328125q-0.421875 -0.53125 -1.09375 -0.96875q-0.65625 -0.453125 -1.375 -0.609375l0 -0.046875q0.6875 -0.296875 1.171875 -0.625q0.5 -0.34375 0.90625 -0.84375q0.390625 -0.484375 0.609375 -1.09375q0.234375 -0.609375 0.25 -1.359375q0 -1.328125 -0.515625 -2.265625q-0.515625 -0.953125 -1.390625 -1.5625q-0.875 -0.625 -2.0 -0.90625q-1.109375 -0.296875 -2.28125 -0.3125l-5.640625 0l0 18.953125zm2.421875 -8.859375l3.84375 0q0.765625 0.015625 1.421875 0.25q0.671875 0.234375 1.171875 0.671875q0.484375 0.4375 0.765625 1.0625q0.28125 0.625 0.265625 1.4375q0 0.796875 -0.3125 1.421875q-0.296875 0.625 -0.8125 1.046875q-0.515625 0.4375 -1.203125 0.671875q-0.671875 0.234375 -1.421875 0.25l-3.71875 0l0 -6.8125zm0 -2.015625l0 -6.015625l3.296875 0q0.703125 0.015625 1.375 0.1875q0.671875 0.15625 1.1875 0.515625q0.515625 0.359375 0.8125 0.921875q0.3125 0.5625 0.3125 1.359375q0 0.734375 -0.3125 1.296875q-0.3125 0.5625 -0.828125 0.9375q-0.5 0.390625 -1.15625 0.59375q-0.65625 0.203125 -1.328125 0.203125l-3.359375 0zm13.980713 -9.125l0 2.109375l4.796875 0l0 15.8125l-4.796875 0l0 2.078125l11.796875 0l0 -2.078125l-4.59375 0l0 -17.921875l-7.203125 0zm14.949493 12.828125l0 0.28125q0 1.53125 0.4375 2.828125q0.4375 1.296875 1.28125 2.265625q0.8125 0.96875 2.0 1.515625q1.203125 0.546875 2.6875 0.546875q1.484375 0 2.671875 -0.546875q1.1875 -0.546875 2.015625 -1.515625q0.828125 -0.96875 1.265625 -2.265625q0.4375 -1.296875 0.4375 -2.828125l0 -0.28125q0 -1.515625 -0.4375 -2.828125q-0.4375 -1.3125 -1.265625 -2.28125q-0.828125 -0.953125 -2.03125 -1.5q-1.1875 -0.5625 -2.671875 -0.5625q-1.484375 0 -2.671875 0.5625q-1.1875 0.546875 -2.0 1.5q-0.84375 0.96875 -1.28125 2.28125q-0.4375 1.3125 -0.4375 2.828125zm2.40625 0.28125l0 -0.28125q0 -1.03125 0.234375 -1.96875q0.25 -0.953125 0.765625 -1.65625q0.5 -0.71875 1.234375 -1.140625q0.734375 -0.421875 1.75 -0.421875q1.0 0 1.75 0.421875q0.75 0.421875 1.25 1.140625q0.5 0.703125 0.75 1.65625q0.25 0.9375 0.25 1.96875l0 0.28125q0 1.046875 -0.25 2.0q-0.234375 0.9375 -0.734375 1.65625q-0.515625 0.703125 -1.265625 1.125q-0.734375 0.421875 -1.734375 0.421875q-1.0 0 -1.75 -0.421875q-0.75 -0.421875 -1.25 -1.125q-0.515625 -0.71875 -0.765625 -1.65625q-0.234375 -0.953125 -0.234375 -2.0zm20.261963 5.203125q-1.140625 0 -1.90625 -0.453125q-0.75 -0.453125 -1.203125 -1.171875q-0.46875 -0.71875 -0.671875 -1.625q-0.203125 -0.90625 -0.203125 -1.828125l0 -0.546875q0 -0.90625 0.203125 -1.796875q0.203125 -0.90625 0.671875 -1.640625q0.46875 -0.71875 1.21875 -1.15625q0.765625 -0.453125 1.890625 -0.453125q0.734375 0 1.359375 0.25q0.625 0.234375 1.09375 0.671875q0.453125 0.421875 0.71875 1.0q0.265625 0.5625 0.28125 1.203125l2.265625 0q0 -1.078125 -0.421875 -2.015625q-0.421875 -0.9375 -1.1875 -1.625q-0.765625 -0.671875 -1.8125 -1.0625q-1.046875 -0.40625 -2.296875 -0.40625q-1.59375 0 -2.796875 0.578125q-1.203125 0.5625 -2.0 1.53125q-0.796875 0.96875 -1.203125 2.25q-0.40625 1.28125 -0.40625 2.671875l0 0.546875q0 1.40625 0.40625 2.671875q0.40625 1.265625 1.203125 2.234375q0.796875 0.96875 2.0 1.546875q1.203125 0.578125 2.796875 0.578125q1.125 0 2.140625 -0.375q1.03125 -0.390625 1.828125 -1.046875q0.796875 -0.640625 1.265625 -1.484375q0.484375 -0.859375 0.484375 -1.796875l-2.265625 0q-0.015625 0.578125 -0.3125 1.09375q-0.296875 0.5 -0.765625 0.859375q-0.484375 0.375 -1.109375 0.59375q-0.609375 0.203125 -1.265625 0.203125zm14.215118 -4.890625l5.171875 6.578125l3.0468445 0l-6.5624695 -8.21875l5.6874695 -5.859375l-2.9218445 0l-4.625 4.625l-1.5625 1.703125l0 -12.25l-2.421875 0l0 20.0l2.421875 0l0 -4.875l1.765625 -1.703125zm21.136993 2.84375q0 0.34375 -0.140625 0.640625q-0.125 0.296875 -0.375 0.546875q-0.390625 0.40625 -1.109375 0.640625q-0.71875 0.21875 -1.6875 0.21875q-0.609375 0 -1.234375 -0.125q-0.625 -0.140625 -1.125 -0.453125q-0.53125 -0.3125 -0.875 -0.8125q-0.34375 -0.515625 -0.390625 -1.25l-2.40625 0q0 0.890625 0.40625 1.734375q0.40625 0.828125 1.1875 1.453125q0.765625 0.640625 1.890625 1.03125q1.125 0.375 2.546875 0.375q1.25 0 2.296875 -0.296875q1.0625 -0.3125 1.828125 -0.859375q0.75 -0.546875 1.171875 -1.3125q0.421875 -0.765625 0.421875 -1.703125q0 -0.875 -0.375 -1.53125q-0.359375 -0.671875 -1.0625 -1.171875q-0.703125 -0.5 -1.734375 -0.859375q-1.03125 -0.359375 -2.328125 -0.625q-1.0 -0.203125 -1.640625 -0.40625q-0.640625 -0.203125 -1.015625 -0.46875q-0.390625 -0.265625 -0.546875 -0.578125q-0.15625 -0.328125 -0.15625 -0.75q0 -0.40625 0.1875 -0.78125q0.203125 -0.375 0.59375 -0.65625q0.375 -0.296875 0.953125 -0.453125q0.578125 -0.171875 1.34375 -0.171875q0.75 0 1.328125 0.203125q0.59375 0.203125 1.015625 0.546875q0.421875 0.34375 0.65625 0.78125q0.234375 0.421875 0.234375 0.890625l2.40625 0q0 -0.9375 -0.40625 -1.734375q-0.390625 -0.796875 -1.125 -1.390625q-0.71875 -0.609375 -1.765625 -0.9375q-1.046875 -0.34375 -2.34375 -0.34375q-1.203125 0 -2.21875 0.328125q-1.0 0.328125 -1.734375 0.875q-0.734375 0.5625 -1.140625 1.3125q-0.390625 0.75 -0.390625 1.609375q0 0.875 0.390625 1.53125q0.390625 0.65625 1.09375 1.140625q0.703125 0.5 1.703125 0.84375q1.0 0.34375 2.203125 0.59375q1.0 0.203125 1.65625 0.453125q0.671875 0.234375 1.0625 0.515625q0.40625 0.28125 0.578125 0.625q0.171875 0.34375 0.171875 0.78125z"
       fill-rule="nonzero"
       id="path24" />
    <path
       fill="#ffffff"
       d="m585.20013 186.9129l175.02362 0l0 177.73227l-175.02362 0z"
       fill-rule="evenodd"
       id="path25" />
    <path
       stroke="#000000"
       stroke-width="3.073490813648294"
       stroke-linejoin="round"
       stroke-linecap="butt"
       stroke-dasharray="12.293963254593177,9.220472440944881,3.073490813648294,9.220472440944881"
       d="m585.20013 186.9129l175.02362 0l0 177.73227l-175.02362 0z"
       fill-rule="evenodd"
       id="path26" />
    <path
       fill="#666666"
       d="m626.9573 253.37904l6.0625 0q1.21875 -0.015625 2.359375 -0.375q1.140625 -0.359375 2.015625 -1.0625q0.859375 -0.671875 1.375 -1.6875q0.53125 -1.015625 0.515625 -2.34375q0 -0.84375 -0.25 -1.5625q-0.25 -0.734375 -0.71875 -1.328125q-0.421875 -0.53125 -1.09375 -0.96875q-0.65625 -0.453125 -1.375 -0.609375l0 -0.046875q0.6875 -0.296875 1.171875 -0.625q0.5 -0.34375 0.90625 -0.84375q0.390625 -0.484375 0.609375 -1.09375q0.234375 -0.609375 0.25 -1.359375q0 -1.328125 -0.515625 -2.265625q-0.515625 -0.953125 -1.390625 -1.5625q-0.875 -0.625 -2.0 -0.90625q-1.109375 -0.296875 -2.28125 -0.3125l-5.640625 0l0 18.953125zm2.421875 -8.859375l3.84375 0q0.765625 0.015625 1.421875 0.25q0.671875 0.234375 1.171875 0.671875q0.484375 0.4375 0.765625 1.0625q0.28125 0.625 0.265625 1.4375q0 0.796875 -0.3125 1.421875q-0.296875 0.625 -0.8125 1.046875q-0.515625 0.4375 -1.203125 0.671875q-0.671875 0.234375 -1.421875 0.25l-3.71875 0l0 -6.8125zm0 -2.015625l0 -6.015625l3.296875 0q0.703125 0.015625 1.375 0.1875q0.671875 0.15625 1.1875 0.515625q0.515625 0.359375 0.8125 0.921875q0.3125 0.5625 0.3125 1.359375q0 0.734375 -0.3125 1.296875q-0.3125 0.5625 -0.828125 0.9375q-0.5 0.390625 -1.15625 0.59375q-0.65625 0.203125 -1.328125 0.203125l-3.359375 0zm22.886963 10.875l2.1875 0l0 -14.078125l-2.421875 0l0 10.09375q-0.203125 0.453125 -0.5 0.84375q-0.28125 0.375 -0.671875 0.65625q-0.46875 0.34375 -1.109375 0.53125q-0.640625 0.1875 -1.4375 0.1875q-0.703125 0 -1.234375 -0.1875q-0.515625 -0.1875 -0.875 -0.640625q-0.375 -0.4375 -0.5625 -1.1875q-0.171875 -0.765625 -0.171875 -1.90625l0 -8.390625l-2.40625 0l0 8.359375q0 1.578125 0.34375 2.703125q0.34375 1.125 0.984375 1.859375q0.640625 0.734375 1.53125 1.078125q0.90625 0.34375 2.0 0.34375q1.390625 0 2.4375 -0.578125q1.0625 -0.578125 1.765625 -1.625l0.140625 1.9375zm6.715149 0l2.40625 0l0 -10.09375q0.25 -0.46875 0.578125 -0.84375q0.328125 -0.375 0.71875 -0.65625q0.484375 -0.328125 1.046875 -0.515625q0.578125 -0.1875 1.25 -0.1875q0.765625 0 1.359375 0.1875q0.59375 0.171875 1.015625 0.578125q0.390625 0.40625 0.59375 1.0625q0.21875 0.640625 0.21875 1.578125l0 8.890625l2.40625 0l0 -8.9375q0 -1.40625 -0.34375 -2.421875q-0.34375 -1.03125 -0.984375 -1.703125q-0.640625 -0.65625 -1.546875 -0.96875q-0.890625 -0.3125 -2.0 -0.3125q-0.828125 0.015625 -1.5625 0.25q-0.734375 0.21875 -1.359375 0.640625q-0.40625 0.265625 -0.78125 0.640625q-0.375 0.375 -0.6875 0.8125l-0.171875 -2.078125l-2.15625 0l0 14.078125zm15.543213 -7.15625l0 0.265625q0 1.515625 0.390625 2.828125q0.40625 1.296875 1.140625 2.265625q0.734375 0.96875 1.765625 1.515625q1.03125 0.546875 2.3125 0.546875q1.296875 0 2.265625 -0.4375q0.984375 -0.453125 1.6875 -1.3125l0.109375 1.484375l2.203125 0l0 -20.0l-2.40625 0l0 7.3125q-0.6875 -0.8125 -1.640625 -1.234375q-0.9375 -0.421875 -2.203125 -0.421875q-1.28125 0 -2.328125 0.53125q-1.03125 0.53125 -1.765625 1.484375q-0.734375 0.953125 -1.140625 2.28125q-0.390625 1.3125 -0.390625 2.890625zm2.40625 0.265625l0 -0.265625q0 -1.03125 0.21875 -1.953125q0.21875 -0.9375 0.6875 -1.65625q0.453125 -0.703125 1.171875 -1.109375q0.734375 -0.421875 1.75 -0.421875q1.1875 0 1.96875 0.5625q0.796875 0.546875 1.265625 1.40625l0 6.53125q-0.46875 0.921875 -1.265625 1.46875q-0.78125 0.546875 -2.0 0.546875q-1.0 0 -1.71875 -0.40625q-0.71875 -0.421875 -1.171875 -1.125q-0.46875 -0.703125 -0.6875 -1.625q-0.21875 -0.921875 -0.21875 -1.953125zm14.418213 -13.109375l0 2.109375l4.796875 0l0 15.8125l-4.796875 0l0 2.078125l11.796875 0l0 -2.078125l-4.59375 0l0 -17.921875l-7.203125 0zm21.840088 20.265625q2.0625 0 3.453125 -0.828125q1.40625 -0.828125 2.109375 -1.890625l-1.46875 -1.15625q-0.671875 0.859375 -1.671875 1.390625q-1.0 0.515625 -2.296875 0.515625q-0.96875 0 -1.78125 -0.359375q-0.796875 -0.375 -1.375 -1.015625q-0.5625 -0.59375 -0.890625 -1.375q-0.3125 -0.78125 -0.390625 -1.8125l0 -0.09375l10.046875 0l0 -1.078125q0 -1.46875 -0.375 -2.71875q-0.359375 -1.265625 -1.109375 -2.203125q-0.765625 -0.9375 -1.90625 -1.453125q-1.125 -0.53125 -2.65625 -0.53125q-1.203125 0 -2.359375 0.5q-1.15625 0.484375 -2.046875 1.40625q-0.921875 0.9375 -1.46875 2.296875q-0.546875 1.34375 -0.546875 3.046875l0 0.546875q0 1.46875 0.5 2.71875q0.5 1.25 1.375 2.15625q0.890625 0.921875 2.125 1.4375q1.25 0.5 2.734375 0.5zm-0.3125 -12.625q0.921875 0 1.59375 0.34375q0.671875 0.328125 1.109375 0.875q0.453125 0.546875 0.6875 1.296875q0.25 0.75 0.25 1.390625l0 0.125l-7.5625 0q0.140625 -0.984375 0.5 -1.71875q0.359375 -0.75 0.875 -1.28125q0.515625 -0.5 1.15625 -0.765625q0.65625 -0.265625 1.390625 -0.265625z"
       fill-rule="nonzero"
       id="path27" />
    <path
       fill="#666666"
       d="m602.994 266.4259l0 2.09375l4.4375 0l0 14.78125l-4.4375 0l0 2.078125l11.453125 0l0 -2.078125l-4.546875 0l0 -14.78125l4.546875 0l0 -2.09375l-11.453125 0zm15.996338 18.953125l2.40625 0l0 -10.09375q0.25 -0.46875 0.578125 -0.84375q0.328125 -0.375 0.71875 -0.65625q0.484375 -0.328125 1.046875 -0.515625q0.578125 -0.1875 1.25 -0.1875q0.765625 0 1.359375 0.1875q0.59375 0.171875 1.015625 0.578125q0.390625 0.40625 0.59375 1.0625q0.21875 0.640625 0.21875 1.578125l0 8.890625l2.40625 0l0 -8.9375q0 -1.40625 -0.34375 -2.421875q-0.34375 -1.03125 -0.984375 -1.703125q-0.640625 -0.65625 -1.546875 -0.96875q-0.890625 -0.3125 -2.0 -0.3125q-0.828125 0.015625 -1.5625 0.25q-0.734375 0.21875 -1.359375 0.640625q-0.40625 0.265625 -0.78125 0.640625q-0.375 0.375 -0.6875 0.8125l-0.171875 -2.078125l-2.15625 0l0 14.078125zm21.699463 -17.5l-2.421875 0l0 3.421875l-3.703125 0l0 1.859375l3.703125 0l0 7.65625q0 1.296875 0.34375 2.21875q0.34375 0.90625 0.9375 1.484375q0.609375 0.59375 1.421875 0.859375q0.8125 0.265625 1.75 0.265625q0.5625 0 1.125 -0.0625q0.5625 -0.046875 1.078125 -0.15625q0.5 -0.078125 0.921875 -0.21875q0.4375 -0.140625 0.734375 -0.328125l-0.34375 -1.703125q-0.21875 0.0625 -0.5625 0.140625q-0.34375 0.0625 -0.734375 0.125q-0.40625 0.0625 -0.828125 0.109375q-0.40625 0.046875 -0.796875 0.046875q-0.53125 0 -1.015625 -0.125q-0.46875 -0.140625 -0.828125 -0.46875q-0.375 -0.3125 -0.578125 -0.84375q-0.203125 -0.53125 -0.203125 -1.34375l0 -7.65625l5.359375 0l0 -1.859375l-5.359375 0l0 -3.421875zm16.512024 17.765625q2.0625 0 3.453125 -0.828125q1.40625 -0.828125 2.109375 -1.890625l-1.46875 -1.15625q-0.671875 0.859375 -1.671875 1.390625q-1.0 0.515625 -2.296875 0.515625q-0.96875 0 -1.78125 -0.359375q-0.796875 -0.375 -1.375 -1.015625q-0.5625 -0.59375 -0.890625 -1.375q-0.3125 -0.78125 -0.390625 -1.8125l0 -0.09375l10.046875 0l0 -1.078125q0 -1.46875 -0.375 -2.71875q-0.359375 -1.265625 -1.109375 -2.203125q-0.765625 -0.9375 -1.90625 -1.453125q-1.125 -0.53125 -2.65625 -0.53125q-1.203125 0 -2.359375 0.5q-1.15625 0.484375 -2.046875 1.40625q-0.921875 0.9375 -1.46875 2.296875q-0.546875 1.34375 -0.546875 3.046875l0 0.546875q0 1.46875 0.5 2.71875q0.5 1.25 1.375 2.15625q0.890625 0.921875 2.125 1.4375q1.25 0.5 2.734375 0.5zm-0.3125 -12.625q0.921875 0 1.59375 0.34375q0.671875 0.328125 1.109375 0.875q0.453125 0.546875 0.6875 1.296875q0.25 0.75 0.25 1.390625l0 0.125l-7.5625 0q0.140625 -0.984375 0.5 -1.71875q0.359375 -0.75 0.875 -1.28125q0.515625 -0.5 1.15625 -0.765625q0.65625 -0.265625 1.390625 -0.265625zm9.652588 5.203125l0 0.265625q0 1.515625 0.390625 2.828125q0.390625 1.296875 1.109375 2.265625q0.71875 0.96875 1.75 1.515625q1.046875 0.546875 2.34375 0.546875q0.765625 0 1.421875 -0.171875q0.671875 -0.15625 1.21875 -0.453125q0.34375 -0.203125 0.65625 -0.453125q0.3125 -0.265625 0.578125 -0.578125l0 1.203125q0 0.921875 -0.265625 1.625q-0.25 0.703125 -0.734375 1.171875q-0.5 0.46875 -1.1875 0.71875q-0.6875 0.25 -1.546875 0.25q-0.484375 0 -0.96875 -0.09375q-0.46875 -0.09375 -0.953125 -0.328125q-0.484375 -0.21875 -0.953125 -0.59375q-0.46875 -0.359375 -0.90625 -0.890625l-1.25 1.4375q0.46875 0.6875 1.140625 1.15625q0.671875 0.46875 1.40625 0.75q0.71875 0.28125 1.421875 0.40625q0.703125 0.125 1.25 0.125q1.328125 0 2.421875 -0.390625q1.09375 -0.390625 1.875 -1.140625q0.78125 -0.765625 1.21875 -1.84375q0.4375 -1.078125 0.4375 -2.46875l0 -13.78125l-2.1875 0l-0.109375 1.53125q-0.25 -0.3125 -0.53125 -0.5625q-0.28125 -0.265625 -0.59375 -0.46875q-0.578125 -0.375 -1.28125 -0.5625q-0.703125 -0.203125 -1.5625 -0.203125q-1.3125 0 -2.359375 0.53125q-1.03125 0.53125 -1.765625 1.484375q-0.71875 0.953125 -1.109375 2.28125q-0.375 1.3125 -0.375 2.890625zm2.40625 0.265625l0 -0.265625q0 -1.03125 0.203125 -1.953125q0.21875 -0.9375 0.6875 -1.65625q0.453125 -0.703125 1.171875 -1.109375q0.734375 -0.421875 1.75 -0.421875q0.59375 0 1.078125 0.15625q0.5 0.140625 0.90625 0.40625q0.40625 0.265625 0.71875 0.640625q0.3125 0.359375 0.546875 0.796875l0 6.453125q-0.234375 0.453125 -0.546875 0.84375q-0.3125 0.375 -0.703125 0.640625q-0.40625 0.28125 -0.90625 0.4375q-0.5 0.140625 -1.125 0.140625q-1.0 0 -1.71875 -0.40625q-0.71875 -0.421875 -1.171875 -1.125q-0.46875 -0.703125 -0.6875 -1.625q-0.203125 -0.921875 -0.203125 -1.953125zm23.261963 -7.453125q-1.546875 0 -2.75 0.671875q-1.203125 0.671875 -2.0625 1.828125l-0.015625 -0.359375l-0.09375 -1.875l-2.296875 0l0 14.078125l2.421875 0l0 -9.03125q0.234375 -0.65625 0.59375 -1.171875q0.359375 -0.53125 0.84375 -0.90625q0.53125 -0.40625 1.234375 -0.625q0.71875 -0.21875 1.609375 -0.21875q0.6875 0 1.3125 0.078125q0.640625 0.0625 1.34375 0.21875l0.328125 -2.34375q-0.375 -0.15625 -1.09375 -0.25q-0.71875 -0.09375 -1.375 -0.09375zm7.136963 0.265625l0 2.09375l4.796875 0l0 9.90625l-4.796875 0l0 2.078125l11.796875 0l0 -2.078125l-4.59375 0l0 -12.0l-7.203125 0zm4.484375 -3.703125q0 0.59375 0.34375 0.984375q0.359375 0.390625 1.09375 0.390625q0.71875 0 1.078125 -0.390625q0.375 -0.390625 0.375 -0.984375q0 -0.328125 -0.109375 -0.59375q-0.109375 -0.28125 -0.3125 -0.453125q-0.171875 -0.171875 -0.4375 -0.265625q-0.25 -0.109375 -0.59375 -0.109375q-0.34375 0 -0.609375 0.109375q-0.265625 0.09375 -0.4375 0.265625q-0.203125 0.1875 -0.296875 0.46875q-0.09375 0.265625 -0.09375 0.578125zm16.840088 0.28125l-2.421875 0l0 3.421875l-3.703125 0l0 1.859375l3.703125 0l0 7.65625q0 1.296875 0.34375 2.21875q0.34375 0.90625 0.9375 1.484375q0.609375 0.59375 1.421875 0.859375q0.8125 0.265625 1.75 0.265625q0.5625 0 1.125 -0.0625q0.5625 -0.046875 1.078125 -0.15625q0.5 -0.078125 0.921875 -0.21875q0.4375 -0.140625 0.734375 -0.328125l-0.34375 -1.703125q-0.21875 0.0625 -0.5625 0.140625q-0.34375 0.0625 -0.734375 0.125q-0.40625 0.0625 -0.828125 0.109375q-0.40625 0.046875 -0.796875 0.046875q-0.53125 0 -1.015625 -0.125q-0.46875 -0.140625 -0.828125 -0.46875q-0.375 -0.3125 -0.578125 -0.84375q-0.203125 -0.53125 -0.203125 -1.34375l0 -7.65625l5.359375 0l0 -1.859375l-5.359375 0l0 -3.421875zm11.418274 23.1875q0.953125 0 1.6875 -0.359375q0.734375 -0.34375 1.28125 -0.859375q0.53125 -0.53125 0.921875 -1.140625q0.390625 -0.609375 0.625 -1.15625l7.15625 -16.25l-2.703125 0l-3.625 9.125l-0.671875 1.65625l-0.625 -1.703125l-3.859375 -9.078125l-2.6875 0l6.0625 13.421875l-0.96875 1.859375q-0.125 0.265625 -0.359375 0.671875q-0.21875 0.40625 -0.53125 0.78125q-0.328125 0.375 -0.75 0.640625q-0.40625 0.28125 -0.890625 0.28125q-0.1875 0 -0.515625 -0.015625q-0.3125 -0.015625 -0.640625 -0.046875l-0.390625 1.96875q0.234375 0.046875 0.6875 0.125q0.46875 0.078125 0.796875 0.078125z"
       fill-rule="nonzero"
       id="path28" />
    <path
       fill="#666666"
       d="m634.95544 317.37903l6.0625 0q1.21875 -0.015625 2.359375 -0.375q1.140625 -0.359375 2.015625 -1.0625q0.859375 -0.671875 1.375 -1.6875q0.53125 -1.015625 0.515625 -2.34375q0 -0.84375 -0.25 -1.5625q-0.25 -0.734375 -0.71875 -1.328125q-0.421875 -0.53125 -1.09375 -0.96875q-0.65625 -0.453125 -1.375 -0.609375l0 -0.046875q0.6875 -0.296875 1.171875 -0.625q0.5 -0.34375 0.90625 -0.84375q0.390625 -0.484375 0.609375 -1.09375q0.234375 -0.609375 0.25 -1.359375q0 -1.328125 -0.515625 -2.265625q-0.515625 -0.953125 -1.390625 -1.5625q-0.875 -0.625 -2.0 -0.90625q-1.109375 -0.296875 -2.28125 -0.3125l-5.640625 0l0 18.953125zm2.421875 -8.859375l3.84375 0q0.765625 0.015625 1.421875 0.25q0.671875 0.234375 1.171875 0.671875q0.484375 0.4375 0.765625 1.0625q0.28125 0.625 0.265625 1.4375q0 0.796875 -0.3125 1.421875q-0.296875 0.625 -0.8125 1.046875q-0.515625 0.4375 -1.203125 0.671875q-0.671875 0.234375 -1.421875 0.25l-3.71875 0l0 -6.8125zm0 -2.015625l0 -6.015625l3.296875 0q0.703125 0.015625 1.375 0.1875q0.671875 0.15625 1.1875 0.515625q0.515625 0.359375 0.8125 0.921875q0.3125 0.5625 0.3125 1.359375q0 0.734375 -0.3125 1.296875q-0.3125 0.5625 -0.828125 0.9375q-0.5 0.390625 -1.15625 0.59375q-0.65625 0.203125 -1.328125 0.203125l-3.359375 0zm13.980774 -9.125l0 2.109375l4.796875 0l0 15.8125l-4.796875 0l0 2.078125l11.796875 0l0 -2.078125l-4.59375 0l0 -17.921875l-7.203125 0zm14.949463 12.828125l0 0.28125q0 1.53125 0.4375 2.828125q0.4375 1.296875 1.28125 2.265625q0.8125 0.96875 2.0 1.515625q1.203125 0.546875 2.6875 0.546875q1.484375 0 2.671875 -0.546875q1.1875 -0.546875 2.015625 -1.515625q0.828125 -0.96875 1.265625 -2.265625q0.4375 -1.296875 0.4375 -2.828125l0 -0.28125q0 -1.515625 -0.4375 -2.828125q-0.4375 -1.3125 -1.265625 -2.28125q-0.828125 -0.953125 -2.03125 -1.5q-1.1875 -0.5625 -2.671875 -0.5625q-1.484375 0 -2.671875 0.5625q-1.1875 0.546875 -2.0 1.5q-0.84375 0.96875 -1.28125 2.28125q-0.4375 1.3125 -0.4375 2.828125zm2.40625 0.28125l0 -0.28125q0 -1.03125 0.234375 -1.96875q0.25 -0.953125 0.765625 -1.65625q0.5 -0.71875 1.234375 -1.140625q0.734375 -0.421875 1.75 -0.421875q1.0 0 1.75 0.421875q0.75 0.421875 1.25 1.140625q0.5 0.703125 0.75 1.65625q0.25 0.9375 0.25 1.96875l0 0.28125q0 1.046875 -0.25 2.0q-0.234375 0.9375 -0.734375 1.65625q-0.515625 0.703125 -1.265625 1.125q-0.734375 0.421875 -1.734375 0.421875q-1.0 0 -1.75 -0.421875q-0.75 -0.421875 -1.25 -1.125q-0.515625 -0.71875 -0.765625 -1.65625q-0.234375 -0.953125 -0.234375 -2.0zm20.261963 5.203125q-1.140625 0 -1.90625 -0.453125q-0.75 -0.453125 -1.203125 -1.171875q-0.46875 -0.71875 -0.671875 -1.625q-0.203125 -0.90625 -0.203125 -1.828125l0 -0.546875q0 -0.90625 0.203125 -1.796875q0.203125 -0.90625 0.671875 -1.640625q0.46875 -0.71875 1.21875 -1.15625q0.765625 -0.453125 1.890625 -0.453125q0.734375 0 1.359375 0.25q0.625 0.234375 1.09375 0.671875q0.453125 0.421875 0.71875 1.0q0.265625 0.5625 0.28125 1.203125l2.265625 0q0 -1.078125 -0.421875 -2.015625q-0.421875 -0.9375 -1.1875 -1.625q-0.765625 -0.671875 -1.8125 -1.0625q-1.046875 -0.40625 -2.296875 -0.40625q-1.59375 0 -2.796875 0.578125q-1.203125 0.5625 -2.0 1.53125q-0.796875 0.96875 -1.203125 2.25q-0.40625 1.28125 -0.40625 2.671875l0 0.546875q0 1.40625 0.40625 2.671875q0.40625 1.265625 1.203125 2.234375q0.796875 0.96875 2.0 1.546875q1.203125 0.578125 2.796875 0.578125q1.125 0 2.140625 -0.375q1.03125 -0.390625 1.828125 -1.046875q0.796875 -0.640625 1.265625 -1.484375q0.484375 -0.859375 0.484375 -1.796875l-2.265625 0q-0.015625 0.578125 -0.3125 1.09375q-0.296875 0.5 -0.765625 0.859375q-0.484375 0.375 -1.109375 0.59375q-0.609375 0.203125 -1.265625 0.203125zm14.215088 -4.890625l5.171875 6.578125l3.046875 0l-6.5625 -8.21875l5.6875 -5.859375l-2.921875 0l-4.625 4.625l-1.5625 1.703125l0 -12.25l-2.421875 0l0 20.0l2.421875 0l0 -4.875l1.765625 -1.703125z"
       fill-rule="nonzero"
       id="path29" />
    <path
       fill="#000000"
       fill-opacity="0.0"
       d="m672.712 364.64517l0 73.637024l-472.72443 0l0 -51.558258"
       fill-rule="evenodd"
       id="path30" />
    <path
       stroke="#000000"
       stroke-width="3.0"
       stroke-linejoin="round"
       stroke-linecap="butt"
       d="m672.712 364.64517l0 73.637024l-472.72443 0l0 -33.55829"
       fill-rule="evenodd"
       id="path31" />
    <path
       fill="#000000"
       stroke="#000000"
       stroke-width="3.0"
       stroke-linecap="butt"
       d="m204.94275 404.7239l-4.9552 -13.614288l-4.9552 13.614288z"
       fill-rule="evenodd"
       id="path32" />
  </g>
</svg>
