<svg version="1.1" viewBox="0.0 0.0 960.0 540.0" fill="none" stroke="none" stroke-linecap="square" stroke-miterlimit="10" xmlns:xlink="http://www.w3.org/1999/xlink" xmlns="http://www.w3.org/2000/svg"><clipPath id="g3a35fb3a460_0_20.0"><path d="m0 0l960.0 0l0 540.0l-960.0 0l0 -540.0z" clip-rule="nonzero"/></clipPath><g clip-path="url(#g3a35fb3a460_0_20.0)"><path fill="#ffffff" d="m0 0l960.0 0l0 540.0l-960.0 0z" fill-rule="evenodd"/><path fill="#ffffff" d="m17.385824 198.4656l925.2284 0l0 201.82678l-925.2284 0z" fill-rule="evenodd"/><path stroke="#000000" stroke-width="1.2125984251968505" stroke-linejoin="round" stroke-linecap="butt" d="m17.385824 198.4656l925.2284 0l0 201.82678l-925.2284 0z" fill-rule="evenodd"/><path fill="#ffffff" d="m35.80077 211.27322l191.43307 0l0 174.67715l-191.43307 0z" fill-rule="evenodd"/><path stroke="#000000" stroke-width="1.2125984251968505" stroke-linejoin="round" stroke-linecap="butt" d="m35.80077 211.27322l191.43307 0l0 174.67715l-191.43307 0z" fill-rule="evenodd"/><path fill="#000000" d="m68.85293 250.32188l-2.625 0q-0.125 0.9375 -0.4375 1.75q-0.3125 0.796875 -0.84375 1.375q-0.53125 0.59375 -1.2968712 0.921875q-0.75 0.328125 -1.78125 0.328125q-0.953125 0 -1.671875 -0.296875q-0.703125 -0.3125 -1.21875 -0.859375q-0.53125 -0.515625 -0.875 -1.203125q-0.34375 -0.703125 -0.546875 -1.5q-0.21875 -0.78125 -0.3125 -1.59375q-0.09375 -0.828125 -0.09375 -1.59375l0 -2.90625q0 -0.765625 0.09375 -1.578125q0.09375 -0.828125 0.3125 -1.609375q0.203125 -0.78125 0.546875 -1.46875q0.359375 -0.703125 0.875 -1.21875q0.515625 -0.53125 1.234375 -0.828125q0.71875 -0.3125 1.65625 -0.3125q1.03125 0 1.78125 0.359375q0.7656212 0.34375 1.2968712 0.953125q0.53125 0.609375 0.84375 1.421875q0.3125 0.796875 0.4375 1.734375l2.625 0q-0.171875 -1.46875 -0.703125 -2.6875q-0.53125 -1.234375 -1.40625 -2.109375q-0.890625 -0.859375 -2.109375 -1.328125q-1.2187462 -0.484375 -2.7656212 -0.484375q-1.296875 0 -2.328125 0.359375q-1.03125 0.359375 -1.84375 1.0q-0.828125 0.640625 -1.421875 1.515625q-0.578125 0.875 -0.96875 1.890625q-0.390625 1.03125 -0.59375 2.15625q-0.1875 1.109375 -0.203125 2.265625l0 2.875q0.015625 1.15625 0.203125 2.28125q0.203125 1.109375 0.59375 2.140625q0.390625 1.015625 0.96875 1.890625q0.59375 0.859375 1.421875 1.5q0.8125 0.64064026 1.84375 1.0000153q1.046875 0.359375 2.328125 0.359375q1.484375 0 2.7031212 -0.46875q1.21875 -0.48439026 2.109375 -1.3437653q0.875 -0.859375 1.421875 -2.046875q0.5625 -1.203125 0.75 -2.640625zm14.152847 6.2187653l2.75 0l0 -0.234375q-0.265625 -0.62501526 -0.40625 -1.4843903q-0.140625 -0.859375 -0.140625 -1.625l0 -7.15625q0 -1.28125 -0.46875 -2.25q-0.46875 -0.96875 -1.28125 -1.625q-0.8125 -0.625 -1.9375 -0.9375q-1.125 -0.328125 -2.4375 -0.328125q-1.421875 0 -2.5625 0.40625q-1.125 0.390625 -1.90625 1.015625q-0.796875 0.65625 -1.21875 1.46875q-0.40625 0.8125 -0.421875 1.640625l2.640625 0q0 -0.46875 0.234375 -0.921875q0.234375 -0.453125 0.65625 -0.78125q0.421875 -0.328125 1.03125 -0.515625q0.625 -0.203125 1.40625 -0.203125q0.84375 0 1.515625 0.21875q0.671875 0.203125 1.140625 0.59375q0.46875 0.390625 0.71875 0.953125q0.265625 0.546875 0.265625 1.25l0 1.203125l-2.875 0q-1.59375 0 -2.90625 0.3125q-1.296875 0.3125 -2.21875 0.9375q-0.921875 0.640625 -1.421875 1.59375q-0.5 0.953125 -0.5 2.203125q0 0.96875 0.375 1.8125q0.375 0.828125 1.0625 1.421875q0.6875 0.60939026 1.671875 0.96876526q0.984375 0.34375 2.21875 0.34375q0.75 0 1.40625 -0.15625q0.671875 -0.15625 1.265625 -0.421875q0.59375 -0.26564026 1.078125 -0.62501526q0.484375 -0.359375 0.890625 -0.75q0.03125 0.484375 0.125 0.9375q0.09375 0.43751526 0.25 0.73439026zm-4.640625 -2.0000153q-0.765625 0 -1.359375 -0.203125q-0.578125 -0.203125 -0.953125 -0.546875q-0.390625 -0.34375 -0.578125 -0.828125q-0.1875 -0.484375 -0.1875 -1.046875q0 -0.59375 0.21875 -1.0625q0.21875 -0.46875 0.640625 -0.8125q0.59375 -0.484375 1.609375 -0.71875q1.015625 -0.234375 2.390625 -0.234375l2.4375 0l0 3.109375q-0.234375 0.453125 -0.625 0.875q-0.390625 0.421875 -0.9375 0.75q-0.546875 0.3125 -1.21875 0.515625q-0.671875 0.203125 -1.4375 0.203125zm11.996597 2.0000153l2.625 0l0 -11.01564q0.265625 -0.5 0.625 -0.90625q0.375 -0.421875 0.796875 -0.734375q0.53125 -0.34375 1.15625 -0.546875q0.625 -0.21875 1.34375 -0.21875q0.84375 0 1.484375 0.203125q0.640625 0.203125 1.09375 0.640625q0.453125 0.4375 0.671875 1.15625q0.234375 0.703125 0.234375 1.71875l0 9.70314l2.625 0l0 -9.750015q0 -1.53125 -0.375 -2.640625q-0.375 -1.125 -1.078125 -1.84375q-0.6875 -0.734375 -1.6875 -1.0625q-0.984375 -0.34375 -2.1875 -0.34375q-0.890625 0.015625 -1.703125 0.265625q-0.796875 0.234375 -1.484375 0.6875q-0.453125 0.296875 -0.859375 0.703125q-0.390625 0.40625 -0.734375 0.890625l-0.1875 -2.265625l-2.359375 0l0 15.35939zm16.715347 -7.8281403l0 0.3125q0 1.671875 0.484375 3.09375q0.484375 1.40625 1.390625 2.46875q0.890625 1.046875 2.1875 1.6406403q1.296875 0.59375 2.9375 0.59375q1.609375 0 2.90625 -0.59375q1.296875 -0.59376526 2.203125 -1.6406403q0.890625 -1.0625 1.375 -2.46875q0.484375 -1.421875 0.484375 -3.09375l0 -0.3125q0 -1.65625 -0.484375 -3.078125q-0.484375 -1.4375 -1.375 -2.484375q-0.90625 -1.046875 -2.203125 -1.640625q-1.296875 -0.609375 -2.9375 -0.609375q-1.625 0 -2.921875 0.609375q-1.28125 0.59375 -2.171875 1.640625q-0.90625 1.046875 -1.390625 2.484375q-0.484375 1.421875 -0.484375 3.078125zm2.625 0.3125l0 -0.3125q0 -1.109375 0.265625 -2.140625q0.265625 -1.03125 0.828125 -1.8125q0.53125 -0.78125 1.34375 -1.234375q0.8125 -0.46875 1.90625 -0.46875q1.09375 0 1.90625 0.46875q0.8125 0.453125 1.375 1.234375q0.53125 0.78125 0.8125 1.8125q0.28125 1.03125 0.28125 2.140625l0 0.3125q0 1.140625 -0.28125 2.171875q-0.265625 1.03125 -0.796875 1.8125q-0.5625 0.78125 -1.375 1.234375q-0.8125 0.453125 -1.890625 0.453125q-1.09375 0 -1.921875 -0.453125q-0.828125 -0.453125 -1.359375 -1.234375q-0.5625 -0.78125 -0.828125 -1.8125q-0.265625 -1.03125 -0.265625 -2.171875zm15.559097 7.5156403l2.625 0l0 -11.01564q0.26563263 -0.5 0.6250076 -0.90625q0.375 -0.421875 0.796875 -0.734375q0.53125 -0.34375 1.15625 -0.546875q0.625 -0.21875 1.34375 -0.21875q0.84375 0 1.484375 0.203125q0.640625 0.203125 1.09375 0.640625q0.453125 0.4375 0.671875 1.15625q0.234375 0.703125 0.234375 1.71875l0 9.70314l2.625 0l0 -9.750015q0 -1.53125 -0.375 -2.640625q-0.375 -1.125 -1.078125 -1.84375q-0.6875 -0.734375 -1.6875 -1.0625q-0.984375 -0.34375 -2.1875 -0.34375q-0.890625 0.015625 -1.703125 0.265625q-0.796875 0.234375 -1.484375 0.6875q-0.453125 0.296875 -0.859375 0.703125q-0.390625 0.40625 -0.7343826 0.890625l-0.1875 -2.265625l-2.359375 0l0 15.35939zm17.85598 -15.35939l0 2.28125l5.234375 0l0 10.8125l-5.234375 0l0 2.2656403l12.875 0l0 -2.2656403l-5.015625 0l0 -13.09375l-7.859375 0zm4.890625 -4.03125q0 0.640625 0.390625 1.0625q0.390625 0.421875 1.1875 0.421875q0.78125 0 1.171875 -0.421875q0.40625 -0.421875 0.40625 -1.0625q0 -0.359375 -0.125 -0.65625q-0.109375 -0.296875 -0.328125 -0.5q-0.1875 -0.1875 -0.46875 -0.28125q-0.28125 -0.109375 -0.65625 -0.109375q-0.375 0 -0.671875 0.109375q-0.28125 0.09375 -0.46875 0.28125q-0.21875 0.21875 -0.328125 0.515625q-0.109375 0.296875 -0.109375 0.640625zm18.699707 17.546875q-1.234375 0 -2.0625 -0.484375q-0.828125 -0.5 -1.3281097 -1.296875q-0.515625 -0.78125 -0.734375 -1.765625q-0.21875 -0.984375 -0.21875 -2.0l0 -0.59375q0 -0.984375 0.21875 -1.96875q0.21875 -0.984375 0.734375 -1.78125q0.51560974 -0.78125 1.3437347 -1.265625q0.828125 -0.484375 2.046875 -0.484375q0.796875 0 1.484375 0.265625q0.6875 0.265625 1.1875 0.734375q0.5 0.46875 0.78125 1.09375q0.296875 0.609375 0.3125 1.3125l2.484375 0q0 -1.171875 -0.46875 -2.1875q-0.46875 -1.03125 -1.296875 -1.78125q-0.828125 -0.734375 -1.984375 -1.15625q-1.140625 -0.4375 -2.5 -0.4375q-1.75 0 -3.0624847 0.625q-1.296875 0.625 -2.15625 1.671875q-0.890625 1.0625 -1.328125 2.453125q-0.4375 1.390625 -0.4375 2.90625l0 0.59375q0 1.546875 0.4375 2.9375q0.4375 1.375 1.328125 2.421875q0.859375 1.0625 2.15625 1.6875153q1.3124847 0.625 3.0624847 0.625q1.21875 0 2.34375 -0.40625q1.125 -0.42189026 1.984375 -1.1406403q0.875 -0.6875 1.390625 -1.609375q0.515625 -0.9375 0.53125 -1.96875l-2.484375 0q-0.015625 0.640625 -0.34375 1.1875q-0.3125 0.546875 -0.84375 0.9375q-0.515625 0.421875 -1.203125 0.65625q-0.671875 0.21875 -1.375 0.21875zm20.996613 1.8437653l2.75 0l0 -0.234375q-0.265625 -0.62501526 -0.40625 -1.4843903q-0.140625 -0.859375 -0.140625 -1.625l0 -7.15625q0 -1.28125 -0.46875 -2.25q-0.46875 -0.96875 -1.28125 -1.625q-0.8125 -0.625 -1.9375 -0.9375q-1.125 -0.328125 -2.4375 -0.328125q-1.421875 0 -2.5625 0.40625q-1.125 0.390625 -1.90625 1.015625q-0.796875 0.65625 -1.21875 1.46875q-0.40625 0.8125 -0.421875 1.640625l2.640625 0q0 -0.46875 0.234375 -0.921875q0.234375 -0.453125 0.65625 -0.78125q0.421875 -0.328125 1.03125 -0.515625q0.625 -0.203125 1.40625 -0.203125q0.84375 0 1.515625 0.21875q0.671875 0.203125 1.140625 0.59375q0.46875 0.390625 0.71875 0.953125q0.265625 0.546875 0.265625 1.25l0 1.203125l-2.875 0q-1.59375 0 -2.90625 0.3125q-1.296875 0.3125 -2.21875 0.9375q-0.921875 0.640625 -1.421875 1.59375q-0.5 0.953125 -0.5 2.203125q0 0.96875 0.375 1.8125q0.375 0.828125 1.0625 1.421875q0.6875 0.60939026 1.671875 0.96876526q0.984375 0.34375 2.21875 0.34375q0.75 0 1.40625 -0.15625q0.671875 -0.15625 1.265625 -0.421875q0.59375 -0.26564026 1.078125 -0.62501526q0.484375 -0.359375 0.890625 -0.75q0.03125 0.484375 0.125 0.9375q0.09375 0.43751526 0.25 0.73439026zm-4.640625 -2.0000153q-0.765625 0 -1.359375 -0.203125q-0.578125 -0.203125 -0.953125 -0.546875q-0.390625 -0.34375 -0.578125 -0.828125q-0.1875 -0.484375 -0.1875 -1.046875q0 -0.59375 0.21875 -1.0625q0.21875 -0.46875 0.640625 -0.8125q0.59375 -0.484375 1.609375 -0.71875q1.015625 -0.234375 2.390625 -0.234375l2.4375 0l0 3.109375q-0.234375 0.453125 -0.625 0.875q-0.390625 0.421875 -0.9375 0.75q-0.546875 0.3125 -1.21875 0.515625q-0.671875 0.203125 -1.4375 0.203125zm12.402832 -19.8125l0 2.296875l5.234375 0l0 17.25l-5.234375 0l0 2.2656403l12.875 0l0 -2.2656403l-5.015625 0l0 -19.546875l-7.859375 0z" fill-rule="nonzero"/><path fill="#000000" d="m90.3305 291.54065l6.625 0q1.3125 -0.015625 2.546875 -0.40625q1.25 -0.40625 2.203125 -1.15625q0.953125 -0.734375 1.515625 -1.84375q0.578125 -1.109375 0.5625 -2.5625q0 -0.921875 -0.28125 -1.703125q-0.28125 -0.796875 -0.765625 -1.4375q-0.46875 -0.59375 -1.203125 -1.0625q-0.71875 -0.484375 -1.5 -0.671875l0 -0.046875q0.75 -0.328125 1.28125 -0.6875q0.53125 -0.375 0.96875 -0.921875q0.4375 -0.515625 0.671875 -1.1875q0.25 -0.671875 0.265625 -1.46875q0.015625 -1.453125 -0.546875 -2.484375q-0.5625 -1.046875 -1.515625 -1.71875q-0.953125 -0.65625 -2.171875 -0.96875q-1.21875 -0.328125 -2.5 -0.34375l-6.15625 0l0 20.671875zm2.640625 -9.671875l4.1875 0q0.84375 0.03125 1.5625 0.296875q0.734375 0.25 1.265625 0.71875q0.546875 0.484375 0.84375 1.171875q0.3125 0.671875 0.296875 1.546875q0 0.875 -0.34375 1.5625q-0.328125 0.671875 -0.890625 1.140625q-0.578125 0.46875 -1.3125 0.734375q-0.734375 0.25 -1.5625 0.265625l-4.046875 0l0 -7.4375zm0 -2.1875l0 -6.5625l3.59375 0q0.765625 0 1.5 0.1875q0.734375 0.1875 1.296875 0.578125q0.5625 0.390625 0.890625 1.0q0.328125 0.609375 0.328125 1.484375q0 0.796875 -0.34375 1.421875q-0.328125 0.609375 -0.890625 1.015625q-0.546875 0.421875 -1.265625 0.640625q-0.703125 0.21875 -1.4375 0.234375l-3.671875 0zm15.246597 -9.953125l0 2.296875l5.234375 0l0 17.25l-5.234375 0l0 2.265625l12.875 0l0 -2.265625l-5.015625 0l0 -19.546875l-7.859375 0zm16.309097 13.984375l0 0.3125q0 1.671875 0.484375 3.09375q0.484375 1.40625 1.390625 2.46875q0.890625 1.046875 2.1875076 1.640625q1.296875 0.59375 2.9375 0.59375q1.609375 0 2.90625 -0.59375q1.296875 -0.59375 2.203125 -1.640625q0.890625 -1.0625 1.375 -2.46875q0.484375 -1.421875 0.484375 -3.09375l0 -0.3125q0 -1.65625 -0.484375 -3.078125q-0.484375 -1.4375 -1.375 -2.484375q-0.90625 -1.046875 -2.203125 -1.640625q-1.296875 -0.609375 -2.9375 -0.609375q-1.625 0 -2.921875 0.609375q-1.2812576 0.59375 -2.1718826 1.640625q-0.90625 1.046875 -1.390625 2.484375q-0.484375 1.421875 -0.484375 3.078125zm2.625 0.3125l0 -0.3125q0 -1.109375 0.265625 -2.140625q0.265625 -1.03125 0.8281326 -1.8125q0.53125 -0.78125 1.34375 -1.234375q0.8125 -0.46875 1.90625 -0.46875q1.09375 0 1.90625 0.46875q0.8125 0.453125 1.375 1.234375q0.53125 0.78125 0.8125 1.8125q0.28125 1.03125 0.28125 2.140625l0 0.3125q0 1.140625 -0.28125 2.171875q-0.265625 1.03125 -0.796875 1.8125q-0.5625 0.78125 -1.375 1.234375q-0.8125 0.453125 -1.890625 0.453125q-1.09375 0 -1.921875 -0.453125q-0.828125 -0.453125 -1.359375 -1.234375q-0.5625076 -0.78125 -0.8281326 -1.8125q-0.265625 -1.03125 -0.265625 -2.171875zm22.10598 5.671875q-1.234375 0 -2.0625 -0.484375q-0.828125 -0.5 -1.328125 -1.296875q-0.515625 -0.78125 -0.734375 -1.765625q-0.21875 -0.984375 -0.21875 -2.0l0 -0.59375q0 -0.984375 0.21875 -1.96875q0.21875 -0.984375 0.734375 -1.78125q0.515625 -0.78125 1.34375 -1.265625q0.828125 -0.484375 2.046875 -0.484375q0.796875 0 1.484375 0.265625q0.6875 0.265625 1.1875 0.734375q0.5 0.46875 0.78125 1.09375q0.296875 0.609375 0.3125 1.3125l2.484375 0q0 -1.171875 -0.46875 -2.1875q-0.46875 -1.03125 -1.296875 -1.78125q-0.828125 -0.734375 -1.984375 -1.15625q-1.140625 -0.4375 -2.5 -0.4375q-1.75 0 -3.0625 0.625q-1.296875 0.625 -2.15625 1.671875q-0.890625 1.0625 -1.328125 2.453125q-0.4375 1.390625 -0.4375 2.90625l0 0.59375q0 1.546875 0.4375 2.9375q0.4375 1.375 1.328125 2.421875q0.859375 1.0625 2.15625 1.6875q1.3125 0.625 3.0625 0.625q1.21875 0 2.34375 -0.40625q1.125 -0.421875 1.984375 -1.140625q0.875 -0.6875 1.390625 -1.609375q0.515625 -0.9375 0.53125 -1.96875l-2.484375 0q-0.015625 0.640625 -0.34375 1.1875q-0.3125 0.546875 -0.84375 0.9375q-0.515625 0.421875 -1.203125 0.65625q-0.671875 0.21875 -1.375 0.21875zm15.512207 -5.328125l5.625 7.171875l3.34375 0l-7.171875 -8.953125l6.21875 -6.40625l-3.203125 0l-5.03125 5.046875l-1.7187347 1.84375l0 -13.34375l-2.640625 0l0 21.8125l2.640625 0l0 -5.3125l1.9374847 -1.859375z" fill-rule="nonzero"/><path fill="#000000" d="m66.8373 316.97815l0 -2.21875l-8.640621 0l0 -6.640625l9.953121 0l0 -2.25l-12.578121 0l0 20.671875l12.703121 0l0 -2.234375l-10.078121 0l0 -7.328125l8.640621 0zm12.418472 -0.109375l-4.0625 -5.6875l-3.03125 0l5.71875 7.59375l-5.875 7.765625l3.0625 0l4.25 -5.84375l4.25 5.84375l3.03125 0l-5.875 -7.765625l5.71875 -7.59375l-3.078125 0l-4.109375 5.6875zm17.324722 -9.40625l-2.640625 0l0 3.71875l-4.03125 0l0 2.03125l4.03125 0l0 8.34375q0 1.421875 0.375 2.421875q0.375 1.0 1.03125 1.625q0.65625 0.640625 1.53125 0.9375q0.890625 0.28125 1.921875 0.28125q0.609375 0 1.21875 -0.0625q0.625 -0.046875 1.171875 -0.15625q0.5625 -0.109375 1.03125 -0.25q0.46875 -0.15625 0.796875 -0.359375l-0.375 -1.859375q-0.234375 0.0625 -0.609375 0.140625q-0.375 0.078125 -0.8125 0.15625q-0.4375 0.0625 -0.890625 0.125q-0.453125 0.046875 -0.875 0.046875q-0.59375 0 -1.109375 -0.140625q-0.515625 -0.15625 -0.90625 -0.5q-0.40625 -0.34375 -0.640625 -0.921875q-0.21875 -0.59375 -0.21875 -1.484375l0 -8.34375l5.859375 0l0 -2.03125l-5.859375 0l0 -3.71875zm18.012222 19.359375q2.25 0 3.765625 -0.890625q1.53125 -0.90625 2.296875 -2.078125l-1.59375 -1.25q-0.734375 0.9375 -1.828125 1.515625q-1.078125 0.5625 -2.484375 0.5625q-1.078125 0 -1.953125 -0.390625q-0.875 -0.40625 -1.5 -1.09375q-0.609375 -0.65625 -0.96875 -1.5q-0.34375 -0.859375 -0.4375 -1.984375l0 -0.09375l10.96875 0l0 -1.1875q0 -1.609375 -0.40625 -2.984375q-0.40625 -1.375 -1.21875 -2.390625q-0.828125 -1.015625 -2.078125 -1.578125q-1.234375 -0.578125 -2.890625 -0.578125q-1.328125 0 -2.59375 0.546875q-1.25 0.53125 -2.21875 1.53125q-1.0 1.03125 -1.59375 2.5q-0.59375 1.46875 -0.59375 3.328125l0 0.59375q0 1.609375 0.53125 2.96875q0.546875 1.359375 1.515625 2.359375q0.953125 0.984375 2.3125 1.546875q1.359375 0.546875 2.96875 0.546875zm-0.328125 -13.765625q1.0 0 1.734375 0.375q0.734375 0.359375 1.21875 0.953125q0.484375 0.59375 0.75 1.421875q0.265625 0.8125 0.265625 1.515625l0 0.125l-8.265625 0q0.15625 -1.0625 0.546875 -1.875q0.390625 -0.8125 0.96875 -1.390625q0.5625 -0.546875 1.265625 -0.828125q0.71875 -0.296875 1.515625 -0.296875zm10.996597 13.484375l2.625 0l0 -11.015625q0.26563263 -0.5 0.6250076 -0.90625q0.375 -0.421875 0.796875 -0.734375q0.53125 -0.34375 1.15625 -0.546875q0.625 -0.21875 1.34375 -0.21875q0.84375 0 1.484375 0.203125q0.640625 0.203125 1.09375 0.640625q0.453125 0.4375 0.671875 1.15625q0.234375 0.703125 0.234375 1.71875l0 9.703125l2.625 0l0 -9.75q0 -1.53125 -0.375 -2.640625q-0.375 -1.125 -1.078125 -1.84375q-0.6875 -0.734375 -1.6875 -1.0625q-0.984375 -0.34375 -2.1875 -0.34375q-0.890625 0.015625 -1.703125 0.265625q-0.796875 0.234375 -1.484375 0.6875q-0.453125 0.296875 -0.859375 0.703125q-0.390625 0.40625 -0.7343826 0.890625l-0.1875 -2.265625l-2.359375 0l0 15.359375zm27.652855 -4.078125q0 0.375 -0.140625 0.703125q-0.140625 0.328125 -0.40625 0.59375q-0.4375 0.4375 -1.21875 0.6875q-0.78125 0.25 -1.828125 0.25q-0.671875 0 -1.359375 -0.140625q-0.671875 -0.140625 -1.234375 -0.484375q-0.5625 -0.34375 -0.9375 -0.890625q-0.375 -0.5625 -0.4375 -1.375l-2.625 0q0 0.984375 0.4375 1.890625q0.453125 0.90625 1.3125 1.59375q0.828125 0.703125 2.046875 1.125q1.234375 0.40625 2.796875 0.40625q1.359375 0 2.5 -0.328125q1.15625 -0.328125 1.984375 -0.921875q0.828125 -0.59375 1.28125 -1.421875q0.46875 -0.84375 0.46875 -1.875q0 -0.9375 -0.40625 -1.65625q-0.40625 -0.734375 -1.171875 -1.296875q-0.765625 -0.53125 -1.890625 -0.921875q-1.125 -0.390625 -2.546875 -0.6875q-1.078125 -0.21875 -1.78125 -0.4375q-0.703125 -0.234375 -1.109375 -0.515625q-0.421875 -0.28125 -0.59375 -0.640625q-0.171875 -0.359375 -0.171875 -0.8125q0 -0.4375 0.203125 -0.84375q0.21875 -0.421875 0.640625 -0.734375q0.421875 -0.3125 1.046875 -0.484375q0.625 -0.1875 1.46875 -0.1875q0.8125 0 1.453125 0.234375q0.65625 0.21875 1.109375 0.578125q0.453125 0.375 0.703125 0.859375q0.25 0.46875 0.25 0.96875l2.640625 0q0 -1.015625 -0.4375 -1.890625q-0.4375 -0.875 -1.234375 -1.515625q-0.796875 -0.65625 -1.9375 -1.015625q-1.125 -0.375 -2.546875 -0.375q-1.3125 0 -2.421875 0.359375q-1.09375 0.34375 -1.890625 0.953125q-0.796875 0.609375 -1.234375 1.4375q-0.4375 0.8125 -0.4375 1.75q0 0.953125 0.421875 1.671875q0.421875 0.703125 1.203125 1.234375q0.765625 0.53125 1.84375 0.921875q1.09375 0.390625 2.421875 0.65625q1.078125 0.203125 1.796875 0.46875q0.71875 0.265625 1.171875 0.578125q0.4375 0.3125 0.609375 0.6875q0.1875 0.375 0.1875 0.84375zm7.6528473 -11.28125l0 2.28125l5.2343597 0l0 10.8125l-5.2343597 0l0 2.265625l12.874985 0l0 -2.265625l-5.015625 0l0 -13.09375l-7.8593597 0zm4.8906097 -4.03125q0 0.640625 0.390625 1.0625q0.390625 0.421875 1.1875 0.421875q0.78125 0 1.171875 -0.421875q0.40625 -0.421875 0.40625 -1.0625q0 -0.359375 -0.125 -0.65625q-0.109375 -0.296875 -0.328125 -0.5q-0.1875 -0.1875 -0.46875 -0.28125q-0.28125 -0.109375 -0.65625 -0.109375q-0.375 0 -0.671875 0.109375q-0.28125 0.09375 -0.46875 0.28125q-0.21875 0.21875 -0.328125 0.515625q-0.109375 0.296875 -0.109375 0.640625zm11.418488 11.5625l0 0.3125q0 1.671875 0.484375 3.09375q0.484375 1.40625 1.390625 2.46875q0.890625 1.046875 2.1875 1.640625q1.296875 0.59375 2.9375 0.59375q1.609375 0 2.90625 -0.59375q1.296875 -0.59375 2.203125 -1.640625q0.890625 -1.0625 1.375 -2.46875q0.484375 -1.421875 0.484375 -3.09375l0 -0.3125q0 -1.65625 -0.484375 -3.078125q-0.484375 -1.4375 -1.375 -2.484375q-0.90625 -1.046875 -2.203125 -1.640625q-1.296875 -0.609375 -2.9375 -0.609375q-1.625 0 -2.921875 0.609375q-1.28125 0.59375 -2.171875 1.640625q-0.90625 1.046875 -1.390625 2.484375q-0.484375 1.421875 -0.484375 3.078125zm2.625 0.3125l0 -0.3125q0 -1.109375 0.265625 -2.140625q0.265625 -1.03125 0.828125 -1.8125q0.53125 -0.78125 1.34375 -1.234375q0.8125 -0.46875 1.90625 -0.46875q1.09375 0 1.90625 0.46875q0.8125 0.453125 1.375 1.234375q0.53125 0.78125 0.8125 1.8125q0.28125 1.03125 0.28125 2.140625l0 0.3125q0 1.140625 -0.28125 2.171875q-0.265625 1.03125 -0.796875 1.8125q-0.5625 0.78125 -1.375 1.234375q-0.8125 0.453125 -1.890625 0.453125q-1.09375 0 -1.921875 -0.453125q-0.828125 -0.453125 -1.359375 -1.234375q-0.5625 -0.78125 -0.828125 -1.8125q-0.265625 -1.03125 -0.265625 -2.171875zm15.559082 7.515625l2.625 0l0 -11.015625q0.265625 -0.5 0.625 -0.90625q0.375 -0.421875 0.796875 -0.734375q0.53125 -0.34375 1.15625 -0.546875q0.625 -0.21875 1.34375 -0.21875q0.84375 0 1.484375 0.203125q0.640625 0.203125 1.09375 0.640625q0.453125 0.4375 0.671875 1.15625q0.234375 0.703125 0.234375 1.71875l0 9.703125l2.625 0l0 -9.75q0 -1.53125 -0.375 -2.640625q-0.375 -1.125 -1.078125 -1.84375q-0.6875 -0.734375 -1.6875 -1.0625q-0.984375 -0.34375 -2.1875 -0.34375q-0.890625 0.015625 -1.703125 0.265625q-0.796875 0.234375 -1.484375 0.6875q-0.453125 0.296875 -0.859375 0.703125q-0.390625 0.40625 -0.734375 0.890625l-0.1875 -2.265625l-2.359375 0l0 15.359375z" fill-rule="nonzero"/><path fill="#000000" d="m99.08661 340.86877l0 2.28125l4.84375 0l0 16.125l-4.84375 0l0 2.265625l12.5 0l0 -2.265625l-4.953125 0l0 -16.125l4.953125 0l0 -2.28125l-12.5 0zm17.449722 20.671875l2.625 0l0 -11.015625q0.265625 -0.5 0.625 -0.90625q0.375 -0.421875 0.796875 -0.734375q0.53125 -0.34375 1.15625 -0.546875q0.625 -0.21875 1.34375 -0.21875q0.84375 0 1.484375 0.203125q0.640625 0.203125 1.09375 0.640625q0.453125 0.4375 0.671875 1.15625q0.234375 0.703125 0.234375 1.71875l0 9.703125l2.625 0l0 -9.75q0 -1.53125 -0.375 -2.640625q-0.375 -1.125 -1.078125 -1.84375q-0.6875 -0.734375 -1.6875 -1.0625q-0.984375 -0.34375 -2.1875 -0.34375q-0.890625 0.015625 -1.703125 0.265625q-0.796875 0.234375 -1.484375 0.6875q-0.453125 0.296875 -0.859375 0.703125q-0.390625 0.40625 -0.734375 0.890625l-0.1875 -2.265625l-2.359375 0l0 15.359375zm21.371597 0l2.640625 0l0 -13.328125l5.921875 0l0 -2.03125l-5.921875 0l0 -1.078125q0 -0.96875 0.25 -1.6875q0.25 -0.734375 0.734375 -1.1875q0.453125 -0.4375 1.140625 -0.65625q0.6875 -0.21875 1.578125 -0.21875q0.875 0 1.640625 0.15625q0.78125 0.140625 1.375 0.34375l0.3125 -2.171875q-0.375 -0.109375 -0.734375 -0.1875q-0.34375 -0.078125 -0.703125 -0.140625q-0.546875 -0.109375 -1.09375 -0.171875q-0.546875 -0.0625 -1.125 -0.0625q-1.359375 0 -2.46875 0.390625q-1.109375 0.375 -1.890625 1.125q-0.796875 0.765625 -1.234375 1.875q-0.421875 1.109375 -0.421875 2.59375l0 1.078125l-4.234375 0l0 2.03125l4.234375 0l0 13.328125zm12.793472 -7.828125l0 0.3125q0 1.671875 0.484375 3.09375q0.484375 1.40625 1.390625 2.46875q0.890625 1.046875 2.1875 1.640625q1.296875 0.59375 2.9375 0.59375q1.609375 0 2.90625 -0.59375q1.296875 -0.59375 2.203125 -1.640625q0.890625 -1.0625 1.375 -2.46875q0.484375 -1.421875 0.484375 -3.09375l0 -0.3125q0 -1.65625 -0.484375 -3.078125q-0.484375 -1.4375 -1.375 -2.484375q-0.90625 -1.046875 -2.203125 -1.640625q-1.296875 -0.609375 -2.9375 -0.609375q-1.625 0 -2.921875 0.609375q-1.28125 0.59375 -2.171875 1.640625q-0.90625 1.046875 -1.390625 2.484375q-0.484375 1.421875 -0.484375 3.078125zm2.625 0.3125l0 -0.3125q0 -1.109375 0.265625 -2.140625q0.265625 -1.03125 0.828125 -1.8125q0.53125 -0.78125 1.34375 -1.234375q0.8125 -0.46875 1.90625 -0.46875q1.09375 0 1.90625 0.46875q0.8125 0.453125 1.375 1.234375q0.53125 0.78125 0.8125 1.8125q0.28125 1.03125 0.28125 2.140625l0 0.3125q0 1.140625 -0.28125 2.171875q-0.265625 1.03125 -0.796875 1.8125q-0.5625 0.78125 -1.375 1.234375q-0.8125 0.453125 -1.890625 0.453125q-1.09375 0 -1.921875 -0.453125q-0.828125 -0.453125 -1.359375 -1.234375q-0.5625 -0.78125 -0.828125 -1.8125q-0.265625 -1.03125 -0.265625 -2.171875z" fill-rule="nonzero"/><path fill="#ffffff" d="m17.385824 139.70866l925.2284 0l0 58.771652l-925.2284 0z" fill-rule="evenodd"/><path stroke="#000000" stroke-width="1.0" stroke-linejoin="round" stroke-linecap="butt" d="m17.385824 139.70866l925.2284 0l0 58.771652l-925.2284 0z" fill-rule="evenodd"/><path fill="#000000" d="m94.10973 157.96562l-2.546875 0l-0.046875 14.0q-0.03125 0.921875 -0.296875 1.78125q-0.265625 0.84375 -0.78125 1.5q-0.515625 0.671875 -1.296875 1.0625q-0.765625 0.390625 -1.765625 0.390625q-1.015625 0 -1.796875 -0.390625q-0.765625 -0.40625 -1.265625 -1.0625q-0.53125 -0.65625 -0.8125 -1.5q-0.265625 -0.859375 -0.28125 -1.78125l-0.0625 -14.0l-2.5 0l-0.03125 14.0q0.015625 1.453125 0.515625 2.71875q0.5 1.265625 1.375 2.203125q0.890625 0.953125 2.125 1.5q1.234375 0.53125 2.734375 0.53125q1.46875 0 2.703125 -0.546875q1.25 -0.546875 2.140625 -1.5q0.890625 -0.9375 1.390625 -2.1875q0.515625 -1.265625 0.515625 -2.71875l-0.015625 -14.0zm14.668472 16.59375q0 0.375 -0.140625 0.703125q-0.140625 0.328125 -0.40625 0.59375q-0.4375 0.4375 -1.21875 0.6875q-0.78125 0.25 -1.828125 0.25q-0.671875 0 -1.359375 -0.140625q-0.671875 -0.140625 -1.234375 -0.484375q-0.5625 -0.34375 -0.9375 -0.890625q-0.375 -0.5625 -0.4375 -1.375l-2.625 0q0 0.984375 0.4375 1.890625q0.453125 0.90625 1.3125 1.59375q0.828125 0.703125 2.046875 1.125q1.234375 0.40625 2.796875 0.40625q1.359375 0 2.5 -0.328125q1.15625 -0.328125 1.984375 -0.921875q0.828125 -0.59375 1.28125 -1.421875q0.46875 -0.84375 0.46875 -1.875q0 -0.9375 -0.40625 -1.65625q-0.40625 -0.734375 -1.171875 -1.296875q-0.765625 -0.53125 -1.890625 -0.921875q-1.125 -0.390625 -2.546875 -0.6875q-1.078125 -0.21875 -1.78125 -0.4375q-0.703125 -0.234375 -1.109375 -0.515625q-0.421875 -0.28125 -0.59375 -0.640625q-0.171875 -0.359375 -0.171875 -0.8125q0 -0.4375 0.203125 -0.84375q0.21875 -0.421875 0.640625 -0.734375q0.421875 -0.3125 1.046875 -0.484375q0.625 -0.1875 1.46875 -0.1875q0.8125 0 1.453125 0.234375q0.65625 0.21875 1.109375 0.578125q0.453125 0.375 0.703125 0.859375q0.25 0.46875 0.25 0.96875l2.640625 0q0 -1.015625 -0.4375 -1.890625q-0.4375 -0.875 -1.234375 -1.515625q-0.796875 -0.65625 -1.9375 -1.015625q-1.125 -0.375 -2.546875 -0.375q-1.3125 0 -2.421875 0.359375q-1.09375 0.34375 -1.890625 0.953125q-0.796875 0.609375 -1.234375 1.4375q-0.4375 0.8125 -0.4375 1.75q0 0.953125 0.421875 1.671875q0.421875 0.703125 1.203125 1.234375q0.765625 0.53125 1.84375 0.921875q1.09375 0.390625 2.421875 0.65625q1.078125 0.203125 1.796875 0.46875q0.71875 0.265625 1.171875 0.578125q0.4375 0.3125 0.609375 0.6875q0.1875 0.375 0.1875 0.84375zm14.027847 4.359375q2.25 0 3.765625 -0.890625q1.5312424 -0.90625 2.2968674 -2.078125l-1.5937424 -1.25q-0.734375 0.9375 -1.828125 1.515625q-1.078125 0.5625 -2.484375 0.5625q-1.078125 0 -1.953125 -0.390625q-0.875 -0.40625 -1.5 -1.09375q-0.609375 -0.65625 -0.96875 -1.5q-0.34375 -0.859375 -0.4375 -1.984375l0 -0.09375l10.968742 0l0 -1.1875q0 -1.609375 -0.40625 -2.984375q-0.40625 -1.375 -1.2187424 -2.390625q-0.828125 -1.015625 -2.078125 -1.578125q-1.234375 -0.578125 -2.890625 -0.578125q-1.328125 0 -2.59375 0.546875q-1.25 0.53125 -2.21875 1.53125q-1.0 1.03125 -1.59375 2.5q-0.59375 1.46875 -0.59375 3.328125l0 0.59375q0 1.609375 0.53125 2.96875q0.546875 1.359375 1.515625 2.359375q0.953125 0.984375 2.3125 1.546875q1.359375 0.546875 2.96875 0.546875zm-0.328125 -13.765625q1.0 0 1.734375 0.375q0.734375 0.359375 1.21875 0.953125q0.484375 0.59375 0.75 1.421875q0.265625 0.8125 0.265625 1.515625l0 0.125l-8.265625 0q0.15625 -1.0625 0.546875 -1.875q0.390625 -0.8125 0.96875 -1.390625q0.5625 -0.546875 1.265625 -0.828125q0.71875 -0.296875 1.515625 -0.296875zm21.05909 -2.15625q-1.671875 0 -2.984375 0.734375q-1.3125 0.71875 -2.25 1.984375l-0.015625 -0.375l-0.109375 -2.0625l-2.5 0l0 15.359375l2.640625 0l0 -9.859375q0.25 -0.703125 0.640625 -1.28125q0.390625 -0.578125 0.921875 -0.96875q0.578125 -0.453125 1.359375 -0.6875q0.78125 -0.234375 1.75 -0.234375q0.75 0 1.4375 0.078125q0.6875 0.078125 1.453125 0.25l0.359375 -2.578125q-0.390625 -0.171875 -1.1875 -0.265625q-0.78125 -0.09375 -1.515625 -0.09375zm38.461945 6.234375l0 -1.828125q0 -1.125 -0.1875 -2.296875q-0.1875 -1.171875 -0.5625 -2.25q-0.375 -1.09375 -0.96875 -2.03125q-0.59375 -0.9375 -1.390625 -1.640625q-0.828125 -0.6875 -1.890625 -1.09375q-1.0625 -0.40625 -2.375 -0.40625q-1.328125 0 -2.390625 0.40625q-1.046875 0.40625 -1.859375 1.09375q-0.8125 0.71875 -1.40625 1.65625q-0.578125 0.9375 -0.96875 2.015625q-0.375 1.09375 -0.5625 2.265625q-0.1875 1.15625 -0.203125 2.28125l0 1.828125q0.015625 1.125 0.203125 2.28125q0.1875 1.15625 0.5625 2.234375q0.390625 1.078125 0.984375 2.03125q0.59375 0.9375 1.421875 1.640625q0.8125 0.6875 1.859375 1.09375q1.046875 0.40625 2.375 0.40625q0.515625 0 0.984375 -0.0625q0.46875 -0.0625 0.921875 -0.1875l4.078125 3.46875l1.8125 -1.71875l-3.5625 -2.96875q0.8125 -0.703125 1.40625 -1.640625q0.59375 -0.953125 0.96875 -2.03125q0.375 -1.078125 0.5625 -2.234375q0.1875 -1.171875 0.1875 -2.3125zm-2.609375 -1.859375l0 1.859375q-0.015625 0.78125 -0.09375 1.625q-0.078125 0.84375 -0.265625 1.65625q-0.21875 0.828125 -0.5625 1.578125q-0.34375 0.734375 -0.859375 1.28125q-0.53125 0.5625 -1.265625 0.90625q-0.71875 0.328125 -1.703125 0.328125q-0.96875 0 -1.703125 -0.328125q-0.734375 -0.34375 -1.25 -0.90625q-0.53125 -0.5625 -0.875 -1.296875q-0.34375 -0.75 -0.5625 -1.578125q-0.21875 -0.8125 -0.3125 -1.65625q-0.078125 -0.84375 -0.078125 -1.609375l0 -1.859375q0 -0.765625 0.078125 -1.609375q0.09375 -0.84375 0.3125 -1.671875q0.21875 -0.796875 0.5625 -1.53125q0.34375 -0.75 0.875 -1.3125q0.515625 -0.5625 1.234375 -0.890625q0.734375 -0.328125 1.703125 -0.328125q0.984375 0 1.703125 0.328125q0.734375 0.328125 1.265625 0.875q0.515625 0.5625 0.859375 1.3125q0.359375 0.734375 0.578125 1.546875q0.1875 0.8125 0.265625 1.65625q0.078125 0.84375 0.09375 1.625zm16.559097 11.265625l2.390625 0l0 -15.359375l-2.640625 0l0 11.015625q-0.21875 0.5 -0.546875 0.921875q-0.3125 0.40625 -0.734375 0.703125q-0.515625 0.375 -1.21875 0.578125q-0.6875 0.203125 -1.5625 0.203125q-0.75 0 -1.328125 -0.1875q-0.578125 -0.203125 -0.96875 -0.703125q-0.40625 -0.484375 -0.609375 -1.296875q-0.1875 -0.828125 -0.1875 -2.078125l0 -9.15625l-2.625 0l0 9.125q0 1.71875 0.375 2.953125q0.375 1.21875 1.0625 2.015625q0.703125 0.796875 1.671875 1.171875q0.984375 0.375 2.1875 0.375q1.515625 0 2.65625 -0.625q1.15625 -0.640625 1.921875 -1.765625l0.15625 2.109375zm17.418472 0l2.75 0l0 -0.234375q-0.265625 -0.625 -0.40625 -1.484375q-0.140625 -0.859375 -0.140625 -1.625l0 -7.15625q0 -1.28125 -0.46875 -2.25q-0.46875 -0.96875 -1.28125 -1.625q-0.8125 -0.625 -1.9375 -0.9375q-1.125 -0.328125 -2.4375 -0.328125q-1.421875 0 -2.5625 0.40625q-1.125 0.390625 -1.90625 1.015625q-0.796875 0.65625 -1.21875 1.46875q-0.40625 0.8125 -0.421875 1.640625l2.640625 0q0 -0.46875 0.234375 -0.921875q0.234375 -0.453125 0.65625 -0.78125q0.421875 -0.328125 1.03125 -0.515625q0.625 -0.203125 1.40625 -0.203125q0.84375 0 1.515625 0.21875q0.671875 0.203125 1.140625 0.59375q0.46875 0.390625 0.71875 0.953125q0.265625 0.546875 0.265625 1.25l0 1.203125l-2.875 0q-1.59375 0 -2.90625 0.3125q-1.296875 0.3125 -2.21875 0.9375q-0.921875 0.640625 -1.421875 1.59375q-0.5 0.953125 -0.5 2.203125q0 0.96875 0.375 1.8125q0.375 0.828125 1.0625 1.421875q0.6875 0.609375 1.671875 0.96875q0.984375 0.34375 2.21875 0.34375q0.75 0 1.40625 -0.15625q0.671875 -0.15625 1.265625 -0.421875q0.59375 -0.265625 1.078125 -0.625q0.484375 -0.359375 0.890625 -0.75q0.03125 0.484375 0.125 0.9375q0.09375 0.4375 0.25 0.734375zm-4.640625 -2.0q-0.765625 0 -1.359375 -0.203125q-0.578125 -0.203125 -0.953125 -0.546875q-0.390625 -0.34375 -0.578125 -0.828125q-0.1875 -0.484375 -0.1875 -1.046875q0 -0.59375 0.21875 -1.0625q0.21875 -0.46875 0.640625 -0.8125q0.59375 -0.484375 1.609375 -0.71875q1.015625 -0.234375 2.390625 -0.234375l2.4375 0l0 3.109375q-0.234375 0.453125 -0.625 0.875q-0.390625 0.421875 -0.9375 0.75q-0.546875 0.3125 -1.21875 0.515625q-0.671875 0.203125 -1.4375 0.203125zm12.402847 -19.8125l0 2.296875l5.234375 0l0 17.25l-5.234375 0l0 2.265625l12.875 0l0 -2.265625l-5.015625 0l0 -19.546875l-7.859375 0zm17.449722 6.453125l0 2.28125l5.234375 0l0 10.8125l-5.234375 0l0 2.265625l12.875 0l0 -2.265625l-5.015625 0l0 -13.09375l-7.859375 0zm4.890625 -4.03125q0 0.640625 0.390625 1.0625q0.390625 0.421875 1.1875 0.421875q0.78125 0 1.171875 -0.421875q0.40625 -0.421875 0.40625 -1.0625q0 -0.359375 -0.125 -0.65625q-0.109375 -0.296875 -0.328125 -0.5q-0.1875 -0.1875 -0.46875 -0.28125q-0.28125 -0.109375 -0.65625 -0.109375q-0.375 0 -0.671875 0.109375q-0.28125 0.09375 -0.46875 0.28125q-0.21875 0.21875 -0.328125 0.515625q-0.109375 0.296875 -0.109375 0.640625zm18.371613 0.3125l-2.640625 0l0 3.71875l-4.0312653 0l0 2.03125l4.0312653 0l0 8.34375q0 1.421875 0.375 2.421875q0.375 1.0 1.03125 1.625q0.65625 0.640625 1.53125 0.9375q0.890625 0.28125 1.921875 0.28125q0.609375 0 1.21875 -0.0625q0.625 -0.046875 1.171875 -0.15625q0.5625 -0.109375 1.03125 -0.25q0.46875 -0.15625 0.796875 -0.359375l-0.375 -1.859375q-0.234375 0.0625 -0.609375 0.140625q-0.375 0.078125 -0.8125 0.15625q-0.4375 0.0625 -0.890625 0.125q-0.453125 0.046875 -0.875 0.046875q-0.59375 0 -1.109375 -0.140625q-0.515625 -0.15625 -0.90625 -0.5q-0.40625 -0.34375 -0.640625 -0.921875q-0.21875 -0.59375 -0.21875 -1.484375l0 -8.34375l5.859375 0l0 -2.03125l-5.859375 0l0 -3.71875zm12.465332 25.28125q1.046875 0 1.828125 -0.390625q0.796875 -0.375 1.390625 -0.9375q0.609375 -0.578125 1.015625 -1.25q0.421875 -0.65625 0.6875 -1.25l7.796875 -17.734375l-2.9375 0l-3.953125 9.96875l-0.734375 1.796875l-0.671875 -1.859375l-4.21875 -9.90625l-2.9375 0l6.609375 14.640625l-1.046875 2.046875q-0.140625 0.28125 -0.390625 0.71875q-0.25 0.4375 -0.59375 0.84375q-0.34375 0.421875 -0.796875 0.71875q-0.453125 0.296875 -0.984375 0.296875q-0.203125 0 -0.546875 -0.03125q-0.34375 -0.015625 -0.703125 -0.046875l-0.421875 2.15625q0.25 0.046875 0.75 0.125q0.5 0.09375 0.859375 0.09375zm32.930725 -14.03125l0 0.3125q0 1.671875 0.484375 3.09375q0.484375 1.40625 1.390625 2.46875q0.890625 1.046875 2.1875 1.640625q1.296875 0.59375 2.9375 0.59375q1.609375 0 2.90625 -0.59375q1.296875 -0.59375 2.203125 -1.640625q0.890625 -1.0625 1.375 -2.46875q0.484375 -1.421875 0.484375 -3.09375l0 -0.3125q0 -1.65625 -0.484375 -3.078125q-0.484375 -1.4375 -1.375 -2.484375q-0.90625 -1.046875 -2.203125 -1.640625q-1.296875 -0.609375 -2.9375 -0.609375q-1.625 0 -2.921875 0.609375q-1.28125 0.59375 -2.171875 1.640625q-0.90625 1.046875 -1.390625 2.484375q-0.484375 1.421875 -0.484375 3.078125zm2.625 0.3125l0 -0.3125q0 -1.109375 0.265625 -2.140625q0.265625 -1.03125 0.828125 -1.8125q0.53125 -0.78125 1.34375 -1.234375q0.8125 -0.46875 1.90625 -0.46875q1.09375 0 1.90625 0.46875q0.8125 0.453125 1.375 1.234375q0.53125 0.78125 0.8125 1.8125q0.28125 1.03125 0.28125 2.140625l0 0.3125q0 1.140625 -0.28125 2.171875q-0.265625 1.03125 -0.796875 1.8125q-0.5625 0.78125 -1.375 1.234375q-0.8125 0.453125 -1.890625 0.453125q-1.09375 0 -1.921875 -0.453125q-0.828125 -0.453125 -1.359375 -1.234375q-0.5625 -0.78125 -0.828125 -1.8125q-0.265625 -1.03125 -0.265625 -2.171875zm19.480957 7.515625l2.640625 0l0 -13.328125l5.921875 0l0 -2.03125l-5.921875 0l0 -1.078125q0 -0.96875 0.25 -1.6875q0.25 -0.734375 0.734375 -1.1875q0.453125 -0.4375 1.140625 -0.65625q0.6875 -0.21875 1.578125 -0.21875q0.875 0 1.640625 0.15625q0.78125 0.140625 1.375 0.34375l0.3125 -2.171875q-0.375 -0.109375 -0.734375 -0.1875q-0.34375 -0.078125 -0.703125 -0.140625q-0.546875 -0.109375 -1.09375 -0.171875q-0.546875 -0.0625 -1.125 -0.0625q-1.359375 0 -2.46875 0.390625q-1.109375 0.375 -1.890625 1.125q-0.796875 0.765625 -1.234375 1.875q-0.421875 1.109375 -0.421875 2.59375l0 1.078125l-4.234375 0l0 2.03125l4.234375 0l0 13.328125zm41.805695 -5.21875q0 0.84375 -0.375 1.46875q-0.375 0.609375 -0.953125 1.015625q-0.578125 0.40625 -1.328125 0.609375q-0.75 0.1875 -1.515625 0.1875q-0.96875 0 -1.78125 -0.265625q-0.8125 -0.265625 -1.4375 -0.796875q-0.625 -0.5 -1.03125 -1.25q-0.390625 -0.75 -0.515625 -1.71875l-2.6875 0q0.046875 1.34375 0.59375 2.4375q0.546875 1.078125 1.484375 1.890625q1.046875 0.9375 2.46875 1.4375q1.4375 0.484375 2.90625 0.484375q1.234375 0 2.46875 -0.34375q1.234375 -0.34375 2.21875 -1.046875q0.984375 -0.671875 1.59375 -1.703125q0.625 -1.046875 0.625 -2.4375q0 -1.375 -0.578125 -2.421875q-0.578125 -1.0625 -1.515625 -1.78125q-0.953125 -0.78125 -2.109375 -1.28125q-1.140625 -0.515625 -2.28125 -0.859375q-0.703125 -0.21875 -1.5 -0.5q-0.78125 -0.28125 -1.4375 -0.71875q-0.6875 -0.421875 -1.125 -1.03125q-0.4375 -0.625 -0.453125 -1.515625q0 -0.828125 0.328125 -1.453125q0.328125 -0.625 0.90625 -1.046875q0.546875 -0.421875 1.265625 -0.640625q0.71875 -0.21875 1.46875 -0.21875q0.9375 0 1.671875 0.296875q0.75 0.296875 1.296875 0.8125q0.546875 0.53125 0.859375 1.265625q0.328125 0.71875 0.453125 1.625l2.6875 0q-0.03125 -1.421875 -0.609375 -2.5625q-0.578125 -1.15625 -1.546875 -1.96875q-0.96875 -0.8125 -2.21875 -1.25q-1.25 -0.453125 -2.59375 -0.453125q-1.21875 0 -2.4375 0.375q-1.203125 0.375 -2.140625 1.09375q-0.953125 0.734375 -1.546875 1.78125q-0.59375 1.046875 -0.59375 2.390625q0 1.328125 0.59375 2.3125q0.59375 0.984375 1.53125 1.71875q0.921875 0.703125 2.046875 1.21875q1.125 0.5 2.21875 0.84375q0.75 0.25 1.5625 0.546875q0.828125 0.296875 1.5 0.734375q0.6875 0.453125 1.125 1.109375q0.4375 0.65625 0.4375 1.609375zm13.402832 5.5q2.25 0 3.765625 -0.890625q1.53125 -0.90625 2.296875 -2.078125l-1.59375 -1.25q-0.734375 0.9375 -1.828125 1.515625q-1.078125 0.5625 -2.484375 0.5625q-1.078125 0 -1.953125 -0.390625q-0.875 -0.40625 -1.5 -1.09375q-0.609375 -0.65625 -0.96875 -1.5q-0.34375 -0.859375 -0.4375 -1.984375l0 -0.09375l10.96875 0l0 -1.1875q0 -1.609375 -0.40625 -2.984375q-0.40625 -1.375 -1.21875 -2.390625q-0.828125 -1.015625 -2.078125 -1.578125q-1.234375 -0.578125 -2.890625 -0.578125q-1.328125 0 -2.59375 0.546875q-1.25 0.53125 -2.21875 1.53125q-1.0 1.03125 -1.59375 2.5q-0.59375 1.46875 -0.59375 3.328125l0 0.59375q0 1.609375 0.53125 2.96875q0.546875 1.359375 1.515625 2.359375q0.953125 0.984375 2.3125 1.546875q1.359375 0.546875 2.96875 0.546875zm-0.328125 -13.765625q1.0 0 1.734375 0.375q0.734375 0.359375 1.21875 0.953125q0.484375 0.59375 0.75 1.421875q0.265625 0.8125 0.265625 1.515625l0 0.125l-8.265625 0q0.15625 -1.0625 0.546875 -1.875q0.390625 -0.8125 0.96875 -1.390625q0.5625 -0.546875 1.265625 -0.828125q0.71875 -0.296875 1.515625 -0.296875zm21.059082 -2.15625q-1.671875 0 -2.984375 0.734375q-1.3125 0.71875 -2.25 1.984375l-0.015625 -0.375l-0.109375 -2.0625l-2.5 0l0 15.359375l2.640625 0l0 -9.859375q0.25 -0.703125 0.640625 -1.28125q0.390625 -0.578125 0.921875 -0.96875q0.578125 -0.453125 1.359375 -0.6875q0.78125 -0.234375 1.75 -0.234375q0.75 0 1.4375 0.078125q0.6875 0.078125 1.453125 0.25l0.359375 -2.578125q-0.390625 -0.171875 -1.1875 -0.265625q-0.78125 -0.09375 -1.515625 -0.09375zm12.621582 15.640625l2.015625 0l6.25 -15.359375l-2.671875 0l-4.3125 11.578125l-0.25 0.953125l-0.25 -0.953125l-4.390625 -11.578125l-2.703125 0l6.3125 15.359375zm12.621582 -15.359375l0 2.28125l5.234375 0l0 10.8125l-5.234375 0l0 2.265625l12.875 0l0 -2.265625l-5.015625 0l0 -13.09375l-7.859375 0zm4.890625 -4.03125q0 0.640625 0.390625 1.0625q0.390625 0.421875 1.1875 0.421875q0.78125 0 1.171875 -0.421875q0.40625 -0.421875 0.40625 -1.0625q0 -0.359375 -0.125 -0.65625q-0.109375 -0.296875 -0.328125 -0.5q-0.1875 -0.1875 -0.46875 -0.28125q-0.28125 -0.109375 -0.65625 -0.109375q-0.375 0 -0.671875 0.109375q-0.28125 0.09375 -0.46875 0.28125q-0.21875 0.21875 -0.328125 0.515625q-0.109375 0.296875 -0.109375 0.640625zm18.699707 17.546875q-1.234375 0 -2.0625 -0.484375q-0.828125 -0.5 -1.328125 -1.296875q-0.515625 -0.78125 -0.734375 -1.765625q-0.21875 -0.984375 -0.21875 -2.0l0 -0.59375q0 -0.984375 0.21875 -1.96875q0.21875 -0.984375 0.734375 -1.78125q0.515625 -0.78125 1.34375 -1.265625q0.828125 -0.484375 2.046875 -0.484375q0.796875 0 1.484375 0.265625q0.6875 0.265625 1.1875 0.734375q0.5 0.46875 0.78125 1.09375q0.296875 0.609375 0.3125 1.3125l2.484375 0q0 -1.171875 -0.46875 -2.1875q-0.46875 -1.03125 -1.296875 -1.78125q-0.828125 -0.734375 -1.984375 -1.15625q-1.140625 -0.4375 -2.5 -0.4375q-1.75 0 -3.0625 0.625q-1.296875 0.625 -2.15625 1.671875q-0.890625 1.0625 -1.328125 2.453125q-0.4375 1.390625 -0.4375 2.90625l0 0.59375q0 1.546875 0.4375 2.9375q0.4375 1.375 1.328125 2.421875q0.859375 1.0625 2.15625 1.6875q1.3125 0.625 3.0625 0.625q1.21875 0 2.34375 -0.40625q1.125 -0.421875 1.984375 -1.140625q0.875 -0.6875 1.390625 -1.609375q0.515625 -0.9375 0.53125 -1.96875l-2.484375 0q-0.015625 0.640625 -0.34375 1.1875q-0.3125 0.546875 -0.84375 0.9375q-0.515625 0.421875 -1.203125 0.65625q-0.671875 0.21875 -1.375 0.21875zm17.684082 2.125q2.25 0 3.765625 -0.890625q1.53125 -0.90625 2.296875 -2.078125l-1.59375 -1.25q-0.734375 0.9375 -1.828125 1.515625q-1.078125 0.5625 -2.484375 0.5625q-1.078125 0 -1.953125 -0.390625q-0.875 -0.40625 -1.5 -1.09375q-0.609375 -0.65625 -0.96875 -1.5q-0.34375 -0.859375 -0.4375 -1.984375l0 -0.09375l10.96875 0l0 -1.1875q0 -1.609375 -0.40625 -2.984375q-0.40625 -1.375 -1.21875 -2.390625q-0.828125 -1.015625 -2.078125 -1.578125q-1.234375 -0.578125 -2.890625 -0.578125q-1.328125 0 -2.59375 0.546875q-1.25 0.53125 -2.21875 1.53125q-1.0 1.03125 -1.59375 2.5q-0.59375 1.46875 -0.59375 3.328125l0 0.59375q0 1.609375 0.53125 2.96875q0.546875 1.359375 1.515625 2.359375q0.953125 0.984375 2.3125 1.546875q1.359375 0.546875 2.96875 0.546875zm-0.328125 -13.765625q1.0 0 1.734375 0.375q0.734375 0.359375 1.21875 0.953125q0.484375 0.59375 0.75 1.421875q0.265625 0.8125 0.265625 1.515625l0 0.125l-8.265625 0q0.15625 -1.0625 0.546875 -1.875q0.390625 -0.8125 0.96875 -1.390625q0.5625 -0.546875 1.265625 -0.828125q0.71875 -0.296875 1.515625 -0.296875zm39.82129 3.921875l0 -2.21875l-8.640625 0l0 -6.640625l9.953125 0l0 -2.25l-12.578125 0l0 20.671875l12.703125 0l0 -2.234375l-10.078125 0l0 -7.328125l8.640625 0zm12.418457 -0.109375l-4.0625 -5.6875l-3.03125 0l5.71875 7.59375l-5.875 7.765625l3.0625 0l4.25 -5.84375l4.25 5.84375l3.031189 0l-5.874939 -7.765625l5.718689 -7.59375l-3.078064 0l-4.109375 5.6875zm17.324646 -9.40625l-2.640625 0l0 3.71875l-4.03125 0l0 2.03125l4.03125 0l0 8.34375q0 1.421875 0.375 2.421875q0.375 1.0 1.03125 1.625q0.65625 0.640625 1.53125 0.9375q0.890625 0.28125 1.921875 0.28125q0.609375 0 1.21875 -0.0625q0.625 -0.046875 1.171875 -0.15625q0.5625 -0.109375 1.03125 -0.25q0.46875 -0.15625 0.796875 -0.359375l-0.375 -1.859375q-0.234375 0.0625 -0.609375 0.140625q-0.375 0.078125 -0.8125 0.15625q-0.4375 0.0625 -0.890625 0.125q-0.453125 0.046875 -0.875 0.046875q-0.59375 0 -1.109375 -0.140625q-0.515625 -0.15625 -0.90625 -0.5q-0.40625 -0.34375 -0.640625 -0.921875q-0.21875 -0.59375 -0.21875 -1.484375l0 -8.34375l5.859375 0l0 -2.03125l-5.859375 0l0 -3.71875zm18.012207 19.359375q2.25 0 3.765625 -0.890625q1.53125 -0.90625 2.296875 -2.078125l-1.59375 -1.25q-0.734375 0.9375 -1.828125 1.515625q-1.078125 0.5625 -2.484375 0.5625q-1.078125 0 -1.953125 -0.390625q-0.875 -0.40625 -1.5 -1.09375q-0.609375 -0.65625 -0.96875 -1.5q-0.34375 -0.859375 -0.4375 -1.984375l0 -0.09375l10.96875 0l0 -1.1875q0 -1.609375 -0.40625 -2.984375q-0.40625 -1.375 -1.21875 -2.390625q-0.828125 -1.015625 -2.078125 -1.578125q-1.234375 -0.578125 -2.890625 -0.578125q-1.328125 0 -2.59375 0.546875q-1.25 0.53125 -2.21875 1.53125q-1.0 1.03125 -1.59375 2.5q-0.59375 1.46875 -0.59375 3.328125l0 0.59375q0 1.609375 0.53125 2.96875q0.546875 1.359375 1.515625 2.359375q0.953125 0.984375 2.3125 1.546875q1.359375 0.546875 2.96875 0.546875zm-0.328125 -13.765625q1.0 0 1.734375 0.375q0.734375 0.359375 1.21875 0.953125q0.484375 0.59375 0.75 1.421875q0.265625 0.8125 0.265625 1.515625l0 0.125l-8.265625 0q0.15625 -1.0625 0.546875 -1.875q0.390625 -0.8125 0.96875 -1.390625q0.5625 -0.546875 1.265625 -0.828125q0.71875 -0.296875 1.515625 -0.296875zm10.996582 13.484375l2.625 0l0 -11.015625q0.265625 -0.5 0.625 -0.90625q0.375 -0.421875 0.796875 -0.734375q0.53125 -0.34375 1.15625 -0.546875q0.625 -0.21875 1.34375 -0.21875q0.84375 0 1.484375 0.203125q0.640625 0.203125 1.09375 0.640625q0.453125 0.4375 0.671875 1.15625q0.234375 0.703125 0.234375 1.71875l0 9.703125l2.625 0l0 -9.75q0 -1.53125 -0.375 -2.640625q-0.375 -1.125 -1.078125 -1.84375q-0.6875 -0.734375 -1.6875 -1.0625q-0.984375 -0.34375 -2.1875 -0.34375q-0.890625 0.015625 -1.703125 0.265625q-0.796875 0.234375 -1.484375 0.6875q-0.453125 0.296875 -0.859375 0.703125q-0.390625 0.40625 -0.734375 0.890625l-0.1875 -2.265625l-2.359375 0l0 15.359375zm27.652832 -4.078125q0 0.375 -0.140625 0.703125q-0.140625 0.328125 -0.40625 0.59375q-0.4375 0.4375 -1.21875 0.6875q-0.78125 0.25 -1.828125 0.25q-0.671875 0 -1.359375 -0.140625q-0.671875 -0.140625 -1.234375 -0.484375q-0.5625 -0.34375 -0.9375 -0.890625q-0.375 -0.5625 -0.4375 -1.375l-2.625 0q0 0.984375 0.4375 1.890625q0.453125 0.90625 1.3125 1.59375q0.828125 0.703125 2.046875 1.125q1.234375 0.40625 2.796875 0.40625q1.359375 0 2.5 -0.328125q1.15625 -0.328125 1.984375 -0.921875q0.828125 -0.59375 1.28125 -1.421875q0.46875 -0.84375 0.46875 -1.875q0 -0.9375 -0.40625 -1.65625q-0.40625 -0.734375 -1.171875 -1.296875q-0.765625 -0.53125 -1.890625 -0.921875q-1.125 -0.390625 -2.546875 -0.6875q-1.078125 -0.21875 -1.78125 -0.4375q-0.703125 -0.234375 -1.109375 -0.515625q-0.421875 -0.28125 -0.59375 -0.640625q-0.171875 -0.359375 -0.171875 -0.8125q0 -0.4375 0.203125 -0.84375q0.21875 -0.421875 0.640625 -0.734375q0.421875 -0.3125 1.046875 -0.484375q0.625 -0.1875 1.46875 -0.1875q0.8125 0 1.453125 0.234375q0.65625 0.21875 1.109375 0.578125q0.453125 0.375 0.703125 0.859375q0.25 0.46875 0.25 0.96875l2.640625 0q0 -1.015625 -0.4375 -1.890625q-0.4375 -0.875 -1.234375 -1.515625q-0.796875 -0.65625 -1.9375 -1.015625q-1.125 -0.375 -2.546875 -0.375q-1.3125 0 -2.421875 0.359375q-1.09375 0.34375 -1.890625 0.953125q-0.796875 0.609375 -1.234375 1.4375q-0.4375 0.8125 -0.4375 1.75q0 0.953125 0.421875 1.671875q0.421875 0.703125 1.203125 1.234375q0.765625 0.53125 1.84375 0.921875q1.09375 0.390625 2.421875 0.65625q1.078125 0.203125 1.796875 0.46875q0.71875 0.265625 1.171875 0.578125q0.4375 0.3125 0.609375 0.6875q0.1875 0.375 0.1875 0.84375zm7.652832 -11.28125l0 2.28125l5.234375 0l0 10.8125l-5.234375 0l0 2.265625l12.875 0l0 -2.265625l-5.015625 0l0 -13.09375l-7.859375 0zm4.890625 -4.03125q0 0.640625 0.390625 1.0625q0.390625 0.421875 1.1875 0.421875q0.78125 0 1.171875 -0.421875q0.40625 -0.421875 0.40625 -1.0625q0 -0.359375 -0.125 -0.65625q-0.109375 -0.296875 -0.328125 -0.5q-0.1875 -0.1875 -0.46875 -0.28125q-0.28125 -0.109375 -0.65625 -0.109375q-0.375 0 -0.671875 0.109375q-0.28125 0.09375 -0.46875 0.28125q-0.21875 0.21875 -0.328125 0.515625q-0.109375 0.296875 -0.109375 0.640625zm11.418457 11.5625l0 0.3125q0 1.671875 0.484375 3.09375q0.484375 1.40625 1.390625 2.46875q0.890625 1.046875 2.1875 1.640625q1.296875 0.59375 2.9375 0.59375q1.609375 0 2.90625 -0.59375q1.296875 -0.59375 2.203125 -1.640625q0.890625 -1.0625 1.375 -2.46875q0.484375 -1.421875 0.484375 -3.09375l0 -0.3125q0 -1.65625 -0.484375 -3.078125q-0.484375 -1.4375 -1.375 -2.484375q-0.90625 -1.046875 -2.203125 -1.640625q-1.296875 -0.609375 -2.9375 -0.609375q-1.625 0 -2.921875 0.609375q-1.28125 0.59375 -2.171875 1.640625q-0.90625 1.046875 -1.390625 2.484375q-0.484375 1.421875 -0.484375 3.078125zm2.625 0.3125l0 -0.3125q0 -1.109375 0.265625 -2.140625q0.265625 -1.03125 0.828125 -1.8125q0.53125 -0.78125 1.34375 -1.234375q0.8125 -0.46875 1.90625 -0.46875q1.09375 0 1.90625 0.46875q0.8125 0.453125 1.375 1.234375q0.53125 0.78125 0.8125 1.8125q0.28125 1.03125 0.28125 2.140625l0 0.3125q0 1.140625 -0.28125 2.171875q-0.265625 1.03125 -0.796875 1.8125q-0.5625 0.78125 -1.375 1.234375q-0.8125 0.453125 -1.890625 0.453125q-1.09375 0 -1.921875 -0.453125q-0.828125 -0.453125 -1.359375 -1.234375q-0.5625 -0.78125 -0.828125 -1.8125q-0.265625 -1.03125 -0.265625 -2.171875zm15.559082 7.515625l2.625 0l0 -11.015625q0.265625 -0.5 0.625 -0.90625q0.375 -0.421875 0.796875 -0.734375q0.53125 -0.34375 1.15625 -0.546875q0.625 -0.21875 1.34375 -0.21875q0.84375 0 1.484375 0.203125q0.640625 0.203125 1.09375 0.640625q0.453125 0.4375 0.671875 1.15625q0.234375 0.703125 0.234375 1.71875l0 9.703125l2.625 0l0 -9.75q0 -1.53125 -0.375 -2.640625q-0.375 -1.125 -1.078125 -1.84375q-0.6875 -0.734375 -1.6875 -1.0625q-0.984375 -0.34375 -2.1875 -0.34375q-0.890625 0.015625 -1.703125 0.265625q-0.796875 0.234375 -1.484375 0.6875q-0.453125 0.296875 -0.859375 0.703125q-0.390625 0.40625 -0.734375 0.890625l-0.1875 -2.265625l-2.359375 0l0 15.359375zm34.868164 0l6.625 0q1.3125 -0.015625 2.546875 -0.40625q1.25 -0.40625 2.203125 -1.15625q0.953125 -0.734375 1.515625 -1.84375q0.578125 -1.109375 0.5625 -2.5625q0 -0.921875 -0.28125 -1.703125q-0.28125 -0.796875 -0.765625 -1.4375q-0.46875 -0.59375 -1.203125 -1.0625q-0.71875 -0.484375 -1.5 -0.671875l0 -0.046875q0.75 -0.328125 1.28125 -0.6875q0.53125 -0.375 0.96875 -0.921875q0.4375 -0.515625 0.671875 -1.1875q0.25 -0.671875 0.265625 -1.46875q0.015625 -1.453125 -0.546875 -2.484375q-0.5625 -1.046875 -1.515625 -1.71875q-0.953125 -0.65625 -2.171875 -0.96875q-1.21875 -0.328125 -2.5 -0.34375l-6.15625 0l0 20.671875zm2.640625 -9.671875l4.1875 0q0.84375 0.03125 1.5625 0.296875q0.734375 0.25 1.265625 0.71875q0.546875 0.484375 0.84375 1.171875q0.3125 0.671875 0.296875 1.546875q0 0.875 -0.34375 1.5625q-0.328125 0.671875 -0.890625 1.140625q-0.578125 0.46875 -1.3125 0.734375q-0.734375 0.25 -1.5625 0.265625l-4.046875 0l0 -7.4375zm0 -2.1875l0 -6.5625l3.59375 0q0.765625 0 1.5 0.1875q0.734375 0.1875 1.296875 0.578125q0.5625 0.390625 0.890625 1.0q0.328125 0.609375 0.328125 1.484375q0 0.796875 -0.34375 1.421875q-0.328125 0.609375 -0.890625 1.015625q-0.546875 0.421875 -1.265625 0.640625q-0.703125 0.21875 -1.4375 0.234375l-3.671875 0zm15.246582 -9.953125l0 2.296875l5.234375 0l0 17.25l-5.234375 0l0 2.265625l12.875 0l0 -2.265625l-5.015625 0l0 -19.546875l-7.859375 0zm16.309082 13.984375l0 0.3125q0 1.671875 0.484375 3.09375q0.484375 1.40625 1.390625 2.46875q0.890625 1.046875 2.1875 1.640625q1.296875 0.59375 2.9375 0.59375q1.609375 0 2.90625 -0.59375q1.296875 -0.59375 2.203125 -1.640625q0.890625 -1.0625 1.375 -2.46875q0.484375 -1.421875 0.484375 -3.09375l0 -0.3125q0 -1.65625 -0.484375 -3.078125q-0.484375 -1.4375 -1.375 -2.484375q-0.90625 -1.046875 -2.203125 -1.640625q-1.296875 -0.609375 -2.9375 -0.609375q-1.625 0 -2.921875 0.609375q-1.28125 0.59375 -2.171875 1.640625q-0.90625 1.046875 -1.390625 2.484375q-0.484375 1.421875 -0.484375 3.078125zm2.625 0.3125l0 -0.3125q0 -1.109375 0.265625 -2.140625q0.265625 -1.03125 0.828125 -1.8125q0.53125 -0.78125 1.34375 -1.234375q0.8125 -0.46875 1.90625 -0.46875q1.09375 0 1.90625 0.46875q0.8125 0.453125 1.375 1.234375q0.53125 0.78125 0.8125 1.8125q0.28125 1.03125 0.28125 2.140625l0 0.3125q0 1.140625 -0.28125 2.171875q-0.265625 1.03125 -0.796875 1.8125q-0.5625 0.78125 -1.375 1.234375q-0.8125 0.453125 -1.890625 0.453125q-1.09375 0 -1.921875 -0.453125q-0.828125 -0.453125 -1.359375 -1.234375q-0.5625 -0.78125 -0.828125 -1.8125q-0.265625 -1.03125 -0.265625 -2.171875zm22.105957 5.671875q-1.234375 0 -2.0625 -0.484375q-0.828125 -0.5 -1.328125 -1.296875q-0.515625 -0.78125 -0.734375 -1.765625q-0.21875 -0.984375 -0.21875 -2.0l0 -0.59375q0 -0.984375 0.21875 -1.96875q0.21875 -0.984375 0.734375 -1.78125q0.515625 -0.78125 1.34375 -1.265625q0.828125 -0.484375 2.046875 -0.484375q0.796875 0 1.484375 0.265625q0.6875 0.265625 1.1875 0.734375q0.5 0.46875 0.78125 1.09375q0.296875 0.609375 0.3125 1.3125l2.484375 0q0 -1.171875 -0.46875 -2.1875q-0.46875 -1.03125 -1.296875 -1.78125q-0.828125 -0.734375 -1.984375 -1.15625q-1.140625 -0.4375 -2.5 -0.4375q-1.75 0 -3.0625 0.625q-1.296875 0.625 -2.15625 1.671875q-0.890625 1.0625 -1.328125 2.453125q-0.4375 1.390625 -0.4375 2.90625l0 0.59375q0 1.546875 0.4375 2.9375q0.4375 1.375 1.328125 2.421875q0.859375 1.0625 2.15625 1.6875q1.3125 0.625 3.0625 0.625q1.21875 0 2.34375 -0.40625q1.125 -0.421875 1.984375 -1.140625q0.875 -0.6875 1.390625 -1.609375q0.515625 -0.9375 0.53125 -1.96875l-2.484375 0q-0.015625 0.640625 -0.34375 1.1875q-0.3125 0.546875 -0.84375 0.9375q-0.515625 0.421875 -1.203125 0.65625q-0.671875 0.21875 -1.375 0.21875zm15.512207 -5.328125l5.625 7.171875l3.34375 0l-7.171875 -8.953125l6.21875 -6.40625l-3.203125 0l-5.03125 5.046875l-1.71875 1.84375l0 -13.34375l-2.640625 0l0 21.8125l2.640625 0l0 -5.3125l1.9375 -1.859375zm32.88379 -1.21875l0 0.140625q0 2.03125 0.3125 3.828125q0.328125 1.78125 0.875 3.296875q0.515625 1.53125 1.21875 2.78125q0.703125 1.265625 1.484375 2.25q0.765625 0.984375 1.546875 1.671875q0.796875 0.703125 1.515625 1.09375l0.546875 -1.609375q-0.578125 -0.46875 -1.15625 -1.125q-0.578125 -0.65625 -1.109375 -1.515625q-0.53125 -0.890625 -1.015625 -2.015625q-0.484375 -1.125 -0.84375 -2.453125q-0.34375 -1.296875 -0.546875 -2.84375q-0.1875 -1.5625 -0.1875 -3.328125l0 -0.203125q0 -1.84375 0.203125 -3.4375q0.21875 -1.609375 0.59375 -2.953125q0.40625 -1.46875 1.0 -2.703125q0.59375 -1.25 1.25 -2.171875q0.4375 -0.609375 0.890625 -1.078125q0.46875 -0.484375 0.921875 -0.828125l-0.546875 -1.734375q-0.71875 0.390625 -1.5 1.09375q-0.78125 0.703125 -1.546875 1.671875q-0.78125 0.984375 -1.484375 2.25q-0.703125 1.265625 -1.234375 2.78125q-0.546875 1.53125 -0.875 3.328125q-0.3125 1.78125 -0.3125 3.8125zm27.840332 -12.28125l-2.546875 0l-0.046875 14.0q-0.03125 0.921875 -0.296875 1.78125q-0.265625 0.84375 -0.78125 1.5q-0.515625 0.671875 -1.296875 1.0625q-0.765625 0.390625 -1.765625 0.390625q-1.015625 0 -1.796875 -0.390625q-0.765625 -0.40625 -1.265625 -1.0625q-0.53125 -0.65625 -0.8125 -1.5q-0.265625 -0.859375 -0.28125 -1.78125l-0.0625 -14.0l-2.5 0l-0.03125 14.0q0.015625 1.453125 0.515625 2.71875q0.5 1.265625 1.375 2.203125q0.890625 0.953125 2.125 1.5q1.234375 0.53125 2.734375 0.53125q1.46875 0 2.703125 -0.546875q1.25 -0.546875 2.140625 -1.5q0.890625 -0.9375 1.390625 -2.1875q0.515625 -1.265625 0.515625 -2.71875l-0.015625 -14.0zm18.090332 11.265625l0 -1.828125q0 -1.125 -0.1875 -2.296875q-0.1875 -1.171875 -0.5625 -2.25q-0.375 -1.09375 -0.96875 -2.03125q-0.59375 -0.9375 -1.390625 -1.640625q-0.828125 -0.6875 -1.890625 -1.09375q-1.0625 -0.40625 -2.375 -0.40625q-1.328125 0 -2.390625 0.40625q-1.046875 0.40625 -1.859375 1.09375q-0.8125 0.71875 -1.40625 1.65625q-0.578125 0.9375 -0.96875 2.015625q-0.375 1.09375 -0.5625 2.265625q-0.1875 1.15625 -0.203125 2.28125l0 1.828125q0.015625 1.125 0.203125 2.28125q0.1875 1.15625 0.5625 2.234375q0.390625 1.078125 0.984375 2.03125q0.59375 0.9375 1.421875 1.640625q0.8125 0.6875 1.859375 1.09375q1.046875 0.40625 2.375 0.40625q0.515625 0 0.984375 -0.0625q0.46875 -0.0625 0.921875 -0.1875l4.078125 3.46875l1.8125 -1.71875l-3.5625 -2.96875q0.8125 -0.703125 1.40625 -1.640625q0.59375 -0.953125 0.96875 -2.03125q0.375 -1.078125 0.5625 -2.234375q0.1875 -1.171875 0.1875 -2.3125zm-2.609375 -1.859375l0 1.859375q-0.015625 0.78125 -0.09375 1.625q-0.078125 0.84375 -0.265625 1.65625q-0.21875 0.828125 -0.5625 1.578125q-0.34375 0.734375 -0.859375 1.28125q-0.53125 0.5625 -1.265625 0.90625q-0.71875 0.328125 -1.703125 0.328125q-0.96875 0 -1.703125 -0.328125q-0.734375 -0.34375 -1.25 -0.90625q-0.53125 -0.5625 -0.875 -1.296875q-0.34375 -0.75 -0.5625 -1.578125q-0.21875 -0.8125 -0.3125 -1.65625q-0.078125 -0.84375 -0.078125 -1.609375l0 -1.859375q0 -0.765625 0.078125 -1.609375q0.09375 -0.84375 0.3125 -1.671875q0.21875 -0.796875 0.5625 -1.53125q0.34375 -0.75 0.875 -1.3125q0.515625 -0.5625 1.234375 -0.890625q0.734375 -0.328125 1.703125 -0.328125q0.984375 0 1.703125 0.328125q0.734375 0.328125 1.265625 0.875q0.515625 0.5625 0.859375 1.3125q0.359375 0.734375 0.578125 1.546875q0.1875 0.8125 0.265625 1.65625q0.078125 0.84375 0.09375 1.625zm17.809082 1.703125l0 -2.21875l-8.640625 0l0 -6.640625l9.953125 0l0 -2.25l-12.578125 0l0 20.671875l12.703125 0l0 -2.234375l-10.078125 0l0 -7.328125l8.640625 0zm6.043457 9.5625l6.625 0q1.3125 -0.015625 2.546875 -0.40625q1.25 -0.40625 2.203125 -1.15625q0.953125 -0.734375 1.515625 -1.84375q0.578125 -1.109375 0.5625 -2.5625q0 -0.921875 -0.28125 -1.703125q-0.28125 -0.796875 -0.765625 -1.4375q-0.46875 -0.59375 -1.203125 -1.0625q-0.71875 -0.484375 -1.5 -0.671875l0 -0.046875q0.75 -0.328125 1.28125 -0.6875q0.53125 -0.375 0.96875 -0.921875q0.4375 -0.515625 0.671875 -1.1875q0.25 -0.671875 0.265625 -1.46875q0.015625 -1.453125 -0.546875 -2.484375q-0.5625 -1.046875 -1.515625 -1.71875q-0.953125 -0.65625 -2.171875 -0.96875q-1.21875 -0.328125 -2.5 -0.34375l-6.15625 0l0 20.671875zm2.640625 -9.671875l4.1875 0q0.84375 0.03125 1.5625 0.296875q0.734375 0.25 1.265625 0.71875q0.546875 0.484375 0.84375 1.171875q0.3125 0.671875 0.296875 1.546875q0 0.875 -0.34375 1.5625q-0.328125 0.671875 -0.890625 1.140625q-0.578125 0.46875 -1.3125 0.734375q-0.734375 0.25 -1.5625 0.265625l-4.046875 0l0 -7.4375zm0 -2.1875l0 -6.5625l3.59375 0q0.765625 0 1.5 0.1875q0.734375 0.1875 1.296875 0.578125q0.5625 0.390625 0.890625 1.0q0.328125 0.609375 0.328125 1.484375q0 0.796875 -0.34375 1.421875q-0.328125 0.609375 -0.890625 1.015625q-0.546875 0.421875 -1.265625 0.640625q-0.703125 0.21875 -1.4375 0.234375l-3.671875 0zm24.418457 3.609375l0 -0.140625q0 -2.171875 -0.328125 -3.90625q-0.328125 -1.75 -0.84375 -3.234375q-0.53125 -1.546875 -1.234375 -2.78125q-0.6875 -1.234375 -1.484375 -2.25q-0.765625 -0.96875 -1.5625 -1.671875q-0.78125 -0.703125 -1.5 -1.09375l-0.546875 1.609375q0.46875 0.375 0.953125 0.921875q0.5 0.546875 0.96875 1.28125q0.609375 0.921875 1.1875 2.171875q0.59375 1.234375 1.0 2.796875q0.28125 1.09375 0.515625 2.65625q0.234375 1.546875 0.234375 3.46875l0 0.203125q0 1.6875 -0.171875 3.171875q-0.171875 1.484375 -0.5 2.765625q-0.3125 1.375 -0.8125 2.53125q-0.484375 1.15625 -1.0 2.078125q-0.5625 0.90625 -1.171875 1.59375q-0.609375 0.703125 -1.203125 1.140625l0.546875 1.609375q0.71875 -0.390625 1.5 -1.09375q0.796875 -0.6875 1.5625 -1.671875q0.78125 -0.984375 1.484375 -2.25q0.703125 -1.25 1.234375 -2.78125q0.546875 -1.515625 0.859375 -3.296875q0.3125 -1.796875 0.3125 -3.828125z" fill-rule="nonzero"/><path fill="#ffffff" d="m245.07692 212.80717l679.1181 0l0 174.67717l-679.1181 0z" fill-rule="evenodd"/><path stroke="#000000" stroke-width="1.2125984251968505" stroke-linejoin="round" stroke-linecap="butt" stroke-dasharray="4.850393700787402,3.637795275590551" d="m245.07692 212.80717l679.1181 0l0 174.67717l-679.1181 0z" fill-rule="evenodd"/><path fill="#000000" fill-opacity="0.0" d="m488.92996 218.33546l191.43307 0l0 36.094482l-191.43307 0z" fill-rule="evenodd"/><path fill="#000000" d="m530.707 240.59279l-2.625 0q-0.125 0.9375 -0.4375 1.75q-0.3125 0.796875 -0.84375 1.375q-0.53125 0.59375 -1.296875 0.921875q-0.75 0.328125 -1.78125 0.328125q-0.953125 0 -1.671875 -0.296875q-0.703125 -0.3125 -1.21875 -0.859375q-0.53125 -0.515625 -0.875 -1.203125q-0.34375 -0.703125 -0.546875 -1.5q-0.21875 -0.78125 -0.3125 -1.59375q-0.09375 -0.828125 -0.09375 -1.59375l0 -2.90625q0 -0.765625 0.09375 -1.578125q0.09375 -0.828125 0.3125 -1.609375q0.203125 -0.78125 0.546875 -1.46875q0.359375 -0.703125 0.875 -1.21875q0.515625 -0.53125 1.234375 -0.828125q0.71875 -0.3125 1.65625 -0.3125q1.03125 0 1.78125 0.359375q0.765625 0.34375 1.296875 0.953125q0.53125 0.609375 0.84375 1.421875q0.3125 0.796875 0.4375 1.734375l2.625 0q-0.171875 -1.46875 -0.703125 -2.6875q-0.53125 -1.234375 -1.40625 -2.109375q-0.890625 -0.859375 -2.109375 -1.328125q-1.21875 -0.484375 -2.765625 -0.484375q-1.296875 0 -2.328125 0.359375q-1.03125 0.359375 -1.84375 1.0q-0.828125 0.640625 -1.421875 1.515625q-0.578125 0.875 -0.96875 1.890625q-0.390625 1.03125 -0.59375 2.15625q-0.1875 1.109375 -0.203125 2.265625l0 2.875q0.015625 1.15625 0.203125 2.28125q0.203125 1.109375 0.59375 2.140625q0.390625 1.015625 0.96875 1.890625q0.59375 0.859375 1.421875 1.5q0.8125 0.640625 1.84375 1.0q1.046875 0.359375 2.328125 0.359375q1.484375 0 2.703125 -0.46875q1.21875 -0.484375 2.109375 -1.34375q0.875 -0.859375 1.421875 -2.046875q0.5625 -1.203125 0.75 -2.640625zm4.027832 6.21875l6.625 0q1.3125 -0.015625 2.546875 -0.40625q1.25 -0.40625 2.203125 -1.15625q0.953125 -0.734375 1.515625 -1.84375q0.578125 -1.109375 0.5625 -2.5625q0 -0.921875 -0.28125 -1.703125q-0.28125 -0.796875 -0.765625 -1.4375q-0.46875 -0.59375 -1.203125 -1.0625q-0.71875 -0.484375 -1.5 -0.671875l0 -0.046875q0.75 -0.328125 1.28125 -0.6875q0.53125 -0.375 0.96875 -0.921875q0.4375 -0.515625 0.671875 -1.1875q0.25 -0.671875 0.265625 -1.46875q0.015625 -1.453125 -0.546875 -2.484375q-0.5625 -1.046875 -1.515625 -1.71875q-0.953125 -0.65625 -2.171875 -0.96875q-1.21875 -0.328125 -2.5 -0.34375l-6.15625 0l0 20.671875zm2.640625 -9.671875l4.1875 0q0.84375 0.03125 1.5625 0.296875q0.734375 0.25 1.265625 0.71875q0.546875 0.484375 0.84375 1.171875q0.3125 0.671875 0.296875 1.546875q0 0.875 -0.34375 1.5625q-0.328125 0.671875 -0.890625 1.140625q-0.578125 0.46875 -1.3125 0.734375q-0.734375 0.25 -1.5625 0.265625l-4.046875 0l0 -7.4375zm0 -2.1875l0 -6.5625l3.59375 0q0.765625 0 1.5 0.1875q0.734375 0.1875 1.296875 0.578125q0.5625 0.390625 0.890625 1.0q0.328125 0.609375 0.328125 1.484375q0 0.796875 -0.34375 1.421875q-0.328125 0.609375 -0.890625 1.015625q-0.546875 0.421875 -1.265625 0.640625q-0.703125 0.21875 -1.4375 0.234375l-3.671875 0zm28.293518 2.71875l0 -2.359375q-0.015625 -1.109375 -0.203125 -2.234375q-0.171875 -1.140625 -0.546875 -2.203125q-0.375 -1.046875 -0.953125 -1.953125q-0.578125 -0.921875 -1.375 -1.609375q-0.796875 -0.671875 -1.828125 -1.0625q-1.03125 -0.390625 -2.3125 -0.390625q-1.28125 0 -2.3125 0.390625q-1.03125 0.390625 -1.8125 1.0625q-0.796875 0.703125 -1.375 1.625q-0.578125 0.90625 -0.953125 1.953125q-0.375 1.0625 -0.5625 2.1875q-0.171875 1.125 -0.1875 2.234375l0 2.359375q0.015625 1.109375 0.203125 2.234375q0.1875 1.109375 0.5625 2.15625q0.375 1.0625 0.953125 1.984375q0.59375 0.90625 1.375 1.59375q0.796875 0.671875 1.828125 1.0625q1.03125 0.390625 2.3125 0.390625q1.28125 0 2.296875 -0.390625q1.03125 -0.390625 1.828125 -1.0625q0.796875 -0.6875 1.375 -1.59375q0.578125 -0.90625 0.9375 -1.96875q0.375 -1.046875 0.546875 -2.171875q0.1875 -1.125 0.203125 -2.234375zm-2.609375 -2.390625l0 2.390625q-0.015625 0.734375 -0.09375 1.546875q-0.078125 0.8125 -0.265625 1.59375q-0.21875 0.796875 -0.5625 1.515625q-0.328125 0.703125 -0.8125 1.25q-0.515625 0.546875 -1.21875 0.875q-0.703125 0.328125 -1.625 0.328125q-0.921875 0 -1.625 -0.328125q-0.6875 -0.328125 -1.203125 -0.875q-0.515625 -0.546875 -0.859375 -1.265625q-0.328125 -0.71875 -0.546875 -1.515625q-0.21875 -0.78125 -0.3125 -1.59375q-0.078125 -0.8125 -0.09375 -1.53125l0 -2.390625q0.015625 -0.71875 0.09375 -1.515625q0.09375 -0.8125 0.3125 -1.609375q0.203125 -0.78125 0.53125 -1.5q0.34375 -0.71875 0.859375 -1.265625q0.515625 -0.53125 1.203125 -0.859375q0.703125 -0.328125 1.609375 -0.328125q0.921875 0 1.609375 0.328125q0.703125 0.3125 1.21875 0.84375q0.515625 0.5625 0.84375 1.28125q0.34375 0.703125 0.5625 1.484375q0.203125 0.796875 0.28125 1.609375q0.078125 0.796875 0.09375 1.53125zm13.449707 3.09375l4.0625 8.4375l2.765625 0l0.015625 -0.171875l-4.390625 -8.828125q0.859375 -0.375 1.5625 -0.890625q0.71875 -0.53125 1.21875 -1.21875q0.515625 -0.671875 0.796875 -1.5q0.296875 -0.84375 0.296875 -1.859375q0 -1.5625 -0.546875 -2.71875q-0.546875 -1.15625 -1.484375 -1.921875q-0.96875 -0.765625 -2.25 -1.140625q-1.28125 -0.390625 -2.734375 -0.421875l-6.0625 0l0 20.671875l2.625 0l0 -8.4375l4.125 0zm-4.125 -2.15625l0 -7.921875l3.4375 0q0.953125 0.015625 1.75 0.28125q0.8125 0.25 1.390625 0.734375q0.59375 0.515625 0.90625 1.265625q0.328125 0.75 0.328125 1.734375q0 0.9375 -0.34375 1.65625q-0.328125 0.71875 -0.921875 1.21875q-0.59375 0.5 -1.375 0.765625q-0.78125 0.25 -1.65625 0.265625l-3.515625 0zm35.07129 -10.078125l-3.265625 0l0 20.671875l2.5625 0l0 -8.25l-0.21875 -8.328125l3.515625 10.828125l1.5 0l3.828125 -11.125l-0.21875 8.625l0 8.25l2.5625 0l0 -20.671875l-3.265625 0l-3.640625 10.328125l-3.359375 -10.328125zm24.652893 20.671875l2.75 0l0 -0.234375q-0.265625 -0.625 -0.40625 -1.484375q-0.140625 -0.859375 -0.140625 -1.625l0 -7.15625q0 -1.28125 -0.46875 -2.25q-0.46875 -0.96875 -1.28125 -1.625q-0.8125 -0.625 -1.9375 -0.9375q-1.125 -0.328125 -2.4375 -0.328125q-1.421875 0 -2.5625 0.40625q-1.125 0.390625 -1.90625 1.015625q-0.796875 0.65625 -1.21875 1.46875q-0.40625 0.8125 -0.421875 1.640625l2.640625 0q0 -0.46875 0.234375 -0.921875q0.234375 -0.453125 0.65625 -0.78125q0.421875 -0.328125 1.03125 -0.515625q0.625 -0.203125 1.40625 -0.203125q0.84375 0 1.515625 0.21875q0.671875 0.203125 1.140625 0.59375q0.46875 0.390625 0.71875 0.953125q0.265625 0.546875 0.265625 1.25l0 1.203125l-2.875 0q-1.59375 0 -2.90625 0.3125q-1.296875 0.3125 -2.21875 0.9375q-0.921875 0.640625 -1.421875 1.59375q-0.5 0.953125 -0.5 2.203125q0 0.96875 0.375 1.8125q0.375 0.828125 1.0625 1.421875q0.6875 0.609375 1.671875 0.96875q0.984375 0.34375 2.21875 0.34375q0.75 0 1.40625 -0.15625q0.671875 -0.15625 1.265625 -0.421875q0.59375 -0.265625 1.078125 -0.625q0.484375 -0.359375 0.890625 -0.75q0.03125 0.484375 0.125 0.9375q0.09375 0.4375 0.25 0.734375zm-4.640625 -2.0q-0.765625 0 -1.359375 -0.203125q-0.578125 -0.203125 -0.953125 -0.546875q-0.390625 -0.34375 -0.578125 -0.828125q-0.1875 -0.484375 -0.1875 -1.046875q0 -0.59375 0.21875 -1.0625q0.21875 -0.46875 0.640625 -0.8125q0.59375 -0.484375 1.609375 -0.71875q1.015625 -0.234375 2.390625 -0.234375l2.4375 0l0 3.109375q-0.234375 0.453125 -0.625 0.875q-0.390625 0.421875 -0.9375 0.75q-0.546875 0.3125 -1.21875 0.515625q-0.671875 0.203125 -1.4375 0.203125zm11.980957 7.90625l2.625 0l0 -7.390625q0.28125 0.3125 0.609375 0.578125q0.328125 0.265625 0.703125 0.484375q0.609375 0.34375 1.359375 0.515625q0.765625 0.1875 1.65625 0.1875q1.4375 0 2.5625 -0.59375q1.140625 -0.59375 1.90625 -1.640625q0.765625 -1.0625 1.15625 -2.484375q0.40625 -1.421875 0.40625 -3.078125l0 -0.296875q0 -1.71875 -0.40625 -3.15625q-0.390625 -1.4375 -1.15625 -2.484375q-0.765625 -1.03125 -1.90625 -1.609375q-1.140625 -0.578125 -2.609375 -0.578125q-0.84375 0 -1.578125 0.171875q-0.71875 0.171875 -1.328125 0.515625q-0.421875 0.234375 -0.796875 0.5625q-0.359375 0.3125 -0.671875 0.703125l-0.125 -1.671875l-2.40625 0l0 21.265625zm10.359375 -13.71875l0 0.296875q0 1.125 -0.25 2.15625q-0.25 1.015625 -0.765625 1.796875q-0.515625 0.78125 -1.3125 1.25q-0.78125 0.453125 -1.875 0.453125q-0.6875 0 -1.25 -0.171875q-0.5625 -0.171875 -1.015625 -0.46875q-0.390625 -0.25 -0.703125 -0.625q-0.3125 -0.375 -0.5625 -0.796875l0 -7.390625q0.28125 -0.484375 0.625 -0.875q0.359375 -0.40625 0.8125 -0.671875q0.40625 -0.28125 0.921875 -0.421875q0.53125 -0.140625 1.140625 -0.140625q1.109375 0 1.90625 0.453125q0.796875 0.453125 1.3125 1.234375q0.515625 0.765625 0.765625 1.78125q0.25 1.015625 0.25 2.140625z" fill-rule="nonzero"/><path fill="#ffffff" d="m590.55035 260.25815l323.0866 0l0 119.08664l-323.0866 0z" fill-rule="evenodd"/><path stroke="#000000" stroke-width="1.2125984251968505" stroke-linejoin="round" stroke-linecap="butt" d="m590.55035 260.25815l323.0866 0l0 119.08664l-323.0866 0z" fill-rule="evenodd"/><path fill="#000000" d="m751.11884 328.5272q0 0.828125 0.515625 1.40625q0.515625 0.5625 1.53125 0.5625q1.015625 0 1.546875 -0.5625q0.546875 -0.5625 0.546875 -1.40625q0 -0.859375 -0.53125 -1.4375q-0.53125 -0.59375 -1.5625 -0.59375q-1.03125 0 -1.546875 0.59375q-0.5 0.59375 -0.5 1.4375zm0 -12.4375q0 0.828125 0.515625 1.40625q0.515625 0.5625 1.53125 0.5625q1.015625 0 1.546875 -0.5625q0.546875 -0.5625 0.546875 -1.40625q0 -0.859375 -0.53125 -1.4375q-0.53125 -0.59375 -1.5625 -0.59375q-1.03125 0 -1.546875 0.59375q-0.5 0.59375 -0.5 1.4375z" fill-rule="nonzero"/><path fill="#000000" fill-opacity="0.0" d="m757.9944 270.61905l155.65356 0l0 94.01575l-155.65356 0z" fill-rule="evenodd"/><path fill="#000000" d="m816.3749 288.876l-2.546875 0l-0.046875 14.0q-0.03125 0.921875 -0.296875 1.78125q-0.265625 0.84375 -0.78125 1.5q-0.515625 0.671875 -1.296875 1.0625q-0.765625 0.390625 -1.765625 0.390625q-1.015625 0 -1.796875 -0.390625q-0.765625 -0.40625 -1.265625 -1.0625q-0.53125 -0.65625 -0.8125 -1.5q-0.265625 -0.859375 -0.28125 -1.78125l-0.0625 -14.0l-2.5 0l-0.03125 14.0q0.015625 1.453125 0.515625 2.71875q0.5 1.265625 1.375 2.203125q0.890625 0.953125 2.125 1.5q1.234375 0.53125 2.734375 0.53125q1.46875 0 2.703125 -0.546875q1.25 -0.546875 2.140625 -1.5q0.890625 -0.9375 1.390625 -2.1875q0.515625 -1.265625 0.515625 -2.71875l-0.015625 -14.0zm14.668457 16.59375q0 0.375 -0.140625 0.703125q-0.140625 0.328125 -0.40625 0.59375q-0.4375 0.4375 -1.21875 0.6875q-0.78125 0.25 -1.828125 0.25q-0.671875 0 -1.359375 -0.140625q-0.671875 -0.140625 -1.234375 -0.484375q-0.5625 -0.34375 -0.9375 -0.890625q-0.375 -0.5625 -0.4375 -1.375l-2.625 0q0 0.984375 0.4375 1.890625q0.453125 0.90625 1.3125 1.59375q0.828125 0.703125 2.046875 1.125q1.234375 0.40625 2.796875 0.40625q1.359375 0 2.5 -0.328125q1.15625 -0.328125 1.984375 -0.921875q0.828125 -0.59375 1.28125 -1.421875q0.46875 -0.84375 0.46875 -1.875q0 -0.9375 -0.40625 -1.65625q-0.40625 -0.734375 -1.171875 -1.296875q-0.765625 -0.53125 -1.890625 -0.921875q-1.125 -0.390625 -2.546875 -0.6875q-1.078125 -0.21875 -1.78125 -0.4375q-0.703125 -0.234375 -1.109375 -0.515625q-0.421875 -0.28125 -0.59375 -0.640625q-0.171875 -0.359375 -0.171875 -0.8125q0 -0.4375 0.203125 -0.84375q0.21875 -0.421875 0.640625 -0.734375q0.421875 -0.3125 1.046875 -0.484375q0.625 -0.1875 1.46875 -0.1875q0.8125 0 1.453125 0.234375q0.65625 0.21875 1.109375 0.578125q0.453125 0.375 0.703125 0.859375q0.25 0.46875 0.25 0.96875l2.640625 0q0 -1.015625 -0.4375 -1.890625q-0.4375 -0.875 -1.234375 -1.515625q-0.796875 -0.65625 -1.9375 -1.015625q-1.125 -0.375 -2.546875 -0.375q-1.3125 0 -2.421875 0.359375q-1.09375 0.34375 -1.890625 0.953125q-0.796875 0.609375 -1.234375 1.4375q-0.4375 0.8125 -0.4375 1.75q0 0.953125 0.421875 1.671875q0.421875 0.703125 1.203125 1.234375q0.765625 0.53125 1.84375 0.921875q1.09375 0.390625 2.421875 0.65625q1.078125 0.203125 1.796875 0.46875q0.71875 0.265625 1.171875 0.578125q0.4375 0.3125 0.609375 0.6875q0.1875 0.375 0.1875 0.84375zm14.027832 4.359375q2.25 0 3.765625 -0.890625q1.53125 -0.90625 2.296875 -2.078125l-1.59375 -1.25q-0.734375 0.9375 -1.828125 1.515625q-1.078125 0.5625 -2.484375 0.5625q-1.078125 0 -1.953125 -0.390625q-0.875 -0.40625 -1.5 -1.09375q-0.609375 -0.65625 -0.96875 -1.5q-0.34375 -0.859375 -0.4375 -1.984375l0 -0.09375l10.96875 0l0 -1.1875q0 -1.609375 -0.40625 -2.984375q-0.40625 -1.375 -1.21875 -2.390625q-0.828125 -1.015625 -2.078125 -1.578125q-1.234375 -0.578125 -2.890625 -0.578125q-1.328125 0 -2.59375 0.546875q-1.25 0.53125 -2.21875 1.53125q-1.0 1.03125 -1.59375 2.5q-0.59375 1.46875 -0.59375 3.328125l0 0.59375q0 1.609375 0.53125 2.96875q0.546875 1.359375 1.515625 2.359375q0.953125 0.984375 2.3125 1.546875q1.359375 0.546875 2.96875 0.546875zm-0.328125 -13.765625q1.0 0 1.734375 0.375q0.734375 0.359375 1.21875 0.953125q0.484375 0.59375 0.75 1.421875q0.265625 0.8125 0.265625 1.515625l0 0.125l-8.265625 0q0.15625 -1.0625 0.546875 -1.875q0.390625 -0.8125 0.96875 -1.390625q0.5625 -0.546875 1.265625 -0.828125q0.71875 -0.296875 1.515625 -0.296875zm21.059082 -2.15625q-1.671875 0 -2.984375 0.734375q-1.3125 0.71875 -2.25 1.984375l-0.015625 -0.375l-0.109375 -2.0625l-2.5 0l0 15.359375l2.640625 0l0 -9.859375q0.25 -0.703125 0.640625 -1.28125q0.390625 -0.578125 0.921875 -0.96875q0.578125 -0.453125 1.359375 -0.6875q0.78125 -0.234375 1.75 -0.234375q0.75 0 1.4375 0.078125q0.6875 0.078125 1.453125 0.25l0.359375 -2.578125q-0.390625 -0.171875 -1.1875 -0.265625q-0.78125 -0.09375 -1.515625 -0.09375z" fill-rule="nonzero"/><path fill="#000000" d="m799.7437 344.45892l2.28125 0l6.515625 -20.671875l-2.796875 0l-4.578125 15.40625l-0.3125 1.03125l-0.296875 -1.0l-4.546875 -15.4375l-2.796875 0l6.53125 20.671875zm22.465393 0l2.75 0l0 -0.234375q-0.265625 -0.625 -0.40625 -1.484375q-0.140625 -0.859375 -0.140625 -1.625l0 -7.15625q0 -1.28125 -0.46875 -2.25q-0.46875 -0.96875 -1.28125 -1.625q-0.8125 -0.625 -1.9375 -0.9375q-1.125 -0.328125 -2.4375 -0.328125q-1.421875 0 -2.5625 0.40625q-1.125 0.390625 -1.90625 1.015625q-0.796875 0.65625 -1.21875 1.46875q-0.40625 0.8125 -0.421875 1.640625l2.640625 0q0 -0.46875 0.234375 -0.921875q0.234375 -0.453125 0.65625 -0.78125q0.421875 -0.328125 1.03125 -0.515625q0.625 -0.203125 1.40625 -0.203125q0.84375 0 1.515625 0.21875q0.671875 0.203125 1.140625 0.59375q0.46875 0.390625 0.71875 0.953125q0.265625 0.546875 0.265625 1.25l0 1.203125l-2.875 0q-1.59375 0 -2.90625 0.3125q-1.296875 0.3125 -2.21875 0.9375q-0.921875 0.640625 -1.421875 1.59375q-0.5 0.953125 -0.5 2.203125q0 0.96875 0.375 1.8125q0.375 0.828125 1.0625 1.421875q0.6875 0.609375 1.671875 0.96875q0.984375 0.34375 2.21875 0.34375q0.75 0 1.40625 -0.15625q0.671875 -0.15625 1.265625 -0.421875q0.59375 -0.265625 1.078125 -0.625q0.484375 -0.359375 0.890625 -0.75q0.03125 0.484375 0.125 0.9375q0.09375 0.4375 0.25 0.734375zm-4.640625 -2.0q-0.765625 0 -1.359375 -0.203125q-0.578125 -0.203125 -0.953125 -0.546875q-0.390625 -0.34375 -0.578125 -0.828125q-0.1875 -0.484375 -0.1875 -1.046875q0 -0.59375 0.21875 -1.0625q0.21875 -0.46875 0.640625 -0.8125q0.59375 -0.484375 1.609375 -0.71875q1.015625 -0.234375 2.390625 -0.234375l2.4375 0l0 3.109375q-0.234375 0.453125 -0.625 0.875q-0.390625 0.421875 -0.9375 0.75q-0.546875 0.3125 -1.21875 0.515625q-0.671875 0.203125 -1.4375 0.203125zm12.402832 -19.8125l0 2.296875l5.234375 0l0 17.25l-5.234375 0l0 2.265625l12.875 0l0 -2.265625l-5.015625 0l0 -19.546875l-7.859375 0zm27.168457 21.8125l2.390625 0l0 -15.359375l-2.640625 0l0 11.015625q-0.21875 0.5 -0.546875 0.921875q-0.3125 0.40625 -0.734375 0.703125q-0.515625 0.375 -1.21875 0.578125q-0.6875 0.203125 -1.5625 0.203125q-0.75 0 -1.328125 -0.1875q-0.578125 -0.203125 -0.96875 -0.703125q-0.40625 -0.484375 -0.609375 -1.296875q-0.1875 -0.828125 -0.1875 -2.078125l0 -9.15625l-2.625 0l0 9.125q0 1.71875 0.375 2.953125q0.375 1.21875 1.0625 2.015625q0.703125 0.796875 1.671875 1.171875q0.984375 0.375 2.1875 0.375q1.515625 0 2.65625 -0.625q1.15625 -0.640625 1.921875 -1.765625l0.15625 2.109375zm14.105957 0.28125q2.25 0 3.765625 -0.890625q1.53125 -0.90625 2.296875 -2.078125l-1.59375 -1.25q-0.734375 0.9375 -1.828125 1.515625q-1.078125 0.5625 -2.484375 0.5625q-1.078125 0 -1.953125 -0.390625q-0.875 -0.40625 -1.5 -1.09375q-0.609375 -0.65625 -0.96875 -1.5q-0.34375 -0.859375 -0.4375 -1.984375l0 -0.09375l10.96875 0l0 -1.1875q0 -1.609375 -0.40625 -2.984375q-0.40625 -1.375 -1.21875 -2.390625q-0.828125 -1.015625 -2.078125 -1.578125q-1.234375 -0.578125 -2.890625 -0.578125q-1.328125 0 -2.59375 0.546875q-1.25 0.53125 -2.21875 1.53125q-1.0 1.03125 -1.59375 2.5q-0.59375 1.46875 -0.59375 3.328125l0 0.59375q0 1.609375 0.53125 2.96875q0.546875 1.359375 1.515625 2.359375q0.953125 0.984375 2.3125 1.546875q1.359375 0.546875 2.96875 0.546875zm-0.328125 -13.765625q1.0 0 1.734375 0.375q0.734375 0.359375 1.21875 0.953125q0.484375 0.59375 0.75 1.421875q0.265625 0.8125 0.265625 1.515625l0 0.125l-8.265625 0q0.15625 -1.0625 0.546875 -1.875q0.390625 -0.8125 0.96875 -1.390625q0.5625 -0.546875 1.265625 -0.828125q0.71875 -0.296875 1.515625 -0.296875z" fill-rule="nonzero"/><path fill="#000000" fill-opacity="0.0" d="m590.55035 270.62106l155.65356 0l0 94.01575l-155.65356 0z" fill-rule="evenodd"/><path fill="#000000" d="m648.9308 288.87802l-2.546875 0l-0.046875 14.0q-0.03125 0.921875 -0.296875 1.78125q-0.265625 0.84375 -0.78125 1.5q-0.515625 0.671875 -1.296875 1.0625q-0.765625 0.390625 -1.765625 0.390625q-1.015625 0 -1.796875 -0.390625q-0.765625 -0.40625 -1.265625 -1.0625q-0.53125 -0.65625 -0.8125 -1.5q-0.265625 -0.859375 -0.28125 -1.78125l-0.0625 -14.0l-2.5 0l-0.03125 14.0q0.015625 1.453125 0.515625 2.71875q0.5 1.265625 1.375 2.203125q0.890625 0.953125 2.125 1.5q1.234375 0.53125 2.734375 0.53125q1.46875 0 2.703125 -0.546875q1.25 -0.546875 2.140625 -1.5q0.890625 -0.9375 1.390625 -2.1875q0.515625 -1.265625 0.515625 -2.71875l-0.015625 -14.0zm14.668518 16.59375q0 0.375 -0.140625 0.703125q-0.140625 0.328125 -0.40625 0.59375q-0.4375 0.4375 -1.21875 0.6875q-0.78125 0.25 -1.828125 0.25q-0.671875 0 -1.359375 -0.140625q-0.671875 -0.140625 -1.234375 -0.484375q-0.5625 -0.34375 -0.9375 -0.890625q-0.375 -0.5625 -0.4375 -1.375l-2.625 0q0 0.984375 0.4375 1.890625q0.453125 0.90625 1.3125 1.59375q0.828125 0.703125 2.046875 1.125q1.234375 0.40625 2.796875 0.40625q1.359375 0 2.5 -0.328125q1.15625 -0.328125 1.984375 -0.921875q0.828125 -0.59375 1.28125 -1.421875q0.46875 -0.84375 0.46875 -1.875q0 -0.9375 -0.40625 -1.65625q-0.40625 -0.734375 -1.171875 -1.296875q-0.765625 -0.53125 -1.890625 -0.921875q-1.125 -0.390625 -2.546875 -0.6875q-1.078125 -0.21875 -1.78125 -0.4375q-0.703125 -0.234375 -1.109375 -0.515625q-0.421875 -0.28125 -0.59375 -0.640625q-0.171875 -0.359375 -0.171875 -0.8125q0 -0.4375 0.203125 -0.84375q0.21875 -0.421875 0.640625 -0.734375q0.421875 -0.3125 1.046875 -0.484375q0.625 -0.1875 1.46875 -0.1875q0.8125 0 1.453125 0.234375q0.65625 0.21875 1.109375 0.578125q0.453125 0.375 0.703125 0.859375q0.25 0.46875 0.25 0.96875l2.640625 0q0 -1.015625 -0.4375 -1.890625q-0.4375 -0.875 -1.234375 -1.515625q-0.796875 -0.65625 -1.9375 -1.015625q-1.125 -0.375 -2.546875 -0.375q-1.3125 0 -2.421875 0.359375q-1.09375 0.34375 -1.890625 0.953125q-0.796875 0.609375 -1.234375 1.4375q-0.4375 0.8125 -0.4375 1.75q0 0.953125 0.421875 1.671875q0.421875 0.703125 1.203125 1.234375q0.765625 0.53125 1.84375 0.921875q1.09375 0.390625 2.421875 0.65625q1.078125 0.203125 1.796875 0.46875q0.71875 0.265625 1.171875 0.578125q0.4375 0.3125 0.609375 0.6875q0.1875 0.375 0.1875 0.84375zm14.027832 4.359375q2.25 0 3.765625 -0.890625q1.53125 -0.90625 2.296875 -2.078125l-1.59375 -1.25q-0.734375 0.9375 -1.828125 1.515625q-1.078125 0.5625 -2.484375 0.5625q-1.078125 0 -1.953125 -0.390625q-0.875 -0.40625 -1.5 -1.09375q-0.609375 -0.65625 -0.96875 -1.5q-0.34375 -0.859375 -0.4375 -1.984375l0 -0.09375l10.96875 0l0 -1.1875q0 -1.609375 -0.40625 -2.984375q-0.40625 -1.375 -1.21875 -2.390625q-0.828125 -1.015625 -2.078125 -1.578125q-1.234375 -0.578125 -2.890625 -0.578125q-1.328125 0 -2.59375 0.546875q-1.25 0.53125 -2.21875 1.53125q-1.0 1.03125 -1.59375 2.5q-0.59375 1.46875 -0.59375 3.328125l0 0.59375q0 1.609375 0.53125 2.96875q0.546875 1.359375 1.515625 2.359375q0.953125 0.984375 2.3125 1.546875q1.359375 0.546875 2.96875 0.546875zm-0.328125 -13.765625q1.0 0 1.734375 0.375q0.734375 0.359375 1.21875 0.953125q0.484375 0.59375 0.75 1.421875q0.265625 0.8125 0.265625 1.515625l0 0.125l-8.265625 0q0.15625 -1.0625 0.546875 -1.875q0.390625 -0.8125 0.96875 -1.390625q0.5625 -0.546875 1.265625 -0.828125q0.71875 -0.296875 1.515625 -0.296875zm21.059082 -2.15625q-1.671875 0 -2.984375 0.734375q-1.3125 0.71875 -2.25 1.984375l-0.015625 -0.375l-0.109375 -2.0625l-2.5 0l0 15.359375l2.640625 0l0 -9.859375q0.25 -0.703125 0.640625 -1.28125q0.390625 -0.578125 0.921875 -0.96875q0.578125 -0.453125 1.359375 -0.6875q0.78125 -0.234375 1.75 -0.234375q0.75 0 1.4375 0.078125q0.6875 0.078125 1.453125 0.25l0.359375 -2.578125q-0.390625 -0.171875 -1.1875 -0.265625q-0.78125 -0.09375 -1.515625 -0.09375z" fill-rule="nonzero"/><path fill="#000000" d="m649.8839 326.03906l0 -2.25l-15.328125 0l0 2.25l6.390625 0l0 18.421875l2.5625 0l0 -18.421875l6.375 0zm4.746643 24.625q1.046875 0 1.828125 -0.390625q0.796875 -0.375 1.390625 -0.9375q0.609375 -0.578125 1.015625 -1.25q0.421875 -0.65625 0.6875 -1.25l7.796875 -17.734375l-2.9375 0l-3.953125 9.96875l-0.734375 1.796875l-0.671875 -1.859375l-4.21875 -9.90625l-2.9375 0l6.609375 14.640625l-1.046875 2.046875q-0.140625 0.28125 -0.390625 0.71875q-0.25 0.4375 -0.59375 0.84375q-0.34375 0.421875 -0.796875 0.71875q-0.453125 0.296875 -0.984375 0.296875q-0.203125 0 -0.546875 -0.03125q-0.34375 -0.015625 -0.703125 -0.046875l-0.421875 2.15625q0.25 0.046875 0.75 0.125q0.5 0.09375 0.859375 0.09375zm16.199707 -0.296875l2.625 0l0 -7.390625q0.28125 0.3125 0.609375 0.578125q0.328125 0.265625 0.703125 0.484375q0.609375 0.34375 1.359375 0.515625q0.765625 0.1875 1.65625 0.1875q1.4375 0 2.5625 -0.59375q1.140625 -0.59375 1.90625 -1.640625q0.765625 -1.0625 1.15625 -2.484375q0.40625 -1.421875 0.40625 -3.078125l0 -0.296875q0 -1.71875 -0.40625 -3.15625q-0.390625 -1.4375 -1.15625 -2.484375q-0.765625 -1.03125 -1.90625 -1.609375q-1.140625 -0.578125 -2.609375 -0.578125q-0.84375 0 -1.578125 0.171875q-0.71875 0.171875 -1.328125 0.515625q-0.421875 0.234375 -0.796875 0.5625q-0.359375 0.3125 -0.671875 0.703125l-0.125 -1.671875l-2.40625 0l0 21.265625zm10.359375 -13.71875l0 0.296875q0 1.125 -0.25 2.15625q-0.25 1.015625 -0.765625 1.796875q-0.515625 0.78125 -1.3125 1.25q-0.78125 0.453125 -1.875 0.453125q-0.6875 0 -1.25 -0.171875q-0.5625 -0.171875 -1.015625 -0.46875q-0.390625 -0.25 -0.703125 -0.625q-0.3125 -0.375 -0.5625 -0.796875l0 -7.390625q0.28125 -0.484375 0.625 -0.875q0.359375 -0.40625 0.8125 -0.671875q0.40625 -0.28125 0.921875 -0.421875q0.53125 -0.140625 1.140625 -0.140625q1.109375 0 1.90625 0.453125q0.796875 0.453125 1.3125 1.234375q0.515625 0.765625 0.765625 1.78125q0.25 1.015625 0.25 2.140625zm13.887207 8.09375q2.25 0 3.765625 -0.890625q1.53125 -0.90625 2.296875 -2.078125l-1.59375 -1.25q-0.734375 0.9375 -1.828125 1.515625q-1.078125 0.5625 -2.484375 0.5625q-1.078125 0 -1.953125 -0.390625q-0.875 -0.40625 -1.5 -1.09375q-0.609375 -0.65625 -0.96875 -1.5q-0.34375 -0.859375 -0.4375 -1.984375l0 -0.09375l10.96875 0l0 -1.1875q0 -1.609375 -0.40625 -2.984375q-0.40625 -1.375 -1.21875 -2.390625q-0.828125 -1.015625 -2.078125 -1.578125q-1.234375 -0.578125 -2.890625 -0.578125q-1.328125 0 -2.59375 0.546875q-1.25 0.53125 -2.21875 1.53125q-1.0 1.03125 -1.59375 2.5q-0.59375 1.46875 -0.59375 3.328125l0 0.59375q0 1.609375 0.53125 2.96875q0.546875 1.359375 1.515625 2.359375q0.953125 0.984375 2.3125 1.546875q1.359375 0.546875 2.96875 0.546875zm-0.328125 -13.765625q1.0 0 1.734375 0.375q0.734375 0.359375 1.21875 0.953125q0.484375 0.59375 0.75 1.421875q0.265625 0.8125 0.265625 1.515625l0 0.125l-8.265625 0q0.15625 -1.0625 0.546875 -1.875q0.390625 -0.8125 0.96875 -1.390625q0.5625 -0.546875 1.265625 -0.828125q0.71875 -0.296875 1.515625 -0.296875z" fill-rule="nonzero"/><path fill="#ffffff" d="m255.6623 260.78793l323.0866 0l0 119.08664l-323.0866 0z" fill-rule="evenodd"/><path stroke="#000000" stroke-width="1.2125984251968505" stroke-linejoin="round" stroke-linecap="butt" d="m255.6623 260.78793l323.0866 0l0 119.08664l-323.0866 0z" fill-rule="evenodd"/><path fill="#000000" d="m416.23074 329.05698q0 0.828125 0.515625 1.40625q0.515625 0.5625 1.53125 0.5625q1.015625 0 1.546875 -0.5625q0.546875 -0.5625 0.546875 -1.40625q0 -0.859375 -0.53125 -1.4375q-0.53125 -0.59375 -1.5625 -0.59375q-1.03125 0 -1.546875 0.59375q-0.5 0.59375 -0.5 1.4375zm0 -12.4375q0 0.828125 0.515625 1.40625q0.515625 0.5625 1.53125 0.5625q1.015625 0 1.546875 -0.5625q0.546875 -0.5625 0.546875 -1.40625q0 -0.859375 -0.53125 -1.4375q-0.53125 -0.59375 -1.5625 -0.59375q-1.03125 0 -1.546875 0.59375q-0.5 0.59375 -0.5 1.4375z" fill-rule="nonzero"/><path fill="#000000" fill-opacity="0.0" d="m423.10632 269.31317l155.65356 0l0 94.01575l-155.65356 0z" fill-rule="evenodd"/><path fill="#000000" d="m481.4868 287.57013l-2.546875 0l-0.046875 14.0q-0.03125 0.921875 -0.296875 1.78125q-0.265625 0.84375 -0.78125 1.5q-0.515625 0.671875 -1.296875 1.0625q-0.765625 0.390625 -1.765625 0.390625q-1.015625 0 -1.796875 -0.390625q-0.765625 -0.40625 -1.265625 -1.0625q-0.53125 -0.65625 -0.8125 -1.5q-0.265625 -0.859375 -0.28125 -1.78125l-0.0625 -14.0l-2.5 0l-0.03125 14.0q0.015625 1.453125 0.515625 2.71875q0.5 1.265625 1.375 2.203125q0.890625 0.953125 2.125 1.5q1.234375 0.53125 2.734375 0.53125q1.46875 0 2.703125 -0.546875q1.25 -0.546875 2.140625 -1.5q0.890625 -0.9375 1.390625 -2.1875q0.515625 -1.265625 0.515625 -2.71875l-0.015625 -14.0zm14.668457 16.59375q0 0.375 -0.140625 0.703125q-0.140625 0.328125 -0.40625 0.59375q-0.4375 0.4375 -1.21875 0.6875q-0.78125 0.25 -1.828125 0.25q-0.671875 0 -1.359375 -0.140625q-0.671875 -0.140625 -1.234375 -0.484375q-0.5625 -0.34375 -0.9375 -0.890625q-0.375 -0.5625 -0.4375 -1.375l-2.625 0q0 0.984375 0.4375 1.890625q0.453125 0.90625 1.3125 1.59375q0.828125 0.703125 2.046875 1.125q1.234375 0.40625 2.796875 0.40625q1.359375 0 2.5 -0.328125q1.15625 -0.328125 1.984375 -0.921875q0.828125 -0.59375 1.28125 -1.421875q0.46875 -0.84375 0.46875 -1.875q0 -0.9375 -0.40625 -1.65625q-0.40625 -0.734375 -1.171875 -1.296875q-0.765625 -0.53125 -1.890625 -0.921875q-1.125 -0.390625 -2.546875 -0.6875q-1.078125 -0.21875 -1.78125 -0.4375q-0.703125 -0.234375 -1.109375 -0.515625q-0.421875 -0.28125 -0.59375 -0.640625q-0.171875 -0.359375 -0.171875 -0.8125q0 -0.4375 0.203125 -0.84375q0.21875 -0.421875 0.640625 -0.734375q0.421875 -0.3125 1.046875 -0.484375q0.625 -0.1875 1.46875 -0.1875q0.8125 0 1.453125 0.234375q0.65625 0.21875 1.109375 0.578125q0.453125 0.375 0.703125 0.859375q0.25 0.46875 0.25 0.96875l2.640625 0q0 -1.015625 -0.4375 -1.890625q-0.4375 -0.875 -1.234375 -1.515625q-0.796875 -0.65625 -1.9375 -1.015625q-1.125 -0.375 -2.546875 -0.375q-1.3125 0 -2.421875 0.359375q-1.09375 0.34375 -1.890625 0.953125q-0.796875 0.609375 -1.234375 1.4375q-0.4375 0.8125 -0.4375 1.75q0 0.953125 0.421875 1.671875q0.421875 0.703125 1.203125 1.234375q0.765625 0.53125 1.84375 0.921875q1.09375 0.390625 2.421875 0.65625q1.078125 0.203125 1.796875 0.46875q0.71875 0.265625 1.171875 0.578125q0.4375 0.3125 0.609375 0.6875q0.1875 0.375 0.1875 0.84375zm14.027863 4.359375q2.25 0 3.765625 -0.890625q1.53125 -0.90625 2.296875 -2.078125l-1.59375 -1.25q-0.734375 0.9375 -1.828125 1.515625q-1.078125 0.5625 -2.484375 0.5625q-1.078125 0 -1.953125 -0.390625q-0.875 -0.40625 -1.5 -1.09375q-0.609375 -0.65625 -0.96875 -1.5q-0.34375 -0.859375 -0.4375 -1.984375l0 -0.09375l10.96875 0l0 -1.1875q0 -1.609375 -0.40625 -2.984375q-0.40625 -1.375 -1.21875 -2.390625q-0.828125 -1.015625 -2.078125 -1.578125q-1.234375 -0.578125 -2.890625 -0.578125q-1.328125 0 -2.59375 0.546875q-1.25 0.53125 -2.21875 1.53125q-1.0 1.03125 -1.59375 2.5q-0.59375 1.46875 -0.59375 3.328125l0 0.59375q0 1.609375 0.53125 2.96875q0.546875 1.359375 1.515625 2.359375q0.953125 0.984375 2.3125 1.546875q1.359375 0.546875 2.96875 0.546875zm-0.328125 -13.765625q1.0 0 1.734375 0.375q0.734375 0.359375 1.21875 0.953125q0.484375 0.59375 0.75 1.421875q0.265625 0.8125 0.265625 1.515625l0 0.125l-8.265625 0q0.15625 -1.0625 0.546875 -1.875q0.390625 -0.8125 0.96875 -1.390625q0.5625 -0.546875 1.265625 -0.828125q0.71875 -0.296875 1.515625 -0.296875zm21.059082 -2.15625q-1.671875 0 -2.984375 0.734375q-1.3125 0.71875 -2.25 1.984375l-0.015625 -0.375l-0.109375 -2.0625l-2.5 0l0 15.359375l2.640625 0l0 -9.859375q0.25 -0.703125 0.640625 -1.28125q0.390625 -0.578125 0.921875 -0.96875q0.578125 -0.453125 1.359375 -0.6875q0.78125 -0.234375 1.75 -0.234375q0.75 0 1.4375 0.078125q0.6875 0.078125 1.453125 0.25l0.359375 -2.578125q-0.390625 -0.171875 -1.1875 -0.265625q-0.78125 -0.09375 -1.515625 -0.09375z" fill-rule="nonzero"/><path fill="#000000" d="m464.85568 343.15305l2.28125 0l6.515625 -20.671875l-2.796875 0l-4.578125 15.40625l-0.3125 1.03125l-0.296875 -1.0l-4.546875 -15.4375l-2.796875 0l6.53125 20.671875zm22.465332 0l2.75 0l0 -0.234375q-0.265625 -0.625 -0.40625 -1.484375q-0.140625 -0.859375 -0.140625 -1.625l0 -7.15625q0 -1.28125 -0.46875 -2.25q-0.46875 -0.96875 -1.28125 -1.625q-0.8125 -0.625 -1.9375 -0.9375q-1.125 -0.328125 -2.4375 -0.328125q-1.421875 0 -2.5625 0.40625q-1.125 0.390625 -1.90625 1.015625q-0.796875 0.65625 -1.21875 1.46875q-0.40625 0.8125 -0.421875 1.640625l2.640625 0q0 -0.46875 0.234375 -0.921875q0.234375 -0.453125 0.65625 -0.78125q0.421875 -0.328125 1.03125 -0.515625q0.625 -0.203125 1.40625 -0.203125q0.84375 0 1.515625 0.21875q0.671875 0.203125 1.140625 0.59375q0.46875 0.390625 0.71875 0.953125q0.265625 0.546875 0.265625 1.25l0 1.203125l-2.875 0q-1.59375 0 -2.90625 0.3125q-1.296875 0.3125 -2.21875 0.9375q-0.921875 0.640625 -1.421875 1.59375q-0.5 0.953125 -0.5 2.203125q0 0.96875 0.375 1.8125q0.375 0.828125 1.0625 1.421875q0.6875 0.609375 1.671875 0.96875q0.984375 0.34375 2.21875 0.34375q0.75 0 1.40625 -0.15625q0.671875 -0.15625 1.265625 -0.421875q0.59375 -0.265625 1.078125 -0.625q0.484375 -0.359375 0.890625 -0.75q0.03125 0.484375 0.125 0.9375q0.09375 0.4375 0.25 0.734375zm-4.640625 -2.0q-0.765625 0 -1.359375 -0.203125q-0.578125 -0.203125 -0.953125 -0.546875q-0.390625 -0.34375 -0.578125 -0.828125q-0.1875 -0.484375 -0.1875 -1.046875q0 -0.59375 0.21875 -1.0625q0.21875 -0.46875 0.640625 -0.8125q0.59375 -0.484375 1.609375 -0.71875q1.015625 -0.234375 2.390625 -0.234375l2.4375 0l0 3.109375q-0.234375 0.453125 -0.625 0.875q-0.390625 0.421875 -0.9375 0.75q-0.546875 0.3125 -1.21875 0.515625q-0.671875 0.203125 -1.4375 0.203125zm12.402863 -19.8125l0 2.296875l5.234375 0l0 17.25l-5.234375 0l0 2.265625l12.875 0l0 -2.265625l-5.015625 0l0 -19.546875l-7.859375 0zm27.168457 21.8125l2.390625 0l0 -15.359375l-2.640625 0l0 11.015625q-0.21875 0.5 -0.546875 0.921875q-0.3125 0.40625 -0.734375 0.703125q-0.515625 0.375 -1.21875 0.578125q-0.6875 0.203125 -1.5625 0.203125q-0.75 0 -1.328125 -0.1875q-0.578125 -0.203125 -0.96875 -0.703125q-0.40625 -0.484375 -0.609375 -1.296875q-0.1875 -0.828125 -0.1875 -2.078125l0 -9.15625l-2.625 0l0 9.125q0 1.71875 0.375 2.953125q0.375 1.21875 1.0625 2.015625q0.703125 0.796875 1.671875 1.171875q0.984375 0.375 2.1875 0.375q1.515625 0 2.65625 -0.625q1.15625 -0.640625 1.921875 -1.765625l0.15625 2.109375zm14.105957 0.28125q2.25 0 3.765625 -0.890625q1.53125 -0.90625 2.296875 -2.078125l-1.59375 -1.25q-0.734375 0.9375 -1.828125 1.515625q-1.078125 0.5625 -2.484375 0.5625q-1.078125 0 -1.953125 -0.390625q-0.875 -0.40625 -1.5 -1.09375q-0.609375 -0.65625 -0.96875 -1.5q-0.34375 -0.859375 -0.4375 -1.984375l0 -0.09375l10.96875 0l0 -1.1875q0 -1.609375 -0.40625 -2.984375q-0.40625 -1.375 -1.21875 -2.390625q-0.828125 -1.015625 -2.078125 -1.578125q-1.234375 -0.578125 -2.890625 -0.578125q-1.328125 0 -2.59375 0.546875q-1.25 0.53125 -2.21875 1.53125q-1.0 1.03125 -1.59375 2.5q-0.59375 1.46875 -0.59375 3.328125l0 0.59375q0 1.609375 0.53125 2.96875q0.546875 1.359375 1.515625 2.359375q0.953125 0.984375 2.3125 1.546875q1.359375 0.546875 2.96875 0.546875zm-0.328125 -13.765625q1.0 0 1.734375 0.375q0.734375 0.359375 1.21875 0.953125q0.484375 0.59375 0.75 1.421875q0.265625 0.8125 0.265625 1.515625l0 0.125l-8.265625 0q0.15625 -1.0625 0.546875 -1.875q0.390625 -0.8125 0.96875 -1.390625q0.5625 -0.546875 1.265625 -0.828125q0.71875 -0.296875 1.515625 -0.296875z" fill-rule="nonzero"/><path fill="#000000" fill-opacity="0.0" d="m255.6623 269.3152l155.65353 0l0 94.01575l-155.65353 0z" fill-rule="evenodd"/><path fill="#000000" d="m314.04276 287.57214l-2.546875 0l-0.046875 14.0q-0.03125 0.921875 -0.296875 1.78125q-0.265625 0.84375 -0.78125 1.5q-0.515625 0.671875 -1.296875 1.0625q-0.765625 0.390625 -1.765625 0.390625q-1.015625 0 -1.796875 -0.390625q-0.765625 -0.40625 -1.265625 -1.0625q-0.53125 -0.65625 -0.8125 -1.5q-0.265625 -0.859375 -0.28125 -1.78125l-0.0625 -14.0l-2.5 0l-0.03125 14.0q0.015625 1.453125 0.515625 2.71875q0.5 1.265625 1.375 2.203125q0.890625 0.953125 2.125 1.5q1.234375 0.53125 2.734375 0.53125q1.46875 0 2.703125 -0.546875q1.25 -0.546875 2.140625 -1.5q0.890625 -0.9375 1.390625 -2.1875q0.515625 -1.265625 0.515625 -2.71875l-0.015625 -14.0zm14.668457 16.59375q0 0.375 -0.140625 0.703125q-0.140625 0.328125 -0.40625 0.59375q-0.4375 0.4375 -1.21875 0.6875q-0.78125 0.25 -1.828125 0.25q-0.671875 0 -1.359375 -0.140625q-0.671875 -0.140625 -1.234375 -0.484375q-0.5625 -0.34375 -0.9375 -0.890625q-0.375 -0.5625 -0.4375 -1.375l-2.625 0q0 0.984375 0.4375 1.890625q0.453125 0.90625 1.3125 1.59375q0.828125 0.703125 2.046875 1.125q1.234375 0.40625 2.796875 0.40625q1.359375 0 2.5 -0.328125q1.15625 -0.328125 1.984375 -0.921875q0.828125 -0.59375 1.28125 -1.421875q0.46875 -0.84375 0.46875 -1.875q0 -0.9375 -0.40625 -1.65625q-0.40625 -0.734375 -1.171875 -1.296875q-0.765625 -0.53125 -1.890625 -0.921875q-1.125 -0.390625 -2.546875 -0.6875q-1.078125 -0.21875 -1.78125 -0.4375q-0.703125 -0.234375 -1.109375 -0.515625q-0.421875 -0.28125 -0.59375 -0.640625q-0.171875 -0.359375 -0.171875 -0.8125q0 -0.4375 0.203125 -0.84375q0.21875 -0.421875 0.640625 -0.734375q0.421875 -0.3125 1.046875 -0.484375q0.625 -0.1875 1.46875 -0.1875q0.8125 0 1.453125 0.234375q0.65625 0.21875 1.109375 0.578125q0.453125 0.375 0.703125 0.859375q0.25 0.46875 0.25 0.96875l2.640625 0q0 -1.015625 -0.4375 -1.890625q-0.4375 -0.875 -1.234375 -1.515625q-0.796875 -0.65625 -1.9375 -1.015625q-1.125 -0.375 -2.546875 -0.375q-1.3125 0 -2.421875 0.359375q-1.09375 0.34375 -1.890625 0.953125q-0.796875 0.609375 -1.234375 1.4375q-0.4375 0.8125 -0.4375 1.75q0 0.953125 0.421875 1.671875q0.421875 0.703125 1.203125 1.234375q0.765625 0.53125 1.84375 0.921875q1.09375 0.390625 2.421875 0.65625q1.078125 0.203125 1.796875 0.46875q0.71875 0.265625 1.171875 0.578125q0.4375 0.3125 0.609375 0.6875q0.1875 0.375 0.1875 0.84375zm14.027863 4.359375q2.25 0 3.765625 -0.890625q1.53125 -0.90625 2.296875 -2.078125l-1.59375 -1.25q-0.734375 0.9375 -1.828125 1.515625q-1.078125 0.5625 -2.484375 0.5625q-1.078125 0 -1.953125 -0.390625q-0.875 -0.40625 -1.5 -1.09375q-0.609375 -0.65625 -0.96875 -1.5q-0.34375 -0.859375 -0.4375 -1.984375l0 -0.09375l10.96875 0l0 -1.1875q0 -1.609375 -0.40625 -2.984375q-0.40625 -1.375 -1.21875 -2.390625q-0.828125 -1.015625 -2.078125 -1.578125q-1.234375 -0.578125 -2.890625 -0.578125q-1.328125 0 -2.59375 0.546875q-1.25 0.53125 -2.21875 1.53125q-1.0 1.03125 -1.59375 2.5q-0.59375 1.46875 -0.59375 3.328125l0 0.59375q0 1.609375 0.53125 2.96875q0.546875 1.359375 1.515625 2.359375q0.953125 0.984375 2.3125 1.546875q1.359375 0.546875 2.96875 0.546875zm-0.328125 -13.765625q1.0 0 1.734375 0.375q0.734375 0.359375 1.21875 0.953125q0.484375 0.59375 0.75 1.421875q0.265625 0.8125 0.265625 1.515625l0 0.125l-8.265625 0q0.15625 -1.0625 0.546875 -1.875q0.390625 -0.8125 0.96875 -1.390625q0.5625 -0.546875 1.265625 -0.828125q0.71875 -0.296875 1.515625 -0.296875zm21.059082 -2.15625q-1.671875 0 -2.984375 0.734375q-1.3125 0.71875 -2.25 1.984375l-0.015625 -0.375l-0.109375 -2.0625l-2.5 0l0 15.359375l2.640625 0l0 -9.859375q0.25 -0.703125 0.640625 -1.28125q0.390625 -0.578125 0.921875 -0.96875q0.578125 -0.453125 1.359375 -0.6875q0.78125 -0.234375 1.75 -0.234375q0.75 0 1.4375 0.078125q0.6875 0.078125 1.453125 0.25l0.359375 -2.578125q-0.390625 -0.171875 -1.1875 -0.265625q-0.78125 -0.09375 -1.515625 -0.09375z" fill-rule="nonzero"/><path fill="#000000" d="m314.99588 324.7332l0 -2.25l-15.328125 0l0 2.25l6.390625 0l0 18.421875l2.5625 0l0 -18.421875l6.375 0zm4.746582 24.625q1.046875 0 1.828125 -0.390625q0.796875 -0.375 1.390625 -0.9375q0.609375 -0.578125 1.015625 -1.25q0.421875 -0.65625 0.6875 -1.25l7.796875 -17.734375l-2.9375 0l-3.953125 9.96875l-0.734375 1.796875l-0.671875 -1.859375l-4.21875 -9.90625l-2.9375 0l6.609375 14.640625l-1.046875 2.046875q-0.140625 0.28125 -0.390625 0.71875q-0.25 0.4375 -0.59375 0.84375q-0.34375 0.421875 -0.796875 0.71875q-0.453125 0.296875 -0.984375 0.296875q-0.203125 0 -0.546875 -0.03125q-0.34375 -0.015625 -0.703125 -0.046875l-0.421875 2.15625q0.25 0.046875 0.75 0.125q0.5 0.09375 0.859375 0.09375zm16.199738 -0.296875l2.625 0l0 -7.390625q0.28125 0.3125 0.609375 0.578125q0.328125 0.265625 0.703125 0.484375q0.609375 0.34375 1.359375 0.515625q0.765625 0.1875 1.65625 0.1875q1.4375 0 2.5625 -0.59375q1.140625 -0.59375 1.90625 -1.640625q0.765625 -1.0625 1.15625 -2.484375q0.40625 -1.421875 0.40625 -3.078125l0 -0.296875q0 -1.71875 -0.40625 -3.15625q-0.390625 -1.4375 -1.15625 -2.484375q-0.765625 -1.03125 -1.90625 -1.609375q-1.140625 -0.578125 -2.609375 -0.578125q-0.84375 0 -1.578125 0.171875q-0.71875 0.171875 -1.328125 0.515625q-0.421875 0.234375 -0.796875 0.5625q-0.359375 0.3125 -0.671875 0.703125l-0.125 -1.671875l-2.40625 0l0 21.265625zm10.359375 -13.71875l0 0.296875q0 1.125 -0.25 2.15625q-0.25 1.015625 -0.765625 1.796875q-0.515625 0.78125 -1.3125 1.25q-0.78125 0.453125 -1.875 0.453125q-0.6875 0 -1.25 -0.171875q-0.5625 -0.171875 -1.015625 -0.46875q-0.390625 -0.25 -0.703125 -0.625q-0.3125 -0.375 -0.5625 -0.796875l0 -7.390625q0.28125 -0.484375 0.625 -0.875q0.359375 -0.40625 0.8125 -0.671875q0.40625 -0.28125 0.921875 -0.421875q0.53125 -0.140625 1.140625 -0.140625q1.109375 0 1.90625 0.453125q0.796875 0.453125 1.3125 1.234375q0.515625 0.765625 0.765625 1.78125q0.25 1.015625 0.25 2.140625zm13.887207 8.09375q2.25 0 3.765625 -0.890625q1.53125 -0.90625 2.296875 -2.078125l-1.59375 -1.25q-0.734375 0.9375 -1.828125 1.515625q-1.078125 0.5625 -2.484375 0.5625q-1.078125 0 -1.953125 -0.390625q-0.875 -0.40625 -1.5 -1.09375q-0.609375 -0.65625 -0.96875 -1.5q-0.34375 -0.859375 -0.4375 -1.984375l0 -0.09375l10.96875 0l0 -1.1875q0 -1.609375 -0.40625 -2.984375q-0.40625 -1.375 -1.21875 -2.390625q-0.828125 -1.015625 -2.078125 -1.578125q-1.234375 -0.578125 -2.890625 -0.578125q-1.328125 0 -2.59375 0.546875q-1.25 0.53125 -2.21875 1.53125q-1.0 1.03125 -1.59375 2.5q-0.59375 1.46875 -0.59375 3.328125l0 0.59375q0 1.609375 0.53125 2.96875q0.546875 1.359375 1.515625 2.359375q0.953125 0.984375 2.3125 1.546875q1.359375 0.546875 2.96875 0.546875zm-0.328125 -13.765625q1.0 0 1.734375 0.375q0.734375 0.359375 1.21875 0.953125q0.484375 0.59375 0.75 1.421875q0.265625 0.8125 0.265625 1.515625l0 0.125l-8.265625 0q0.15625 -1.0625 0.546875 -1.875q0.390625 -0.8125 0.96875 -1.390625q0.5625 -0.546875 1.265625 -0.828125q0.71875 -0.296875 1.515625 -0.296875z" fill-rule="nonzero"/></g></svg>